<svg width="66" height="66" viewBox="0 0 66 66" fill="none" xmlns="http://www.w3.org/2000/svg">
<rect x="5" y="5" width="56" height="56" rx="28" fill="#E2F1FF"/>
<path d="M37.0833 27.75L41.1667 23.6666M43.5 21.3333L41.1667 23.6666L43.5 21.3333ZM32.2883 32.545C32.8907 33.1394 33.3696 33.847 33.6974 34.6272C34.0252 35.4074 34.1954 36.2448 34.1982 37.091C34.201 37.9373 34.0364 38.7758 33.7139 39.5582C33.3914 40.3406 32.9172 41.0514 32.3188 41.6498C31.7204 42.2482 31.0096 42.7223 30.2272 43.0449C29.4448 43.3674 28.6063 43.532 27.7601 43.5292C26.9138 43.5263 26.0765 43.3561 25.2963 43.0284C24.516 42.7006 23.8084 42.2217 23.214 41.6193C22.0452 40.4091 21.3984 38.7883 21.413 37.1058C21.4276 35.4234 22.1025 33.814 23.2922 32.6243C24.4819 31.4346 26.0912 30.7598 27.7737 30.7452C29.4561 30.7305 31.077 31.3773 32.2872 32.5461L32.2883 32.545ZM32.2883 32.545L37.0833 27.75L32.2883 32.545ZM37.0833 27.75L40.5833 31.25L44.6667 27.1666L41.1667 23.6666L37.0833 27.75Z" stroke="#790E8B" stroke-width="2.33333" stroke-linecap="round" stroke-linejoin="round"/>
<rect x="5" y="5" width="56" height="56" rx="28" stroke="#F0F8FF" stroke-width="10"/>
</svg>
