<svg width="126" height="126" viewBox="0 0 126 126" fill="none" xmlns="http://www.w3.org/2000/svg">
<path d="M126 63C126 97.7935 97.7935 126 63 126C28.21 126 0 97.7935 0 63C0 28.21 28.21 0 63 0C97.7935 0 126 28.21 126 63Z" fill="#FFCC4D"/>
<path d="M40.25 70C45.0825 70 49 64.5155 49 57.75C49 50.9845 45.0825 45.5 40.25 45.5C35.4175 45.5 31.5 50.9845 31.5 57.75C31.5 64.5155 35.4175 70 40.25 70Z" fill="#664500"/>
<path d="M85.7507 70C90.5832 70 94.5007 64.5155 94.5007 57.75C94.5007 50.9845 90.5832 45.5 85.7507 45.5C80.9182 45.5 77.0007 50.9845 77.0007 57.75C77.0007 64.5155 80.9182 70 85.7507 70Z" fill="#664500"/>
<path d="M42.001 97.9983C49.001 80.4983 87.501 80.4983 87.501 87.4983C87.501 90.9983 59.501 83.9983 42.001 97.9983Z" fill="#664500"/>
</svg>
