<svg width="23" height="24" viewBox="0 0 23 24" fill="none" xmlns="http://www.w3.org/2000/svg">
<path d="M14.8953 12.6925C16.7642 11.4516 18.0001 9.32982 18.0001 6.92299C17.9998 3.10537 14.8944 0 11.0768 0C7.25916 0 4.15379 3.10537 4.15379 6.92299C4.15379 9.32982 5.38964 11.4513 7.25853 12.6925C3.02927 14.2529 0 18.3125 0 23.0769V24H22.1536V23.0769C22.1536 18.3125 19.1246 14.2529 14.8953 12.6925ZM5.99992 6.92299C5.99992 4.12354 8.27796 1.84613 11.0768 1.84613C13.8759 1.84613 16.1536 4.12354 16.1536 6.92299C16.1536 9.72243 13.8756 11.9998 11.0768 11.9998C8.27796 11.9998 5.99992 9.72243 5.99992 6.92299ZM1.89197 22.1536C2.35631 17.4961 6.29836 13.846 11.0768 13.846C15.8552 13.846 19.7972 17.4958 20.2616 22.1536H1.89197Z" fill="white"/>
</svg>
