<svg width="60" height="60" viewBox="0 0 60 60" fill="none" xmlns="http://www.w3.org/2000/svg">
<path d="M7.89478 9.47363H15.7895L21.079 35.9013C21.2595 36.8099 21.7538 37.6262 22.4755 38.2071C23.1971 38.788 24.1001 39.0966 25.0264 39.0789H44.2106C45.1368 39.0966 46.0398 38.788 46.7615 38.2071C47.4831 37.6262 47.9774 36.8099 48.1579 35.9013L51.3158 19.3421H17.7632M25.6579 48.9473C25.6579 50.0374 24.7743 50.921 23.6842 50.921C22.5942 50.921 21.7106 50.0374 21.7106 48.9473C21.7106 47.8573 22.5942 46.9736 23.6842 46.9736C24.7743 46.9736 25.6579 47.8573 25.6579 48.9473ZM47.3685 48.9473C47.3685 50.0374 46.4848 50.921 45.3948 50.921C44.3047 50.921 43.4211 50.0374 43.4211 48.9473C43.4211 47.8573 44.3047 46.9736 45.3948 46.9736C46.4848 46.9736 47.3685 47.8573 47.3685 48.9473Z" stroke="#101828" stroke-width="3" stroke-linecap="round" stroke-linejoin="round"/>
</svg>
