<svg width="66" height="66" viewBox="0 0 66 66" fill="none" xmlns="http://www.w3.org/2000/svg">
<rect x="5" y="5" width="56" height="56" rx="28" fill="#D1FADF"/>
<path d="M44.6663 31.9281V33.0015C44.6649 35.5173 43.8503 37.9653 42.3439 39.9803C40.8375 41.9953 38.7202 43.4694 36.3076 44.1827C33.895 44.896 31.3165 44.8104 28.9566 43.9385C26.5966 43.0666 24.5818 41.4553 23.2125 39.3447C21.8432 37.2342 21.1928 34.7375 21.3583 32.2272C21.5238 29.7168 22.4964 27.3272 24.131 25.4147C25.7656 23.5023 27.9746 22.1694 30.4286 21.615C32.8825 21.0605 35.45 21.3142 37.748 22.3381M44.6663 23.6681L32.9997 35.3465L29.4997 31.8465" stroke="#039855" stroke-width="2.33333" stroke-linecap="round" stroke-linejoin="round"/>
<rect x="5" y="5" width="56" height="56" rx="28" stroke="#ECFDF3" stroke-width="10"/>
</svg>
