<svg width="181" height="64" viewBox="0 0 181 64" fill="none" xmlns="http://www.w3.org/2000/svg">
<path d="M168.6 26.1067C166.787 16.9067 158.707 10 149 10C141.293 10 134.6 14.3733 131.267 20.7733C123.24 21.6267 117 28.4267 117 36.6667C117 45.4933 124.173 52.6667 133 52.6667H167.667C175.027 52.6667 181 46.6933 181 39.3333C181 32.2933 175.533 26.5867 168.6 26.1067ZM167.667 47.3333H133C127.107 47.3333 122.333 42.56 122.333 36.6667C122.333 30.7733 127.107 26 133 26H134.893C136.653 19.84 142.28 15.3333 149 15.3333C157.107 15.3333 163.667 21.8933 163.667 30V31.3333H167.667C172.093 31.3333 175.667 34.9067 175.667 39.3333C175.667 43.76 172.093 47.3333 167.667 47.3333Z" fill="#AB47BC"/>
<path d="M53.3333 47.3333C56.2667 47.3333 58.64 44.9333 58.64 42L58.6667 15.3333C58.6667 12.4 56.2667 10 53.3333 10H10.6667C7.73333 10 5.33333 12.4 5.33333 15.3333V42C5.33333 44.9333 7.73333 47.3333 10.6667 47.3333H0V52.6667H64V47.3333H53.3333ZM10.6667 15.3333H53.3333V42H10.6667V15.3333Z" fill="#AB47BC"/>
<path d="M90.5 22L88.8256 23.6744L95.4519 30.3125H81V32.6875H95.4519L88.8256 39.3256L90.5 41L100 31.5L90.5 22Z" fill="#AB47BC"/>
</svg>
