<svg width="36" height="36" viewBox="0 0 36 36" fill="none" xmlns="http://www.w3.org/2000/svg">
<path fill-rule="evenodd" clip-rule="evenodd" d="M17.9888 0.979313C15.5148 0.903551 13.06 1.43217 10.8394 2.51891L10.8342 2.52143C7.94542 3.89343 5.49523 6.03396 3.75547 8.70569C2.01676 11.3758 1.05544 14.4722 0.977964 17.6519V18.7228C1.14322 23.1911 3.08032 27.413 6.36641 30.4665C9.65463 33.5221 14.0261 35.1591 18.525 35.0196C23.024 34.8801 27.2842 32.9756 30.3745 29.7223C33.4648 26.469 35.1338 22.1317 35.0162 17.6588L35.0159 17.6461C35.0159 12.5149 32.5915 8.42606 29.2386 5.57324C25.8774 2.71335 21.6076 1.11865 17.9888 0.979313ZM10.4101 1.64542C12.7741 0.489011 15.3874 -0.0733176 18.0209 0.00765664L18.0246 0.00777171C21.8751 0.155508 26.3541 1.8393 29.8745 4.83466C33.4025 7.83645 35.992 12.1784 35.994 17.6398C36.1166 22.3674 34.3518 26.9512 31.0855 30.3897C27.8178 33.8299 23.3128 35.8438 18.5555 35.9913C13.7982 36.1388 9.17566 34.4078 5.69858 31.1768C2.2215 27.9457 0.17274 23.4777 0.000320939 18.7493L0 18.7405V17.6345C0.0807632 14.2732 1.09659 10.9999 2.9345 8.1774C4.7719 5.35572 7.35938 3.09487 10.4101 1.64542Z" fill="#AB47BC"/>
<path fill-rule="evenodd" clip-rule="evenodd" d="M25.0842 9.18488C23.659 5.919 21.5293 3.00419 18.846 0.646586L19.071 0.393551C21.7917 2.78401 23.951 5.73945 25.3961 9.05088C27.3002 13.4593 27.8151 18.3386 26.8726 23.0438C25.93 27.749 23.5745 32.0595 20.1168 35.4065L19.8798 35.1645C23.2883 31.8652 25.6103 27.6161 26.5394 22.9779C27.4685 18.3397 26.9612 13.5305 25.0842 9.18488Z" fill="#AB47BC"/>
<path fill-rule="evenodd" clip-rule="evenodd" d="M7.12111 10.9218C7.98602 7.13787 9.97221 3.69856 12.8232 1.04808L13.0553 1.29473C10.2546 3.8984 8.30328 7.27676 7.45306 10.9937C7.01124 13.3092 6.97322 15.683 7.34087 18.0112L7.34158 18.0157C7.68744 20.671 8.43979 23.2581 9.57252 25.6872C10.7174 28.1634 11.7787 30.4486 14.2082 32.4359C15.7572 33.667 17.5399 34.5749 19.4499 35.1055L19.3585 35.4307C17.4041 34.8878 15.5801 33.9588 13.9952 32.699L13.9934 32.6975C11.4963 30.6554 10.4081 28.3029 9.26426 25.8291C8.11731 23.3695 7.35535 20.7499 7.00491 18.0613C6.63144 15.6945 6.6704 13.2815 7.11987 10.9277L7.12111 10.9218Z" fill="#AB47BC"/>
<path fill-rule="evenodd" clip-rule="evenodd" d="M13.3514 19.669C11.1835 14.0354 10.2524 8.00621 10.6205 1.98563L10.9596 2.00612C10.5944 7.97865 11.5181 13.9597 13.6687 19.5483C15.8192 25.1369 19.1469 30.2038 23.4288 34.4091L23.19 34.6494C18.8737 30.4102 15.5193 25.3025 13.3514 19.669Z" fill="#AB47BC"/>
<path fill-rule="evenodd" clip-rule="evenodd" d="M24.185 6.87548C19.2526 4.11108 13.5266 3.08097 7.93242 3.95172L7.87987 3.61808C13.55 2.7355 19.3538 3.77976 24.3531 6.58199L24.3555 6.58333C29.7857 9.74345 33.7975 14.8452 35.5717 20.8465L35.2457 20.9417C33.4962 15.0234 29.54 9.99218 24.185 6.87548Z" fill="#AB47BC"/>
<path fill-rule="evenodd" clip-rule="evenodd" d="M4.08873 13.2433C3.60833 17.3167 3.87659 22.2658 6.56445 26.5363C8.06361 28.8623 10.0332 30.8527 12.3482 32.3811C14.8768 33.9207 17.7525 34.8073 20.7138 34.9603L20.6962 35.2975C17.6773 35.1416 14.7457 34.2374 12.1681 32.6674L12.1628 32.6642C9.80719 31.1096 7.80309 29.0844 6.27786 26.7176L6.2769 26.7161C3.53105 22.354 3.26639 17.3158 3.75132 13.204C4.23648 9.09017 5.47431 5.8829 5.75587 5.16568L6.07234 5.28845C5.79476 5.99554 4.56892 9.17163 4.08873 13.2433Z" fill="#AB47BC"/>
<path fill-rule="evenodd" clip-rule="evenodd" d="M8.57249 19.7798C5.95677 16.7511 3.89738 13.2887 2.48832 9.55084L2.80643 9.43233C4.20158 13.1333 6.24066 16.5615 8.8306 19.5602L8.83133 19.561C12.4474 23.8045 17.0324 27.1265 22.2031 29.2496C24.4793 30.1722 26.8451 30.8587 29.2631 31.2981L29.202 31.6303C26.7608 31.1867 24.3724 30.4937 22.0745 29.5622C16.8537 27.4185 12.2237 24.0642 8.57249 19.7798Z" fill="#AB47BC"/>
<path fill-rule="evenodd" clip-rule="evenodd" d="M19.2933 11.3574C13.533 9.96557 7.52095 9.96557 1.7606 11.3574L1.68037 11.0292C7.49319 9.62475 13.56 9.62469 19.3728 11.029C25.4509 12.4407 31.0484 15.4171 35.6034 19.6594L35.3711 19.9058C30.8594 15.7039 25.3151 12.7559 19.2948 11.3577L19.2933 11.3574Z" fill="#AB47BC"/>
<path fill-rule="evenodd" clip-rule="evenodd" d="M29.769 5.54559C28.5372 5.12469 18.4128 1.66522 9.8691 7.27918L9.86718 7.28044C8.82513 7.94513 3.42541 11.5092 1.90355 18.1967C1.43754 20.2129 1.37576 22.3011 1.72193 24.341L1.38695 24.3972C1.03337 22.3137 1.09632 20.1812 1.57227 18.1219C3.12527 11.2981 8.62563 7.67119 9.68274 6.99682C18.3688 1.29006 28.6338 4.80029 29.876 5.22505C29.894 5.23123 29.9102 5.23675 29.9244 5.24159L29.8145 5.56111C29.801 5.55652 29.7858 5.55134 29.769 5.54559Z" fill="#AB47BC"/>
<path fill-rule="evenodd" clip-rule="evenodd" d="M22.0453 3.26382C19.1857 2.58231 16.215 2.49839 13.3211 3.0174C10.4267 3.53649 7.67238 4.64739 5.23236 6.27972L5.04269 5.99955C7.52173 4.34111 10.3201 3.21245 13.2607 2.68506C16.2014 2.15767 19.2202 2.24304 22.1259 2.93575L22.1286 2.9364C24.8627 3.63557 27.4215 4.88976 29.6442 6.62C31.8668 8.35025 33.7052 10.5191 35.0435 12.9901L34.7444 13.1502C33.4283 10.7202 31.6205 8.58739 29.4347 6.88588C27.2493 5.18465 24.7335 3.95144 22.0453 3.26382Z" fill="#AB47BC"/>
<path fill-rule="evenodd" clip-rule="evenodd" d="M26.8102 23.7649C30.2637 18.5325 31.5446 12.1741 30.3846 6.02318L30.7185 5.96096C31.8947 12.1976 30.5959 18.6448 27.0943 23.9501C23.5926 29.2554 18.1604 33.0068 11.937 34.4172L11.8615 34.0879C17.9993 32.6969 23.3568 28.9972 26.8102 23.7649Z" fill="#AB47BC"/>
<path fill-rule="evenodd" clip-rule="evenodd" d="M31.4147 6.71305C31.7582 7.49228 35.6456 16.6072 30.101 25.3175C24.1801 34.6456 13.0635 34.6455 12.4851 34.6455L12.4843 34.3078C13.0507 34.3078 23.9953 34.3039 29.8137 25.1373C35.2595 16.5823 31.4415 7.61525 31.1035 6.84859L31.4147 6.71305Z" fill="#AB47BC"/>
<path fill-rule="evenodd" clip-rule="evenodd" d="M21.0984 16.5208C18.1644 11.1955 14.1867 6.5086 9.40008 2.73706L9.6111 2.47241C14.4333 6.27199 18.4406 10.9937 21.3964 16.3586C24.262 21.5655 26.0679 27.2825 26.7107 33.1832L26.3729 33.2196C25.7349 27.363 23.9426 21.6887 21.0984 16.5208Z" fill="#AB47BC"/>
<path fill-rule="evenodd" clip-rule="evenodd" d="M35.4495 21.338C35.1004 22.3091 31.9616 31.0396 22.0481 33.4693C16.8009 34.7536 12.2756 33.5472 9.02629 31.9819C5.77867 30.4175 3.79736 28.4909 3.62649 28.3164L3.86989 28.0808C4.02228 28.2364 5.97236 30.1355 9.17444 31.678C12.3748 33.2197 16.8176 34.4017 21.9668 33.1414C31.7 30.7559 34.7848 22.1825 35.1311 21.2201C35.1408 21.1931 35.1484 21.1721 35.1539 21.1574L35.4724 21.2748C35.4669 21.2895 35.4593 21.3107 35.4495 21.338Z" fill="#AB47BC"/>
<path fill-rule="evenodd" clip-rule="evenodd" d="M7.05454 28.4611C4.609 26.7948 2.52164 24.6612 0.91425 22.1846L1.19971 22.0015C2.78264 24.4404 4.83826 26.5416 7.2466 28.1825C9.65443 29.8231 12.3668 30.9708 15.2254 31.5588C18.203 32.1012 21.2606 32.0348 24.2116 31.3637C27.1633 30.6924 29.9462 29.4301 32.3907 27.6539L32.5912 27.9266C30.1094 29.7298 27.284 31.0113 24.2874 31.6929C21.2907 32.3744 18.1859 32.4417 15.1622 31.8906L15.1584 31.8899C12.255 31.293 9.50009 30.1274 7.05454 28.4611Z" fill="#AB47BC"/>
<path fill-rule="evenodd" clip-rule="evenodd" d="M33.0342 9.3209C27.6102 6.58283 21.393 5.81889 15.4616 7.16176C9.53026 8.50462 4.2589 11.8694 0.562558 16.6723L0.292749 16.4671C4.03732 11.6016 9.37744 8.19287 15.3862 6.83248C21.395 5.4721 27.6933 6.24601 33.188 9.01979L33.0342 9.3209Z" fill="#AB47BC"/>
</svg>
