<svg width="24" height="24" viewBox="0 0 24 24" fill="none" xmlns="http://www.w3.org/2000/svg">
<path d="M0.699219 8.00018H23.3043C21.6542 3.34243 17.2236 -0.000244141 12.0017 -0.000244141C6.77879 -0.000244141 2.34824 3.34243 0.699219 8.00018Z" fill="white"/>
<path d="M0 12C0 13.4042 0.254092 14.7473 0.696942 16.0002H23.302C23.7459 14.7473 24 13.4053 24 12C24 10.5957 23.7459 9.25261 23.302 7.99976H0.696942C0.254092 9.25261 0 10.5957 0 12Z" fill="#002B90"/>
<path d="M23.3004 15.9998H0.695312C2.34433 20.6575 6.77493 24.0002 11.9979 24.0002C17.2208 24.0002 21.6514 20.6575 23.3004 15.9998Z" fill="#E30613"/>
</svg>
