<svg width="24" height="24" viewBox="0 0 24 24" fill="none" xmlns="http://www.w3.org/2000/svg">
<path d="M11.9953 24.0001C14.3212 24.0001 16.4843 23.3273 18.3236 22.1809H5.66797C7.5063 23.3273 9.66936 24.0001 11.9953 24.0001Z" fill="#E30613"/>
<path d="M5.66876 22.1806H18.3244C19.1637 21.6583 19.9355 21.0394 20.6192 20.3323H3.375C4.05867 21.0394 4.83052 21.6583 5.66876 22.1806Z" fill="white"/>
<path d="M3.37399 20.3319H20.6182C21.1649 19.7671 21.6536 19.1472 22.082 18.4836H1.91016C2.33758 19.1472 2.82726 19.7671 3.37399 20.3319Z" fill="#E30613"/>
<path d="M1.90927 18.4843H22.0811C22.4577 17.8997 22.7928 17.285 23.0646 16.636H0.925781C1.19759 17.285 1.53268 17.8997 1.90927 18.4843Z" fill="white"/>
<path d="M0.928312 16.6356H23.0672C23.3162 16.0438 23.507 15.4228 23.6595 14.7874H0.335938C0.48844 15.4228 0.679328 16.0438 0.928312 16.6356Z" fill="#E30613"/>
<path d="M0.0429688 12.9387C0.0927656 13.57 0.193402 14.1868 0.336568 14.787H23.6602C23.8033 14.1868 23.904 13.57 23.9538 12.9387H11.9984H0.0429688Z" fill="white"/>
<path d="M11.9971 12.9403H23.9525C23.9774 12.6247 24.0002 12.309 24.0002 11.9871C24.0002 11.6849 23.9774 11.389 23.9546 11.092H11.9961V12.9403H11.9971Z" fill="#E30613"/>
<path d="M11.9961 11.0907H23.9546C23.9079 10.4594 23.8135 9.8426 23.6735 9.24243H11.9961V11.0907Z" fill="white"/>
<path d="M11.9961 9.24207H23.6734C23.5251 8.60556 23.3332 7.9867 23.0883 7.3938H11.9971V9.24207H11.9961Z" fill="#E30613"/>
<path d="M11.9961 7.39539H23.0873C22.8197 6.74746 22.4908 6.13171 22.1183 5.54712H11.9961V7.39539Z" fill="white"/>
<path d="M11.9961 5.54676H22.1183C21.6961 4.88325 21.2127 4.26439 20.6722 3.69849H11.9961V5.54676Z" fill="#E30613"/>
<path d="M11.9961 3.69715H20.6722C20.0009 2.99315 19.2457 2.37325 18.4209 1.84888H11.9961V3.69715Z" fill="white"/>
<path d="M11.9961 1.85047H18.4209C16.7175 0.766428 14.7246 0.106033 12.5812 0.00219727H11.9961V1.85047Z" fill="#E30613"/>
<path d="M11.9969 11.092H10.6482L10.7862 11.4555H11.3018L10.9076 11.7888L11.031 12.2903L10.5922 12.0183L10.1534 12.2903L10.2768 11.7888L9.8826 11.4555H10.3972L10.5351 11.092H9.4832C9.46141 11.092 8.63457 11.092 8.63457 11.092C8.61278 11.092 7.56082 11.092 7.56082 11.092L7.69881 11.4555H8.21336L7.81915 11.7888L7.94156 12.2903L7.50272 12.0183L7.0639 12.2903L7.18631 11.7888L6.79208 11.4555H7.30665L7.44463 11.092H6.39267C6.37089 11.092 5.54404 11.092 5.54404 11.092C5.52226 11.092 4.47031 11.092 4.47031 11.092L4.60829 11.4555H5.12286L4.72863 11.7888L4.85208 12.2903L4.41324 12.0183L3.97441 12.2903L4.09786 11.7888L3.70363 11.4555H4.2182L4.35619 11.092H3.30423C3.28244 11.092 2.45561 11.092 2.45561 11.092C2.43383 11.092 1.38186 11.092 1.38186 11.092L1.51984 11.4555H2.03545L1.64122 11.7888L1.76468 12.2903L1.32584 12.0183L0.887002 12.2903L1.01046 11.7888L0.61623 11.4555H1.1308L1.26877 11.092H0.216823C0.195037 11.092 0.0446089 11.092 0.0446089 11.092C0.0228228 11.389 0 11.6849 0 11.9871C0 12.309 0.022829 12.6257 0.0477274 12.9403H12.0031V11.092H11.9969Z" fill="#002B90"/>
<path d="M8.63281 11.0907H9.46069L9.04675 10.8342L8.63281 11.0907Z" fill="#002B90"/>
<path d="M5.54297 11.0907H6.36979L5.9569 10.8342L5.54297 11.0907Z" fill="#002B90"/>
<path d="M11.0304 9.73681L10.5915 9.46476L10.1527 9.73681L10.2741 9.24152H7.81951L7.9409 9.73681L7.50206 9.46476L7.06322 9.73681L7.1846 9.24152H4.73004L4.85142 9.73681L4.41258 9.46476L3.97374 9.73681L4.09513 9.24152H1.64056L1.76195 9.73681L1.32311 9.46476L0.884268 9.73681L1.00565 9.24152H0.321987C0.243142 9.57898 0.181927 9.92164 0.131093 10.2695H0.487964L0.09375 10.6028L0.213045 11.0888H1.26501L1.32311 10.9361L1.3812 11.0888H2.43315L2.55246 10.6028L2.15823 10.2695H2.6728L2.86785 9.75343L3.06289 10.2695H3.57746L3.18323 10.6028L3.30252 11.0888H4.35449L4.41258 10.9361L4.47068 11.0888H5.52265L5.64194 10.6028L5.24771 10.2695H5.76332L5.95837 9.75343L6.15339 10.2695H6.66901L6.27478 10.6028L6.39409 11.0888H7.44604L7.50413 10.9361L7.56223 11.0888H8.6142L8.73349 10.6028L8.33928 10.2695H8.85385L9.04887 9.75343L9.24391 10.2695H9.75848L9.36425 10.6028L9.48356 11.0888H10.5355L10.5936 10.9361L10.6517 11.0888H12.0004V9.24048H10.9111L11.0304 9.73681Z" fill="#002B90"/>
<path d="M0.0390625 11.0916H0.190523L0.0442389 11.0012C0.0411266 11.0303 0.0411374 11.0614 0.0390625 11.0916Z" fill="#002B90"/>
<path d="M2.44922 11.0907H3.27708L2.86314 10.8342L2.44922 11.0907Z" fill="#002B90"/>
<path d="M9.24305 7.71777H9.75762L9.36339 8.05212L9.48685 8.55364L9.04801 8.28159L8.60918 8.55364L8.73263 8.05212L8.33841 7.71777H8.85298L8.9754 7.3938H6.03116L6.15357 7.71777H6.66917L6.27495 8.05212L6.39737 8.55364L5.95853 8.28159L5.51969 8.55364L5.64315 8.05212L5.24892 7.71777H5.76453L5.88695 7.3938H2.94271L3.06512 7.71777H3.57969L3.18546 8.05212L3.30892 8.55364L2.87008 8.28159L2.43126 8.55364L2.55367 8.05212L2.15944 7.71777H2.67401L2.79642 7.3938H0.909327C0.664493 7.9867 0.472572 8.60556 0.324219 9.24207H1.00788C1.00892 9.23584 0.614699 8.90149 0.614699 8.90149H1.12927L1.32431 8.38543L1.51935 8.90149H2.03495L1.64072 9.23584C1.6428 9.24207 4.09738 9.24207 4.09738 9.24207C4.09842 9.23584 3.70418 8.90149 3.70418 8.90149H4.21875L4.41379 8.38543L4.60883 8.90149H5.1234L4.72917 9.23584C4.73021 9.24207 7.18581 9.24207 7.18581 9.24207C7.18685 9.23584 6.79263 8.90149 6.79263 8.90149H7.3072L7.50224 8.38543L7.69727 8.90149H8.21183L7.81762 9.23584C7.8197 9.24207 10.2743 9.24207 10.2743 9.24207C10.2753 9.23584 9.88108 8.90149 9.88108 8.90149H10.3956L10.5907 8.38543L10.7857 8.90149H11.3013L10.9071 9.23584C10.9081 9.24207 11.9974 9.24207 11.9974 9.24207V7.3938H9.11856L9.24305 7.71777Z" fill="#002B90"/>
<path d="M9.48455 6.00296L9.04571 5.73091L8.60688 6.00296L8.71891 5.54712H6.28406L6.3961 6.00296L5.95728 5.73091L5.51844 6.00296L5.63048 5.54712H3.19563L3.30767 6.00296L2.86883 5.73091L2.42999 6.00296L2.54204 5.54712H1.87808C1.73699 5.76829 1.5959 5.98946 1.46933 6.21997L1.51914 6.35081H2.03473L1.6405 6.68412L1.76396 7.18668L1.32512 6.91463L1.04918 7.08596C1.00249 7.18876 0.953728 7.29052 0.910156 7.39539H2.79725L2.86988 7.2033L2.94249 7.39539H5.88672L5.95935 7.2033L6.03196 7.39539H8.9762L9.04883 7.2033L9.12144 7.39539H12.0003V5.54712H9.37562L9.48455 6.00296ZM4.85033 7.18668L4.4115 6.91463L3.97266 7.18668L4.09611 6.68412L3.70188 6.35081H4.21645L4.4115 5.83474L4.60654 6.35081H5.12111L4.72688 6.68412L4.85033 7.18668ZM7.93981 7.18668L7.50097 6.91463L7.06213 7.18668L7.18456 6.68412L6.79033 6.35081H7.3049L7.49994 5.83474L7.69497 6.35081H8.20954L7.81532 6.68412L7.93981 7.18668ZM10.3954 6.35081L10.5904 5.83474L10.7855 6.35081H11.3011L10.9069 6.68412L11.0303 7.18668L10.5915 6.91463L10.1526 7.18668L10.2761 6.68412L9.88188 6.35081H10.3954Z" fill="#002B90"/>
<path d="M10.7866 3.79738H11.3022L10.9079 4.13069L11.0314 4.63325L10.5926 4.36121L10.1537 4.63325L10.2772 4.13069L9.88295 3.79738H10.3975L10.4349 3.6977H7.66077L7.69813 3.79738H8.21268L7.81847 4.13069L7.94088 4.63325L7.50204 4.36121L7.0632 4.63325L7.18563 4.13069L6.7914 3.79738H7.30597L7.34331 3.6977H4.56817L4.60553 3.79738H5.1201L4.72587 4.13069L4.84933 4.63325L4.41049 4.36121L3.97165 4.63325L4.09511 4.13069L3.70088 3.79738H4.21545L4.25279 3.6977H3.32118C2.78068 4.2636 2.29724 4.88246 1.875 5.54597H2.53896C2.55037 5.50028 2.15614 5.16593 2.15614 5.16593H2.67071L2.86575 4.64987L3.06079 5.16593H3.57535L3.18113 5.49924C3.19254 5.54493 5.62741 5.54493 5.62741 5.54493C5.63882 5.49924 5.24459 5.16489 5.24459 5.16489H5.76019L5.95523 4.64883L6.15027 5.16489H6.66587L6.27166 5.49821C6.28307 5.54389 8.71791 5.54389 8.71791 5.54389C8.72932 5.49821 8.33511 5.16385 8.33511 5.16385H8.84967L9.04471 4.64779L9.23975 5.16385H9.75432L9.36009 5.49717C9.3715 5.54285 11.9952 5.54285 11.9952 5.54285V3.69458H10.7461L10.7866 3.79738Z" fill="#002B90"/>
<path d="M3.32031 3.69715H4.25192L4.40961 3.28077L4.5673 3.69715H7.34244L7.50013 3.28077L7.65782 3.69715H10.4319L10.5896 3.28077L10.7473 3.69715H11.9964V1.84888H10.9714L11.0284 2.08043L10.655 1.84888H10.5253L10.1508 2.08043L10.2078 1.84888H7.8819L7.93896 2.08043L7.56444 1.84888H7.43476L7.06026 2.08043L7.11731 1.84888H5.57154C4.74678 2.37325 3.99153 2.99315 3.32031 3.69715ZM8.84984 2.61207L9.04486 2.09601L9.2399 2.61207H9.75447L9.36024 2.94538L9.4837 3.44691L9.04486 3.17486L8.60604 3.44691L8.72948 2.94538L8.33527 2.61207H8.84984ZM5.75932 2.61207L5.95436 2.09601L6.14938 2.61207H6.665L6.27077 2.94538L6.39318 3.44691L5.95436 3.17486L5.51552 3.44691L5.63898 2.94538L5.24475 2.61207H5.75932Z" fill="#002B90"/>
<path d="M7.43359 1.84995H7.56327L7.49895 1.80884L7.43359 1.84995Z" fill="#002B90"/>
<path d="M8.21107 1.24523L7.81684 1.57855L7.88323 1.84852H10.2092L10.2756 1.57855L9.88134 1.24523H10.3959L10.5909 0.729171L10.786 1.24523H11.3016L10.9074 1.57855L10.9738 1.84852H11.9987V0.000244141H11.4136C10.0515 0.0656606 8.74951 0.352247 7.54297 0.835083L7.69755 1.2442L8.21107 1.24523Z" fill="#002B90"/>
<path d="M10.5273 1.84995H10.657L10.5917 1.80884L10.5273 1.84995Z" fill="#002B90"/>
<path d="M7.18638 1.57846L6.79215 1.24515H7.30672L7.44884 0.871338C6.79111 1.14131 6.16659 1.47255 5.57422 1.84947H7.12102L7.18638 1.57846Z" fill="#002B90"/>
<path d="M5.51686 3.4499L5.95673 3.17785L6.39556 3.4499L6.27211 2.94734L6.66633 2.61403L6.15177 2.61299L5.95673 2.09692L5.76066 2.61299L5.24609 2.61403L5.64032 2.94734L5.51686 3.4499Z" fill="white"/>
<path d="M8.60776 3.4499L9.04658 3.17785L9.48543 3.4499L9.36197 2.94734L9.75723 2.61403L9.24163 2.61299L9.04658 2.09692L8.85156 2.61299L8.33594 2.61403L8.73017 2.94734L8.60776 3.4499Z" fill="white"/>
<path d="M7.0625 2.08043L7.43598 1.84888H7.11852L7.0625 2.08043Z" fill="white"/>
<path d="M7.94093 2.08043L7.88387 1.84888H7.56641L7.94093 2.08043Z" fill="white"/>
<path d="M6.78906 1.24432L7.18329 1.57763L7.11688 1.8476H7.43434L7.49867 1.80711L7.56401 1.8476H7.88147L7.81507 1.57763L8.2093 1.24432H7.69474L7.54016 0.835205C7.50903 0.847665 7.47687 0.857011 7.44575 0.869471L7.30363 1.24328L6.78906 1.24432Z" fill="white"/>
<path d="M10.1484 2.08043L10.523 1.84888H10.2055L10.1484 2.08043Z" fill="white"/>
<path d="M11.0258 2.08043L10.9688 1.84888H10.6523L11.0258 2.08043Z" fill="white"/>
<path d="M11.3041 1.2458H10.7885L10.5935 0.729736L10.3984 1.2458H9.88281L10.277 1.58015L10.2117 1.85012H10.5291L10.5935 1.80963L10.6588 1.85012H10.9752L10.9099 1.58015L11.3041 1.2458Z" fill="white"/>
<path d="M2.86461 5.73091L3.30345 6.00296L3.19245 5.54712H2.53783L2.42578 6.00296L2.86461 5.73091Z" fill="white"/>
<path d="M3.18125 5.50001L3.57548 5.1667H3.06091L2.86587 4.65063L2.67082 5.1667H2.15625L2.55048 5.50001C2.53907 5.5457 3.19369 5.5457 3.19369 5.5457L3.18125 5.50001Z" fill="white"/>
<path d="M5.95549 5.73091L6.39433 6.00296L6.28228 5.54712H5.62767L5.51562 6.00296L5.95549 5.73091Z" fill="white"/>
<path d="M6.26924 5.50001L6.66346 5.1667H6.14786L5.95283 4.65063L5.75779 5.1667H5.24219L5.63641 5.50001C5.625 5.5457 6.27961 5.5457 6.27961 5.5457L6.26924 5.50001Z" fill="white"/>
<path d="M9.0482 5.73091L9.48704 6.00296L9.37499 5.54712H8.72038L8.60938 6.00296L9.0482 5.73091Z" fill="white"/>
<path d="M9.36092 5.50001L9.75516 5.1667H9.24058L9.04554 4.65063L8.85051 5.1667H8.33594L8.73015 5.50001C8.71874 5.5457 9.37338 5.5457 9.37338 5.5457L9.36092 5.50001Z" fill="white"/>
<path d="M3.69922 3.79817L4.09345 4.13252L3.96999 4.63405L4.40882 4.362L4.84871 4.63405L4.72525 4.13252L5.11949 3.79817H4.60491L4.56652 3.69849H4.25114L4.2138 3.79817H3.69922Z" fill="white"/>
<path d="M4.41159 3.28052L4.25391 3.6969H4.56928L4.41159 3.28052Z" fill="white"/>
<path d="M6.78906 3.79817L7.18329 4.13252L7.06086 4.63405L7.4997 4.362L7.93853 4.63405L7.81507 4.13252L8.2093 3.79817H7.69474L7.65739 3.69849H7.34202L7.30363 3.79817H6.78906Z" fill="white"/>
<path d="M7.50144 3.28052L7.34375 3.6969H7.65914L7.50144 3.28052Z" fill="white"/>
<path d="M9.88281 3.79817L10.277 4.13252L10.1546 4.63405L10.5935 4.362L11.0323 4.63405L10.9099 4.13252L11.3041 3.79817H10.7885L10.7512 3.69849H10.4358L10.3984 3.79817H9.88281Z" fill="white"/>
<path d="M10.5874 3.28052L10.4297 3.6969H10.745L10.5874 3.28052Z" fill="white"/>
<path d="M2.15234 7.71777L2.54656 8.05108L2.42312 8.55364L2.86194 8.28159L3.30078 8.55364L3.17837 8.05108L3.5726 7.71777H3.05803L2.93457 7.3938H2.78933L2.66691 7.71777H2.15234Z" fill="white"/>
<path d="M2.86558 7.20142L2.79297 7.39455H2.93821L2.86558 7.20142Z" fill="white"/>
<path d="M5.24609 7.71777L5.64032 8.05108L5.51686 8.55364L5.95673 8.28159L6.39556 8.55364L6.27211 8.05108L6.66633 7.71777H6.15177L6.02936 7.3938H5.88307L5.76066 7.71777H5.24609Z" fill="white"/>
<path d="M5.95647 7.20142L5.88281 7.39455H6.0291L5.95647 7.20142Z" fill="white"/>
<path d="M8.33594 7.71777L8.73017 8.05108L8.60776 8.55364L9.04658 8.28159L9.48543 8.55364L9.36197 8.05108L9.75723 7.71777H9.24163L9.11921 7.3938H8.97397L8.85156 7.71777H8.33594Z" fill="white"/>
<path d="M9.04527 7.20142L8.97266 7.39455H9.1179L9.04527 7.20142Z" fill="white"/>
<path d="M1.75984 7.18473L1.63638 6.68216L2.03061 6.34885H1.51501L1.46521 6.21802C1.31166 6.49837 1.17472 6.79015 1.04297 7.08401L1.31892 6.91268L1.75984 7.18473Z" fill="white"/>
<path d="M4.60491 6.34932L4.40882 5.83325L4.2138 6.34932H3.69922L4.09345 6.68367L3.96999 7.18519L4.40882 6.91314L4.84871 7.18519L4.72525 6.68367L5.11949 6.34932H4.60491Z" fill="white"/>
<path d="M7.69474 6.34932L7.4997 5.83325L7.30363 6.34932H6.78906L7.18329 6.68367L7.06086 7.18519L7.4997 6.91314L7.93853 7.18519L7.81507 6.68367L8.2093 6.34932H7.69474Z" fill="white"/>
<path d="M10.1546 7.18519L10.5935 6.91314L11.0323 7.18519L10.9099 6.68367L11.3041 6.34932H10.7885L10.5935 5.83325L10.3984 6.34932H9.88281L10.277 6.68367L10.1546 7.18519Z" fill="white"/>
<path d="M0.485932 10.2698H0.129079C0.0948459 10.5117 0.062679 10.7536 0.0429688 10.9997L0.189246 11.0901C0.211031 11.0901 0.0917385 10.6041 0.0917385 10.6041L0.485932 10.2698Z" fill="white"/>
<path d="M3.57548 10.2702H3.06091L2.86587 9.75415L2.67082 10.2702H2.15625L2.55048 10.6035L2.43117 11.0895C2.45296 11.0895 2.8669 10.833 2.8669 10.833L3.28084 11.0895C3.30262 11.0895 3.18332 10.6035 3.18332 10.6035L3.57548 10.2702Z" fill="white"/>
<path d="M6.66346 10.2702H6.14786L5.95283 9.75415L5.75779 10.2702H5.24219L5.63641 10.6035L5.5171 11.0895C5.53889 11.0895 5.95283 10.833 5.95283 10.833L6.36675 11.0895C6.38854 11.0895 6.26924 10.6035 6.26924 10.6035L6.66346 10.2702Z" fill="white"/>
<path d="M9.75906 10.2702H9.2445L9.04946 9.75415L8.85442 10.2702H8.33984L8.73408 10.6035L8.61477 11.0895C8.63655 11.0895 9.05049 10.833 9.05049 10.833L9.46443 11.0895C9.48622 11.0895 9.36692 10.6035 9.36692 10.6035L9.75906 10.2702Z" fill="white"/>
<path d="M1.31773 9.46568L1.75657 9.73773L1.63519 9.24243H1.00028L0.878906 9.73773L1.31773 9.46568Z" fill="white"/>
<path d="M1.63929 9.23738L2.03351 8.90303H1.51791L1.32287 8.38696L1.12785 8.90303H0.613281L1.00749 9.23738C1.00646 9.24361 1.64137 9.24361 1.64137 9.24361L1.63929 9.23738Z" fill="white"/>
<path d="M4.41148 9.46568L4.85137 9.73773L4.72894 9.24243H4.09403L3.97266 9.73773L4.41148 9.46568Z" fill="white"/>
<path d="M4.72422 9.23738L5.11845 8.90303H4.60388L4.40884 8.38696L4.21379 8.90303H3.69922L4.09345 9.23738C4.09241 9.24361 4.72734 9.24361 4.72734 9.24361L4.72422 9.23738Z" fill="white"/>
<path d="M7.50134 9.46568L7.94018 9.73773L7.81879 9.24243H7.18388L7.0625 9.73773L7.50134 9.46568Z" fill="white"/>
<path d="M7.81794 9.23738L8.21217 8.90303H7.6976L7.50256 8.38696L7.30752 8.90303H6.79297L7.18718 9.23738C7.18614 9.24361 7.82106 9.24361 7.82106 9.24361L7.81794 9.23738Z" fill="white"/>
<path d="M10.5873 9.46568L11.0261 9.73773L10.9047 9.24243H10.2698L10.1484 9.73773L10.5873 9.46568Z" fill="white"/>
<path d="M10.9088 9.23738L11.3031 8.90303H10.7875L10.5924 8.38696L10.3974 8.90303H9.88281L10.277 9.23738C10.276 9.24361 10.9109 9.24361 10.9109 9.24361L10.9088 9.23738Z" fill="white"/>
<path d="M1.12889 11.4555H0.613281L1.00751 11.7898L0.885097 12.2913L1.32392 12.0193L1.76276 12.2913L1.64034 11.7898L2.03456 11.4555H1.51896L1.38202 11.092H1.26582L1.12889 11.4555Z" fill="white"/>
<path d="M1.26172 11.0904H1.3779L1.31981 10.9377L1.26172 11.0904Z" fill="white"/>
<path d="M4.2138 11.4555H3.69922L4.09345 11.7898L3.96999 12.2913L4.40882 12.0193L4.84871 12.2913L4.72525 11.7898L5.11949 11.4555H4.60491L4.46692 11.092H4.35177L4.2138 11.4555Z" fill="white"/>
<path d="M4.35547 11.0904H4.47062L4.41252 10.9377L4.35547 11.0904Z" fill="white"/>
<path d="M7.30363 11.4555H6.78906L7.18329 11.7898L7.06086 12.2913L7.4997 12.0193L7.93853 12.2913L7.81507 11.7898L8.2093 11.4555H7.69474L7.55676 11.092H7.4416L7.30363 11.4555Z" fill="white"/>
<path d="M7.44141 11.0904H7.55658L7.49951 10.9377L7.44141 11.0904Z" fill="white"/>
<path d="M10.3984 11.4555H9.88281L10.277 11.7898L10.1546 12.2913L10.5935 12.0193L11.0323 12.2913L10.9099 11.7898L11.3041 11.4555H10.7885L10.6516 11.092H10.5354L10.3984 11.4555Z" fill="white"/>
<path d="M10.5312 11.0904H10.6474L10.5893 10.9377L10.5312 11.0904Z" fill="white"/>
</svg>
