<svg width="16" height="17" viewBox="0 0 16 17" fill="none" xmlns="http://www.w3.org/2000/svg">
<g clip-path="url(#clip0_9057_5150)">
<path d="M7.8032 0.5064L8 0.5C8.76166 0.499875 9.49485 0.808778 10.0509 1.36405C10.6069 1.91932 10.944 2.67939 10.994 3.49008L11 3.7V5.64667H12.2C12.6774 5.64667 13.1352 5.84895 13.4728 6.20902C13.8104 6.56909 14 7.05745 14 7.56667V14.58C14 15.0892 13.8104 15.5776 13.4728 15.9376C13.1352 16.2977 12.6774 16.5 12.2 16.5H3.8C3.32261 16.5 2.86477 16.2977 2.52721 15.9376C2.18964 15.5776 2 15.0892 2 14.58V7.56667C2 7.05745 2.18964 6.56909 2.52721 6.20902C2.86477 5.84895 3.32261 5.64667 3.8 5.64667H5V3.7C4.99988 2.88756 5.28948 2.10549 5.81005 1.51242C6.33062 0.919354 7.04318 0.559696 7.8032 0.5064ZM12.2 6.92667H3.8C3.64087 6.92667 3.48826 6.9941 3.37574 7.11412C3.26321 7.23414 3.2 7.39693 3.2 7.56667V14.58C3.2 14.7497 3.26321 14.9125 3.37574 15.0325C3.48826 15.1526 3.64087 15.22 3.8 15.22H12.2C12.3591 15.22 12.5117 15.1526 12.6243 15.0325C12.7368 14.9125 12.8 14.7497 12.8 14.58V7.56667C12.8 7.39693 12.7368 7.23414 12.6243 7.11412C12.5117 6.9941 12.3591 6.92667 12.2 6.92667ZM8.1728 1.78896L8 1.78C7.55254 1.78002 7.12113 1.95782 6.7899 2.27871C6.45866 2.59961 6.25136 3.04059 6.2084 3.51568L6.2 3.7V5.64667H9.8V3.7C9.79998 3.22271 9.6333 2.76254 9.33246 2.40922C9.03162 2.05591 8.61819 1.83478 8.1728 1.78896Z" fill="white"/>
<path d="M8.94289 10.2239C8.69284 9.97385 8.3537 9.83337 8.00008 9.83337C7.64646 9.83337 7.30732 9.97385 7.05727 10.2239C6.80722 10.4739 6.66675 10.8131 6.66675 11.1667C6.66675 11.5203 6.80722 11.8595 7.05727 12.1095C7.30732 12.3596 7.64646 12.5 8.00008 12.5C8.3537 12.5 8.69284 12.3596 8.94289 12.1095C9.19294 11.8595 9.33341 11.5203 9.33341 11.1667C9.33341 10.8131 9.19294 10.4739 8.94289 10.2239Z" fill="white"/>
</g>
<defs>
<clipPath id="clip0_9057_5150">
<rect width="16" height="16" fill="white" transform="translate(0 0.5)"/>
</clipPath>
</defs>
</svg>
