<svg width="283" height="140" viewBox="0 0 283 140" fill="none" xmlns="http://www.w3.org/2000/svg">
<path fill-rule="evenodd" clip-rule="evenodd" d="M55.9431 3.04675C48.2494 2.81105 40.6152 4.45563 33.7094 7.8366L33.6933 7.84446C24.7094 12.1129 17.0896 18.7723 11.6791 27.0844C6.27192 35.3914 3.28229 45.0247 3.04136 54.9171V58.2487C3.5553 72.1502 9.57946 85.2849 19.7988 94.7848C30.0249 104.291 43.6196 109.384 57.6108 108.95C71.602 108.516 84.8509 102.591 94.4614 92.4693C104.072 82.3479 109.262 68.8543 108.897 54.9384L108.896 54.8989C108.896 38.9354 101.356 26.2144 90.9288 17.339C80.4758 8.44153 67.1973 3.48025 55.9431 3.04675ZM32.3742 5.11908C39.7261 1.52137 47.853 -0.228099 56.0429 0.0238207L56.0546 0.0241787C68.0292 0.483803 81.9583 5.72226 92.9064 15.0412C103.878 24.3801 111.931 37.8883 111.937 54.8794C112.319 69.5875 106.83 83.8481 96.6726 94.5458C86.5102 105.248 72.5004 111.514 57.7056 111.973C42.9108 112.432 28.5353 107.046 17.722 96.9943C6.90864 86.9423 0.537204 73.0416 0.000998086 58.3311L0 58.3037V54.8628C0.251165 44.4056 3.41027 34.2218 9.12598 25.4408C14.8401 16.6622 22.8869 9.62849 32.3742 5.11908Z" fill="white"/>
<path fill-rule="evenodd" clip-rule="evenodd" d="M78.0092 28.5752C73.5769 18.4147 66.9538 9.34638 58.6091 2.0116L59.3087 1.22438C67.7697 8.66136 74.4851 17.8561 78.979 28.1583C84.9005 41.8733 86.502 57.0535 83.5708 71.6919C80.6395 86.3303 73.3141 99.7407 62.5611 110.153L61.8241 109.401C72.424 99.1362 79.6451 85.9167 82.5346 71.4867C85.4241 57.0569 83.8463 42.0948 78.0092 28.5752Z" fill="white"/>
<path fill-rule="evenodd" clip-rule="evenodd" d="M22.1459 33.979C24.8357 22.2067 31.0125 11.5066 39.8789 3.26068L40.6005 4.02804C31.8907 12.1284 25.8223 22.6388 23.1782 34.2026C21.8042 41.4063 21.6859 48.7914 22.8293 56.0349L22.8315 56.0489C23.9071 64.3097 26.2468 72.3584 29.7695 79.9158C33.3301 87.6194 36.6305 94.729 44.186 100.912C49.0032 104.742 54.5471 107.566 60.4871 109.217L60.2028 110.229C54.1249 108.54 48.4524 105.649 43.5236 101.73L43.5178 101.726C35.7523 95.3722 32.368 88.0534 28.8108 80.3573C25.2439 72.705 22.8743 64.5554 21.7845 56.1909C20.623 48.8274 20.7442 41.3201 22.142 33.9974L22.1459 33.979Z" fill="white"/>
<path fill-rule="evenodd" clip-rule="evenodd" d="M41.5213 61.1924C34.7793 43.6657 31.8837 24.9082 33.0287 6.17751L34.0832 6.24126C32.9474 24.8225 35.8199 43.4302 42.508 60.817C49.1961 78.2038 59.5447 93.9674 72.8608 107.051L72.1183 107.798C58.695 94.6095 48.2632 78.719 41.5213 61.1924Z" fill="white"/>
<path fill-rule="evenodd" clip-rule="evenodd" d="M75.2127 21.3904C59.8736 12.79 42.0662 9.58523 24.669 12.2942L24.5055 11.2562C42.139 8.51045 60.1883 11.7592 75.7354 20.4773L75.7428 20.4815C92.6303 30.313 105.107 46.185 110.624 64.8557L109.61 65.152C104.169 46.7395 91.866 31.0868 75.2127 21.3904Z" fill="white"/>
<path fill-rule="evenodd" clip-rule="evenodd" d="M12.7155 41.2014C11.2215 53.8741 12.0558 69.2714 20.4147 82.5573C25.077 89.7939 31.2023 95.9863 38.4015 100.741C46.2653 105.531 55.2084 108.289 64.4176 108.765L64.3628 109.815C54.9744 109.329 45.8574 106.516 37.8414 101.632L37.825 101.622C30.4993 96.7853 24.2668 90.4847 19.5235 83.1214L19.5205 83.1167C10.9812 69.5457 10.1581 53.8715 11.6662 41.079C13.175 28.2805 17.0245 18.3023 17.9001 16.071L18.8843 16.4529C18.0211 18.6528 14.2088 28.534 12.7155 41.2014Z" fill="white"/>
<path fill-rule="evenodd" clip-rule="evenodd" d="M26.6595 61.537C18.5249 52.1146 12.1204 41.3428 7.7384 29.7137L8.72769 29.345C13.0664 40.8593 19.4078 51.5247 27.4622 60.854L27.4645 60.8566C38.7102 74.0585 52.9688 84.3934 69.0492 90.9989C76.1278 93.8692 83.4852 96.0048 91.005 97.3718L90.8151 98.4053C83.2233 97.0252 75.7955 94.8692 68.6492 91.9713C52.4131 85.3021 38.0143 74.8665 26.6595 61.537Z" fill="white"/>
<path fill-rule="evenodd" clip-rule="evenodd" d="M60.0001 35.334C42.0861 31.004 23.3893 31.004 5.47527 35.334L5.22575 34.3131C23.303 29.9437 42.1701 29.9435 60.2474 34.3125C79.1495 38.7045 96.5571 47.9644 110.723 61.1625L110 61.9292C95.9695 48.8566 78.7272 39.6849 60.0047 35.3351L60.0001 35.334Z" fill="white"/>
<path fill-rule="evenodd" clip-rule="evenodd" d="M92.5782 17.2529C88.7475 15.9435 57.2617 5.18067 30.6918 22.6463L30.6858 22.6503C27.4452 24.7182 10.6527 35.8063 5.91983 56.6119C4.47058 62.8844 4.27846 69.3813 5.35503 75.7276L4.31327 75.9024C3.21366 69.4203 3.40943 62.7861 4.88959 56.3792C9.71926 35.1496 26.8248 23.8659 30.1122 21.7679C57.1249 4.01352 89.0481 14.9342 92.911 16.2557C92.9672 16.2749 93.0175 16.2921 93.0617 16.3072L92.7197 17.3012C92.6778 17.287 92.6306 17.2708 92.5782 17.2529Z" fill="white"/>
<path fill-rule="evenodd" clip-rule="evenodd" d="M68.5585 10.1541C59.6655 8.03386 50.4268 7.77278 41.427 9.38747C32.4259 11.0024 23.8603 14.4585 16.2721 19.5369L15.6822 18.6653C23.3917 13.5057 32.0944 9.9943 41.2395 8.35353C50.3846 6.71275 59.7726 6.97835 68.8091 9.13344L68.8176 9.13545C77.3202 11.3107 85.2778 15.2126 92.1901 20.5956C99.1023 25.9785 104.819 32.7261 108.982 40.4136L108.051 40.9116C103.958 33.3518 98.3362 26.7163 91.5387 21.4227C84.7423 16.13 76.9184 12.2934 68.5585 10.1541Z" fill="white"/>
<path fill-rule="evenodd" clip-rule="evenodd" d="M83.3769 73.9351C94.1167 57.6567 98.1003 37.8749 94.4929 18.7388L95.5313 18.5452C99.189 37.9482 95.1499 58.006 84.2602 74.5115C73.3705 91.0169 56.4768 102.688 37.1227 107.076L36.8879 106.051C55.9758 101.724 72.637 90.2135 83.3769 73.9351Z" fill="white"/>
<path fill-rule="evenodd" clip-rule="evenodd" d="M97.6962 20.885C98.7644 23.3093 110.854 51.6667 93.6109 78.7656C75.1975 107.786 40.6259 107.786 38.8272 107.786L38.8249 106.735C40.5861 106.735 74.6228 106.723 92.7174 78.2049C109.653 51.5893 97.7796 23.6919 96.7286 21.3067L97.6962 20.885Z" fill="white"/>
<path fill-rule="evenodd" clip-rule="evenodd" d="M65.6138 51.398C56.4893 34.8304 44.119 20.249 29.2332 8.51531L29.8895 7.69194C44.8859 19.5129 57.3482 34.2027 66.5405 50.8935C75.4522 67.0927 81.0683 84.879 83.0673 103.237L82.017 103.35C80.0329 85.1293 74.4589 67.4761 65.6138 51.398Z" fill="white"/>
<path fill-rule="evenodd" clip-rule="evenodd" d="M110.244 66.385C109.158 69.4059 99.3971 96.5678 68.5672 104.127C52.2489 108.122 38.1759 104.369 28.0708 99.4994C17.971 94.6321 11.8094 88.6383 11.278 88.0956L12.0349 87.3626C12.5088 87.8466 18.5734 93.7549 28.5315 98.5539C38.4842 103.35 52.3009 107.028 68.3144 103.106C98.5834 95.6851 108.177 69.0123 109.254 66.0182C109.284 65.9341 109.308 65.8687 109.325 65.8229L110.315 66.1883C110.298 66.2341 110.275 66.3 110.244 66.385Z" fill="white"/>
<path fill-rule="evenodd" clip-rule="evenodd" d="M21.9389 88.5456C14.3335 83.3615 7.84202 76.7236 2.84322 69.0187L3.73095 68.4491C8.65371 76.0368 15.0465 82.5738 22.5361 87.679C30.0242 92.783 38.4594 96.3537 47.3492 98.1828C56.6094 99.8704 66.1182 99.6639 75.2955 97.5758C84.4748 95.4873 93.1294 91.5602 100.732 86.0344L101.355 86.8826C93.6369 92.4927 84.8503 96.4796 75.5311 98.6C66.2119 100.72 56.556 100.93 47.1528 99.2151L47.141 99.213C38.1117 97.356 29.5442 93.7296 21.9389 88.5456Z" fill="white"/>
<path fill-rule="evenodd" clip-rule="evenodd" d="M102.733 28.9983C85.8648 20.4799 66.53 18.1032 48.084 22.281C29.6381 26.4588 13.2447 36.9271 1.74949 51.8695L0.910417 51.2311C12.5556 36.0938 29.1628 25.4889 47.8494 21.2566C66.5361 17.0243 86.123 19.432 103.211 28.0616L102.733 28.9983Z" fill="white"/>
<path d="M139.777 45.2515C139.51 45.2733 139.243 45.2159 139.008 45.0861C138.773 44.9564 138.582 44.7599 138.456 44.5212C138.347 44.3026 138.29 44.0613 138.29 43.8164C138.29 43.5714 138.347 43.3298 138.456 43.1113L153.409 7.25538C153.506 6.94804 153.7 6.6809 153.96 6.49464C154.221 6.30838 154.535 6.21306 154.854 6.22292C155.168 6.22246 155.475 6.32193 155.73 6.50724C155.985 6.69255 156.175 6.95437 156.275 7.25538L171.228 43.1113C171.36 43.3267 171.43 43.575 171.43 43.8287C171.43 44.0823 171.36 44.331 171.228 44.5464C171.096 44.7723 170.906 44.9575 170.677 45.0818C170.449 45.2061 170.191 45.2648 169.932 45.2515C169.641 45.2612 169.355 45.1823 169.109 45.025C168.871 44.84 168.683 44.5975 168.561 44.3198L154.007 9.26957H155.577L141.098 44.3198C140.992 44.6071 140.801 44.8538 140.549 45.025C140.315 45.1659 140.049 45.2439 139.777 45.2515ZM166.343 35.4565H143.441L144.637 32.7624H165.197L166.343 35.4565Z" fill="white"/>
<path d="M209.632 45.2532C209.437 45.2627 209.243 45.2294 209.063 45.1555C208.882 45.0816 208.719 44.9687 208.586 44.825C208.445 44.6836 208.335 44.5146 208.263 44.3283C208.19 44.1421 208.156 43.9427 208.162 43.7425V7.71016C208.157 7.30706 208.309 6.91836 208.586 6.62761C208.724 6.49229 208.888 6.38673 209.068 6.31747C209.248 6.24821 209.44 6.21662 209.632 6.22465C209.829 6.21312 210.026 6.24289 210.21 6.31225C210.395 6.3816 210.563 6.48911 210.704 6.62761C210.981 6.91836 211.133 7.30706 211.128 7.71016V43.6669C211.134 43.867 211.1 44.0664 211.027 44.2527C210.954 44.439 210.845 44.6083 210.704 44.7497C210.575 44.9105 210.412 45.0393 210.226 45.1266C210.04 45.2138 209.837 45.2572 209.632 45.2532Z" fill="white"/>
<path d="M253.594 45.2528C253.396 45.2599 253.198 45.2254 253.014 45.152C252.829 45.0786 252.662 44.9676 252.521 44.8259C252.381 44.6842 252.271 44.5147 252.198 44.3283C252.126 44.1418 252.092 43.9424 252.098 43.7421V7.70978C252.091 7.51058 252.125 7.31222 252.198 7.12701C252.271 6.94179 252.381 6.77375 252.522 6.63399C252.663 6.49423 252.831 6.38581 253.015 6.31525C253.2 6.24468 253.397 6.21364 253.594 6.22427C253.804 6.2168 254.013 6.25567 254.207 6.3383C254.4 6.42093 254.574 6.54518 254.715 6.70253L279.861 39.7635V7.70978C279.853 7.50942 279.886 7.3095 279.959 7.12301C280.032 6.93653 280.143 6.76778 280.285 6.62723C280.423 6.49191 280.587 6.38635 280.767 6.31709C280.947 6.24783 281.139 6.21624 281.331 6.22427C281.719 6.21647 282.094 6.36099 282.379 6.62723C282.523 6.76653 282.638 6.9345 282.715 7.12086C282.792 7.30723 282.83 7.50778 282.827 7.70978V43.6665C282.835 43.8691 282.799 44.0711 282.722 44.2582C282.644 44.4453 282.527 44.6131 282.379 44.7494C282.242 44.8892 282.079 44.9991 281.899 45.0727C281.719 45.1463 281.526 45.1819 281.331 45.1772C281.117 45.1871 280.903 45.1441 280.708 45.0515C280.535 44.981 280.381 44.8686 280.26 44.7241L255.064 11.638V43.6665C255.071 43.8667 255.036 44.0661 254.964 44.2523C254.891 44.4386 254.781 44.6079 254.641 44.7494C254.514 44.9068 254.355 45.0335 254.174 45.1207C253.993 45.2078 253.795 45.253 253.594 45.2528Z" fill="white"/>
<path d="M150.134 105.775C148.196 105.804 146.267 105.506 144.426 104.894C142.791 104.358 141.275 103.502 139.965 102.376C138.72 101.33 137.702 100.036 136.975 98.574C136.883 98.395 136.835 98.1965 136.835 97.9949C136.835 97.7934 136.883 97.5948 136.975 97.4158C137.064 97.2292 137.193 97.0647 137.352 96.9342C137.512 96.8036 137.697 96.71 137.897 96.6603C138.07 96.5855 138.257 96.5469 138.445 96.5469C138.634 96.5469 138.82 96.5855 138.994 96.6603C139.354 96.831 139.65 97.1134 139.841 97.4662C140.437 98.5412 141.232 99.4901 142.184 100.261C143.206 101.095 144.384 101.712 145.648 102.074C147.111 102.515 148.632 102.728 150.158 102.704C151.869 102.757 153.571 102.43 155.143 101.747C156.456 101.164 157.561 100.189 158.308 98.9518C159.089 97.5929 159.477 96.0402 159.429 94.4697C159.439 93.4231 159.234 92.3859 158.827 91.4237C158.419 90.4614 157.818 89.595 157.062 88.8799C155.05 87.1712 152.555 86.1488 149.934 85.9589C146.748 85.658 143.726 84.3947 141.261 82.3332C140.273 81.4904 139.481 80.4369 138.942 79.2484C138.403 78.06 138.132 76.7662 138.146 75.4592C138.132 73.6741 138.635 71.9239 139.592 70.4232C140.619 68.9161 142.043 67.7298 143.704 66.9988C145.633 66.1391 147.726 65.7176 149.834 65.7647C151.452 65.7448 153.059 66.0356 154.57 66.6211C155.951 67.1463 157.239 67.8946 158.383 68.8369C159.365 69.6478 160.207 70.6179 160.875 71.7074C160.988 71.8797 161.062 72.0749 161.092 72.2794C161.122 72.484 161.107 72.6927 161.049 72.8908C160.999 73.0943 160.897 73.2807 160.753 73.4312C160.608 73.5816 160.427 73.6905 160.227 73.7468C159.883 73.8856 159.499 73.8856 159.155 73.7468C158.787 73.6459 158.468 73.4131 158.258 73.0921C157.748 72.3383 157.154 71.6457 156.489 71.0275C155.676 70.3246 154.748 69.7707 153.747 69.3908C152.486 68.9265 151.151 68.7045 149.809 68.7361C147.528 68.6105 145.271 69.2671 143.405 70.5994C142.634 71.223 142.021 72.0235 141.618 72.9344C141.215 73.8454 141.033 74.8403 141.087 75.8366C141.076 77.0019 141.415 78.1433 142.059 79.1101C142.837 80.2035 143.885 81.0717 145.099 81.6281C146.779 82.4015 148.557 82.9353 150.382 83.2144C153.779 83.5567 156.99 84.9454 159.579 87.1927C160.506 88.163 161.231 89.3117 161.71 90.5704C162.19 91.8291 162.414 93.1721 162.37 94.5201C162.388 96.1241 162.092 97.7159 161.498 99.2035C160.952 100.567 160.099 101.783 159.006 102.754C157.891 103.752 156.584 104.506 155.168 104.97C153.548 105.527 151.845 105.8 150.134 105.775Z" fill="white"/>
<path d="M208.966 105.271C208.771 105.281 208.577 105.248 208.397 105.174C208.216 105.1 208.053 104.987 207.92 104.843C207.781 104.706 207.673 104.541 207.6 104.359C207.527 104.177 207.492 103.982 207.496 103.786V90.6671L193.839 68.5847C193.629 68.2564 193.532 67.8665 193.565 67.4766C193.606 67.1384 193.765 66.8261 194.013 66.5954C194.274 66.3627 194.612 66.2369 194.961 66.2429C195.194 66.2334 195.426 66.2853 195.634 66.3938C195.835 66.4997 196.012 66.6453 196.157 66.822L210.063 89.7354H208.02L221.726 67.0737C221.884 66.7686 222.115 66.5089 222.399 66.3185C222.625 66.1815 222.884 66.1115 223.147 66.1168C223.32 66.1086 223.493 66.1356 223.656 66.1961C223.818 66.2567 223.967 66.3496 224.094 66.4694C224.331 66.7152 224.481 67.0343 224.518 67.3758C224.559 67.7584 224.462 68.1433 224.243 68.4587L210.586 90.5414V103.685C210.596 103.882 210.563 104.078 210.49 104.261C210.417 104.443 210.305 104.608 210.163 104.743C210.024 104.926 209.842 105.071 209.632 105.164C209.423 105.256 209.194 105.293 208.966 105.271Z" fill="white"/>
<path d="M270.882 105.775C268.944 105.808 267.015 105.51 265.175 104.894C263.529 104.363 262.005 103.508 260.689 102.376C259.451 101.323 258.434 100.031 257.699 98.574C257.613 98.3934 257.568 98.1955 257.568 97.995C257.568 97.7944 257.613 97.5965 257.699 97.4159C257.793 97.2285 257.927 97.064 258.091 96.9336C258.254 96.8032 258.444 96.7099 258.646 96.6604C258.815 96.5862 258.997 96.5482 259.181 96.5482C259.366 96.5482 259.548 96.5862 259.717 96.6604C260.088 96.8157 260.389 97.1024 260.565 97.4663C261.823 99.716 263.91 101.372 266.371 102.074C267.842 102.518 269.372 102.73 270.907 102.704C272.576 102.74 274.233 102.413 275.767 101.747C277.085 101.172 278.191 100.194 278.932 98.9518C279.713 97.593 280.101 96.0402 280.053 94.4697C280.076 93.4236 279.879 92.3848 279.475 91.4212C279.071 90.4577 278.47 89.5915 277.711 88.8799C275.692 87.1664 273.188 86.1436 270.558 85.959C267.375 85.6475 264.356 84.3854 261.885 82.3333C260.897 81.4904 260.105 80.4369 259.566 79.2485C259.027 78.0601 258.756 76.7662 258.77 75.4592C258.753 73.6702 259.266 71.9167 260.241 70.4233C261.256 68.9048 262.683 67.7155 264.353 66.9989C266.273 66.1389 268.358 65.7173 270.459 65.7648C272.085 65.7454 273.699 66.036 275.219 66.6211C276.595 67.1405 277.876 67.8895 279.007 68.837C280.002 69.6343 280.846 70.6068 281.499 71.7075C281.616 71.8778 281.695 72.0719 281.729 72.2764C281.764 72.481 281.753 72.6909 281.698 72.8909C281.64 73.0901 281.534 73.272 281.391 73.4211C281.248 73.5702 281.071 73.6821 280.876 73.7469C280.523 73.8847 280.132 73.8847 279.779 73.7469C279.418 73.6328 279.103 73.403 278.882 73.0922C278.379 72.3325 277.785 71.6391 277.113 71.0276C276.313 70.3193 275.393 69.7646 274.396 69.3908C273.126 68.9286 271.783 68.7067 270.434 68.7361C268.159 68.6022 265.907 69.2598 264.054 70.5994C263.275 71.2176 262.656 72.0166 262.248 72.9284C261.84 73.8401 261.656 74.8377 261.711 75.8367C261.7 77.002 262.039 78.1434 262.683 79.1102C263.468 80.1972 264.514 81.0639 265.723 81.6282C267.413 82.398 269.199 82.9317 271.032 83.2145C274.421 83.5553 277.624 84.9446 280.203 87.1928C281.13 88.1631 281.855 89.3118 282.334 90.5705C282.814 91.8291 283.038 93.1722 282.994 94.5202C283.021 96.1225 282.733 97.7142 282.147 99.2035C281.599 100.566 280.746 101.781 279.655 102.754C278.544 103.757 277.236 104.512 275.817 104.97C274.229 105.52 272.56 105.792 270.882 105.775Z" fill="white"/>
<path d="M1.36903 138.259H0L3.95965 127.7H5.30761L9.26725 138.259H7.89823L4.67575 129.37H4.5915L1.36903 138.259ZM1.87451 134.134H7.39274V135.269H1.87451V134.134Z" fill="white"/>
<path d="M11.9849 127.7H13.5435L17.2082 136.465H17.3346L20.9994 127.7H22.558V138.259H21.3364V130.237H21.2311L17.8612 138.259H16.6817L13.3118 130.237H13.2065V138.259H11.9849V127.7Z" fill="white"/>
<path d="M26.6565 138.259H25.2874L29.2471 127.7H30.595L34.5547 138.259H33.1857L29.9632 129.37H29.8789L26.6565 138.259ZM27.162 134.134H32.6802V135.269H27.162V134.134Z" fill="white"/>
<path d="M36.9143 138.259V137.331L42.7274 128.834H36.8511V127.7H44.2859V128.628L38.4728 137.125H44.3491V138.259H36.9143Z" fill="white"/>
<path d="M48.8833 127.7V138.259H47.5775V127.7H48.8833Z" fill="white"/>
<path d="M61.0907 127.7V138.259H59.827L53.9507 129.968H53.8454V138.259H52.5395V127.7H53.8033L59.7006 136.011H59.8059V127.7H61.0907Z" fill="white"/>
<path d="M72.1133 131C71.9975 130.652 71.8448 130.341 71.6552 130.066C71.4691 129.788 71.2462 129.551 70.9865 129.355C70.7302 129.159 70.4389 129.009 70.1124 128.906C69.7859 128.803 69.4279 128.752 69.0383 128.752C68.3994 128.752 67.8184 128.913 67.2954 129.236C66.7723 129.559 66.3564 130.035 66.0475 130.664C65.7385 131.293 65.5841 132.065 65.5841 132.979C65.5841 133.894 65.7403 134.665 66.0527 135.294C66.3651 135.923 66.7881 136.399 67.3217 136.722C67.8553 137.046 68.4555 137.207 69.1225 137.207C69.7403 137.207 70.2844 137.078 70.7548 136.82C71.2287 136.559 71.5973 136.191 71.8605 135.717C72.1273 135.239 72.2607 134.677 72.2607 134.031L72.6609 134.114H69.4174V132.979H73.5244V134.114C73.5244 134.983 73.3349 135.739 72.9558 136.382C72.5802 137.025 72.0606 137.523 71.3972 137.877C70.7372 138.228 69.979 138.403 69.1225 138.403C68.1677 138.403 67.3287 138.183 66.6056 137.743C65.886 137.303 65.3243 136.678 64.9206 135.867C64.5205 135.055 64.3204 134.093 64.3204 132.979C64.3204 132.144 64.4345 131.393 64.6626 130.726C64.8943 130.056 65.2208 129.486 65.642 129.015C66.0633 128.544 66.5617 128.183 67.1374 127.932C67.7131 127.681 68.3467 127.556 69.0383 127.556C69.6069 127.556 70.137 127.64 70.6284 127.808C71.1234 127.973 71.5639 128.209 71.9501 128.515C72.3397 128.817 72.6644 129.18 72.9242 129.602C73.1839 130.022 73.363 130.487 73.4613 131H72.1133Z" fill="white"/>
<path d="M76.7989 138.259V127.7H78.1047V137.125H83.1175V138.259H76.7989Z" fill="white"/>
<path d="M84.7438 127.7H86.2392L89.23 132.629H89.3564L92.3472 127.7H93.8426L89.9461 133.907V138.259H88.6403V133.907L84.7438 127.7Z" fill="white"/>
<path d="M103.083 127.7V138.259H101.778V127.7H103.083Z" fill="white"/>
<path d="M115.291 127.7V138.259H114.027L108.151 129.968H108.045V138.259H106.74V127.7H108.003L113.901 136.011H114.006V127.7H115.291Z" fill="white"/>
<path d="M118.352 128.834V127.7H126.44V128.834H123.049V138.259H121.743V128.834H118.352Z" fill="white"/>
<path d="M129.493 138.259V127.7H136.001V128.834H130.799V132.402H135.664V133.536H130.799V137.125H136.085V138.259H129.493Z" fill="white"/>
<path d="M146.765 131C146.649 130.652 146.496 130.341 146.306 130.066C146.12 129.788 145.897 129.551 145.638 129.355C145.381 129.159 145.09 129.009 144.764 128.906C144.437 128.803 144.079 128.752 143.689 128.752C143.051 128.752 142.47 128.913 141.947 129.236C141.424 129.559 141.008 130.035 140.699 130.664C140.39 131.293 140.235 132.065 140.235 132.979C140.235 133.894 140.392 134.665 140.704 135.294C141.016 135.923 141.439 136.399 141.973 136.722C142.506 137.046 143.107 137.207 143.774 137.207C144.392 137.207 144.936 137.078 145.406 136.82C145.88 136.559 146.248 136.191 146.512 135.717C146.779 135.239 146.912 134.677 146.912 134.031L147.312 134.114H144.069V132.979H148.176V134.114C148.176 134.983 147.986 135.739 147.607 136.382C147.231 137.025 146.712 137.523 146.048 137.877C145.388 138.228 144.63 138.403 143.774 138.403C142.819 138.403 141.98 138.183 141.257 137.743C140.537 137.303 139.976 136.678 139.572 135.867C139.172 135.055 138.972 134.093 138.972 132.979C138.972 132.144 139.086 131.393 139.314 130.726C139.546 130.056 139.872 129.486 140.293 129.015C140.714 128.544 141.213 128.183 141.789 127.932C142.364 127.681 142.998 127.556 143.689 127.556C144.258 127.556 144.788 127.64 145.28 127.808C145.775 127.973 146.215 128.209 146.601 128.515C146.991 128.817 147.316 129.18 147.575 129.602C147.835 130.022 148.014 130.487 148.112 131H146.765Z" fill="white"/>
<path d="M151.45 138.259V127.7H155.094C155.936 127.7 156.628 127.841 157.168 128.123C157.709 128.401 158.109 128.784 158.369 129.272C158.629 129.76 158.759 130.316 158.759 130.938C158.759 131.56 158.629 132.111 158.369 132.593C158.109 133.074 157.711 133.452 157.174 133.727C156.637 133.998 155.95 134.134 155.115 134.134H152.166V132.979H155.073C155.648 132.979 156.112 132.897 156.463 132.732C156.817 132.567 157.074 132.333 157.232 132.031C157.393 131.725 157.474 131.36 157.474 130.938C157.474 130.515 157.393 130.145 157.232 129.829C157.07 129.513 156.812 129.269 156.458 129.097C156.103 128.922 155.634 128.834 155.052 128.834H152.756V138.259H151.45ZM156.526 133.516L159.18 138.259H157.663L155.052 133.516H156.526Z" fill="white"/>
<path d="M162.415 138.259H161.046L165.005 127.7H166.353L170.313 138.259H168.944L165.722 129.37H165.637L162.415 138.259ZM162.92 134.134H168.439V135.269H162.92V134.134Z" fill="white"/>
<path d="M171.181 128.834V127.7H179.269V128.834H175.878V138.259H174.572V128.834H171.181Z" fill="white"/>
<path d="M182.322 138.259V127.7H188.83V128.834H183.628V132.402H188.493V133.536H183.628V137.125H188.915V138.259H182.322Z" fill="white"/>
<path d="M195.55 138.259H192.222V127.7H195.697C196.743 127.7 197.638 127.911 198.383 128.334C199.127 128.753 199.697 129.357 200.094 130.144C200.491 130.927 200.689 131.866 200.689 132.959C200.689 134.059 200.489 135.006 200.089 135.8C199.688 136.59 199.106 137.198 198.34 137.625C197.575 138.047 196.645 138.259 195.55 138.259ZM193.528 137.125H195.466C196.357 137.125 197.096 136.956 197.682 136.619C198.268 136.282 198.706 135.803 198.993 135.181C199.281 134.559 199.425 133.818 199.425 132.959C199.425 132.106 199.283 131.372 198.999 130.757C198.714 130.139 198.29 129.664 197.724 129.334C197.159 129.001 196.455 128.834 195.613 128.834H193.528V137.125Z" fill="white"/>
<path d="M215.023 130.34C214.96 129.817 214.703 129.412 214.254 129.123C213.805 128.834 213.254 128.69 212.601 128.69C212.123 128.69 211.706 128.765 211.347 128.917C210.993 129.068 210.716 129.276 210.516 129.54C210.319 129.805 210.221 130.106 210.221 130.443C210.221 130.725 210.289 130.967 210.426 131.17C210.566 131.369 210.745 131.536 210.963 131.67C211.181 131.8 211.409 131.909 211.648 131.995C211.886 132.077 212.106 132.144 212.306 132.196L213.401 132.484C213.682 132.557 213.994 132.656 214.338 132.783C214.686 132.911 215.017 133.084 215.333 133.304C215.653 133.521 215.916 133.799 216.123 134.139C216.33 134.48 216.434 134.897 216.434 135.392C216.434 135.963 216.281 136.478 215.976 136.939C215.674 137.4 215.232 137.766 214.649 138.037C214.07 138.309 213.366 138.444 212.537 138.444C211.765 138.444 211.096 138.322 210.531 138.078C209.97 137.834 209.527 137.494 209.204 137.058C208.885 136.621 208.704 136.114 208.662 135.537H210.01C210.045 135.935 210.182 136.265 210.421 136.526C210.663 136.784 210.968 136.977 211.337 137.104C211.709 137.228 212.109 137.29 212.537 137.29C213.036 137.29 213.483 137.21 213.88 137.052C214.277 136.891 214.591 136.667 214.823 136.382C215.054 136.093 215.17 135.757 215.17 135.372C215.17 135.021 215.07 134.736 214.87 134.516C214.67 134.296 214.407 134.117 214.08 133.98C213.754 133.842 213.401 133.722 213.022 133.619L211.695 133.247C210.853 133.01 210.186 132.672 209.694 132.232C209.203 131.792 208.957 131.216 208.957 130.505C208.957 129.913 209.12 129.398 209.447 128.958C209.777 128.515 210.219 128.171 210.774 127.927C211.332 127.679 211.955 127.556 212.643 127.556C213.338 127.556 213.956 127.678 214.496 127.922C215.037 128.162 215.465 128.492 215.781 128.911C216.1 129.331 216.269 129.807 216.286 130.34H215.023Z" fill="white"/>
<path d="M218.692 127.7H220.188L223.178 132.629H223.305L226.295 127.7H227.791L223.894 133.907V138.259H222.589V133.907L218.692 127.7Z" fill="white"/>
<path d="M236.415 130.34C236.352 129.817 236.096 129.412 235.646 129.123C235.197 128.834 234.646 128.69 233.993 128.69C233.516 128.69 233.098 128.765 232.74 128.917C232.385 129.068 232.108 129.276 231.908 129.54C231.711 129.805 231.613 130.106 231.613 130.443C231.613 130.725 231.681 130.967 231.818 131.17C231.959 131.369 232.138 131.536 232.355 131.67C232.573 131.8 232.801 131.909 233.04 131.995C233.279 132.077 233.498 132.144 233.698 132.196L234.793 132.484C235.074 132.557 235.387 132.656 235.731 132.783C236.078 132.911 236.41 133.084 236.726 133.304C237.045 133.521 237.308 133.799 237.516 134.139C237.723 134.48 237.826 134.897 237.826 135.392C237.826 135.963 237.673 136.478 237.368 136.939C237.066 137.4 236.624 137.766 236.041 138.037C235.462 138.309 234.758 138.444 233.93 138.444C233.157 138.444 232.489 138.322 231.924 138.078C231.362 137.834 230.92 137.494 230.597 137.058C230.277 136.621 230.096 136.114 230.054 135.537H231.402C231.437 135.935 231.574 136.265 231.813 136.526C232.055 136.784 232.361 136.977 232.729 137.104C233.101 137.228 233.501 137.29 233.93 137.29C234.428 137.29 234.876 137.21 235.272 137.052C235.669 136.891 235.983 136.667 236.215 136.382C236.447 136.093 236.562 135.757 236.562 135.372C236.562 135.021 236.462 134.736 236.262 134.516C236.062 134.296 235.799 134.117 235.473 133.98C235.146 133.842 234.793 133.722 234.414 133.619L233.087 133.247C232.245 133.01 231.578 132.672 231.086 132.232C230.595 131.792 230.349 131.216 230.349 130.505C230.349 129.913 230.512 129.398 230.839 128.958C231.169 128.515 231.611 128.171 232.166 127.927C232.724 127.679 233.347 127.556 234.035 127.556C234.73 127.556 235.348 127.678 235.889 127.922C236.429 128.162 236.857 128.492 237.173 128.911C237.493 129.331 237.661 129.807 237.679 130.34H236.415Z" fill="white"/>
<path d="M240.421 128.834V127.7H248.509V128.834H245.118V138.259H243.812V128.834H240.421Z" fill="white"/>
<path d="M251.563 138.259V127.7H258.071V128.834H252.868V132.402H257.734V133.536H252.868V137.125H258.155V138.259H251.563Z" fill="white"/>
<path d="M261.462 127.7H263.021L266.686 136.465H266.812L270.477 127.7H272.035V138.259H270.814V130.237H270.708L267.339 138.259H266.159L262.789 130.237H262.684V138.259H261.462V127.7Z" fill="white"/>
<path d="M281.589 130.34C281.526 129.817 281.269 129.412 280.82 129.123C280.371 128.834 279.82 128.69 279.167 128.69C278.689 128.69 278.272 128.765 277.914 128.917C277.559 129.068 277.282 129.276 277.082 129.54C276.885 129.805 276.787 130.106 276.787 130.443C276.787 130.725 276.855 130.967 276.992 131.17C277.133 131.369 277.312 131.536 277.529 131.67C277.747 131.8 277.975 131.909 278.214 131.995C278.452 132.077 278.672 132.144 278.872 132.196L279.967 132.484C280.248 132.557 280.56 132.656 280.904 132.783C281.252 132.911 281.584 133.084 281.9 133.304C282.219 133.521 282.482 133.799 282.689 134.139C282.896 134.48 283 134.897 283 135.392C283 135.963 282.847 136.478 282.542 136.939C282.24 137.4 281.798 137.766 281.215 138.037C280.636 138.309 279.932 138.444 279.104 138.444C278.331 138.444 277.663 138.322 277.097 138.078C276.536 137.834 276.093 137.494 275.771 137.058C275.451 136.621 275.27 136.114 275.228 135.537H276.576C276.611 135.935 276.748 136.265 276.987 136.526C277.229 136.784 277.534 136.977 277.903 137.104C278.275 137.228 278.675 137.29 279.104 137.29C279.602 137.29 280.05 137.21 280.446 137.052C280.843 136.891 281.157 136.667 281.389 136.382C281.62 136.093 281.736 135.757 281.736 135.372C281.736 135.021 281.636 134.736 281.436 134.516C281.236 134.296 280.973 134.117 280.646 133.98C280.32 133.842 279.967 133.722 279.588 133.619L278.261 133.247C277.419 133.01 276.752 132.672 276.26 132.232C275.769 131.792 275.523 131.216 275.523 130.505C275.523 129.913 275.686 129.398 276.013 128.958C276.343 128.515 276.785 128.171 277.34 127.927C277.898 127.679 278.521 127.556 279.209 127.556C279.904 127.556 280.522 127.678 281.062 127.922C281.603 128.162 282.031 128.492 282.347 128.911C282.667 129.331 282.835 129.807 282.853 130.34H281.589Z" fill="white"/>
</svg>
