<svg width="64" height="64" viewBox="0 0 64 64" fill="none" xmlns="http://www.w3.org/2000/svg">
<path d="M44.0002 31.9997C47.6802 31.9997 50.6402 29.013 50.6402 25.333C50.6402 21.653 47.6802 18.6663 44.0002 18.6663C40.3202 18.6663 37.3335 21.653 37.3335 25.333C37.3335 29.013 40.3202 31.9997 44.0002 31.9997ZM24.0002 29.333C28.4268 29.333 31.9735 25.7597 31.9735 21.333C31.9735 16.9063 28.4268 13.333 24.0002 13.333C19.5735 13.333 16.0002 16.9063 16.0002 21.333C16.0002 25.7597 19.5735 29.333 24.0002 29.333ZM44.0002 37.333C39.1202 37.333 29.3335 39.7863 29.3335 44.6663V50.6663H58.6668V44.6663C58.6668 39.7863 48.8802 37.333 44.0002 37.333ZM24.0002 34.6663C17.7868 34.6663 5.3335 37.7863 5.3335 43.9997V50.6663H24.0002V44.6663C24.0002 42.3997 24.8802 38.4263 30.3202 35.413C28.0002 34.933 25.7602 34.6663 24.0002 34.6663Z" fill="#AB47BC"/>
</svg>
