<svg width="184" height="64" viewBox="0 0 184 64" fill="none" xmlns="http://www.w3.org/2000/svg">
<path d="M51.6 27.1067C49.7867 17.9067 41.7067 11 32 11C24.2933 11 17.6 15.3733 14.2667 21.7733C6.24 22.6267 0 29.4267 0 37.6667C0 46.4933 7.17333 53.6667 16 53.6667H50.6667C58.0267 53.6667 64 47.6933 64 40.3333C64 33.2933 58.5333 27.5867 51.6 27.1067ZM50.6667 48.3333H16C10.1067 48.3333 5.33333 43.56 5.33333 37.6667C5.33333 31.7733 10.1067 27 16 27H17.8933C19.6533 20.84 25.28 16.3333 32 16.3333C40.1067 16.3333 46.6667 22.8933 46.6667 31V32.3333H50.6667C55.0933 32.3333 58.6667 35.9067 58.6667 40.3333C58.6667 44.76 55.0933 48.3333 50.6667 48.3333Z" fill="#AB47BC"/>
<path d="M90.5 22L88.8256 23.6744L95.4519 30.3125H81V32.6875H95.4519L88.8256 39.3256L90.5 41L100 31.5L90.5 22Z" fill="#AB47BC"/>
<path d="M173.333 47.3333C176.267 47.3333 178.64 44.9333 178.64 42L178.667 15.3333C178.667 12.4 176.267 10 173.333 10H130.667C127.733 10 125.333 12.4 125.333 15.3333V42C125.333 44.9333 127.733 47.3333 130.667 47.3333H120V52.6667H184V47.3333H173.333ZM130.667 15.3333H173.333V42H130.667V15.3333Z" fill="#AB47BC"/>
</svg>
