<svg width="92" height="64" viewBox="0 0 92 64" fill="none" xmlns="http://www.w3.org/2000/svg">
<g clip-path="url(#clip0_9175_15902)">
<path d="M90.0453 61.0991H1.47564C0.674514 61.0991 0.0252686 61.7484 0.0252686 62.5495C0.0252686 63.3506 0.674514 63.9999 1.47564 63.9999H90.0453C90.8464 63.9999 91.4957 63.3506 91.4957 62.5495C91.4957 61.7484 90.8464 61.0991 90.0453 61.0991Z" fill="#AB47BC"/>
<path d="M5.3187 28.721C4.65125 29.6273 4.45985 30.7637 4.79291 31.8357L12.7606 57.6843C12.948 58.2927 13.5102 58.7075 14.1466 58.7075H48.5713C49.3724 58.7075 50.0216 58.0583 50.0216 57.2571C50.0216 56.456 49.3724 55.8068 48.5713 55.8068H15.2173L7.56397 30.9778C7.48493 30.7242 7.58662 30.5324 7.65412 30.4409C7.72162 30.3494 7.87483 30.1953 8.14039 30.1953H34.8496C35.1103 30.1953 35.3408 30.3614 35.4225 30.6092L42.4474 51.8314C42.6437 52.4251 43.1988 52.8261 43.8245 52.8261H57.8534C57.7229 53.3288 57.6487 53.8533 57.6487 54.3928V54.4741C57.6487 56.8086 59.548 58.708 61.883 58.708H81.6406C83.8268 58.708 85.6054 56.9294 85.6054 54.7432V52.7839C85.6054 48.9444 84.2931 45.1715 81.9106 42.1606L76.9658 35.912C74.6521 32.9881 71.3886 30.8703 67.7604 29.944L66.5441 29.6482L69.5825 25.3224C70.6212 23.8441 70.9183 21.9319 70.3778 20.2075L67.5943 11.3272C67.4069 10.7295 67.6241 10.0847 68.1343 9.72186L69.6824 8.62187C70.8703 7.77767 71.4094 6.37038 71.0897 4.94843C70.77 3.52693 69.6802 2.48601 68.2454 2.23155L56.3773 0.127496C53.4646 -0.393411 50.4919 0.705245 48.6179 2.99537L39.5067 14.1302C37.7246 16.3085 37.4453 19.3118 38.7957 21.7813C38.8006 21.7897 38.8055 21.7986 38.8104 21.8071L43.6482 30.2419L39.1363 32.5969L38.1767 29.6975C37.7006 28.26 36.3639 27.2941 34.8496 27.2941H8.14039C7.01464 27.2941 5.98615 27.8141 5.3187 28.721ZM45.0923 32.7599L45.1785 32.91C45.4467 33.3771 45.9352 33.6387 46.4379 33.6387C46.6826 33.6387 46.9308 33.577 47.1582 33.4464C47.8532 33.0481 48.0934 32.1613 47.6946 31.4667L41.3345 20.378C40.5614 18.953 40.7244 17.2228 41.752 15.9674L50.8627 4.83253C52.0706 3.35596 53.9873 2.64765 55.8684 2.98382L67.7391 5.08788C68.1095 5.1536 68.2245 5.4276 68.2596 5.58525C68.2951 5.7429 68.3089 6.03998 68.002 6.25758L66.4539 7.35757C64.9161 8.45001 64.2615 10.3942 64.8259 12.1949L67.6094 21.0757C67.8821 21.9452 67.732 22.9102 67.208 23.6558L63.5159 28.9128L62.4435 28.6521C61.665 28.4629 60.8807 28.9403 60.6916 29.7188C60.5024 30.4973 60.9798 31.2815 61.7582 31.4707L67.0588 32.759C70.059 33.525 72.7692 35.284 74.6912 37.7123L79.636 43.9609C81.6149 46.4615 82.7046 49.5954 82.7046 52.7844V54.7436C82.7046 55.3303 82.2272 55.8077 81.6406 55.8077H61.883C61.1476 55.8077 60.5494 55.2095 60.5494 54.4745V54.3933C60.5494 52.7089 61.8093 51.2754 63.4684 51.06L76.2992 49.5008C77.0946 49.404 77.6608 48.681 77.5639 47.8861C77.4671 47.0908 76.7433 46.5246 75.9493 46.6214L74.2822 46.8239C74.2325 46.7338 74.1738 46.6472 74.1032 46.5663L69.1659 40.9505C68.637 40.3488 67.7205 40.2901 67.1192 40.819C66.5174 41.3479 66.4588 42.2645 66.9877 42.8658L70.8357 47.2427L63.1069 48.1819C61.7014 48.3644 60.4549 49.0123 59.5072 49.9538C59.4184 49.9369 59.3273 49.9263 59.2336 49.9263H53.076L54.6467 35.4399C54.7333 34.6437 54.1574 33.9282 53.3611 33.8417C52.5649 33.7542 51.849 34.331 51.7629 35.1273L50.158 49.9263H44.8716L40.0596 35.3866L45.0923 32.7599Z" fill="#AB47BC"/>
<path d="M6.93961 21.9902C7.21583 22.2363 7.56044 22.357 7.90327 22.357C8.30294 22.357 8.70083 22.1927 8.98727 21.8708C9.51972 21.2726 9.46643 20.3556 8.86781 19.8231L2.41443 14.0803C1.81625 13.5478 0.899669 13.6011 0.366773 14.1997C-0.16568 14.7979 -0.11239 15.7149 0.48623 16.2474L6.93961 21.9902Z" fill="#AB47BC"/>
<path d="M25.4301 22.3567C25.7729 22.3567 26.1175 22.2359 26.3938 21.9899L32.8471 16.2471C33.4453 15.7146 33.4991 14.798 32.9666 14.1994C32.4341 13.6008 31.5171 13.5471 30.9189 14.08L24.4656 19.8228C23.8674 20.3553 23.8137 21.2723 24.3461 21.8705C24.633 22.1924 25.0304 22.3567 25.4301 22.3567Z" fill="#AB47BC"/>
<path d="M16.6563 19.1352C17.4574 19.1352 18.1067 18.486 18.1067 17.6848V9.94939C18.1067 9.14827 17.4574 8.49902 16.6563 8.49902C15.8552 8.49902 15.2059 9.14827 15.2059 9.94939V17.6848C15.2059 18.486 15.8552 19.1352 16.6563 19.1352Z" fill="#AB47BC"/>
<path d="M52.5293 30.1579H53.548C55.4554 30.1579 57.1597 29.0197 57.8903 27.2576L60.0001 22.1689L62.006 23.2227C62.2214 23.336 62.4519 23.3897 62.6792 23.3897C63.2006 23.3897 63.705 23.1073 63.9644 22.6134C64.337 21.9042 64.0643 21.0276 63.3551 20.655L51.9453 14.66C51.5697 14.4628 51.1265 14.4397 50.7321 14.5973L42.9967 17.6917C42.2528 17.9892 41.8914 18.8334 42.1889 19.5768C42.4864 20.3207 43.3302 20.6821 44.074 20.385L45.8823 19.6616L48.0263 26.8078C48.6281 28.8115 50.4377 30.1579 52.5293 30.1579ZM51.1891 17.5389L57.4217 20.814L55.2107 26.1465C54.9309 26.8211 54.2786 27.2572 53.548 27.2572H52.5293C51.7282 27.2572 51.0354 26.7416 50.8054 25.9747L48.5996 18.6216C48.5957 18.6074 48.5877 18.5954 48.5832 18.5816L51.1891 17.5389Z" fill="#AB47BC"/>
</g>
<defs>
<clipPath id="clip0_9175_15902">
<rect width="91.4953" height="64" fill="white"/>
</clipPath>
</defs>
</svg>
