<svg width="56" height="64" viewBox="0 0 56 64" fill="none" xmlns="http://www.w3.org/2000/svg">
<path d="M33.7661 50.7469H21.5851C20.9865 50.7469 20.5022 50.2626 20.5022 49.664V49.5354C20.5022 45.7079 18.8976 41.9645 15.9851 38.9947C12.3667 35.3066 10.7263 30.2284 11.484 25.0643C12.54 17.8776 18.5599 12.0756 25.8003 11.2698C30.5283 10.7462 35.0723 12.1882 38.5906 15.3349C42.0589 18.4387 44.0495 22.8879 44.0495 27.5391C44.0495 31.9116 42.3448 36.0231 39.25 39.1144C36.4107 41.9484 34.8489 45.5775 34.8489 49.3353V49.664C34.8489 50.2626 34.3647 50.7469 33.7661 50.7469ZM22.6393 48.583H32.7029C32.8977 44.5197 34.6613 40.6404 37.7204 37.5849C40.4061 34.9028 41.8856 31.3362 41.8856 27.5427C41.8856 23.5062 40.1595 19.6448 37.1486 16.952C34.0967 14.2217 30.1549 12.9673 26.0415 13.4265C19.7643 14.1252 14.5431 19.1534 13.6282 25.3842C12.9688 29.8728 14.3912 34.2827 17.5325 37.483C20.6023 40.6136 22.3945 44.5232 22.6393 48.583Z" fill="#AB47BC"/>
<path d="M34.1739 55.0729H21.178C19.3894 55.0729 17.9331 53.6166 17.9331 51.8279C17.9331 50.0375 19.3894 48.583 21.178 48.583H34.1739C35.9643 48.583 37.4188 50.0393 37.4188 51.8279C37.4188 53.6184 35.9625 55.0729 34.1739 55.0729ZM21.178 50.7469C20.583 50.7469 20.0988 51.2311 20.0988 51.8279C20.0988 52.4248 20.583 52.909 21.178 52.909H34.1739C34.7707 52.909 35.2549 52.4248 35.2549 51.8279C35.2549 51.2311 34.7707 50.7469 34.1739 50.7469H21.178Z" fill="#AB47BC"/>
<path d="M34.1739 64.0001H21.178C19.3894 64.0001 17.9331 62.5438 17.9331 60.7552C17.9331 58.9648 19.3894 57.5103 21.178 57.5103H34.1739C35.9643 57.5103 37.4188 58.9665 37.4188 60.7552C37.4188 62.5438 35.9625 64.0001 34.1739 64.0001ZM21.178 59.6741C20.583 59.6741 20.0988 60.1584 20.0988 60.7552C20.0988 61.352 20.583 61.8362 21.178 61.8362H34.1739C34.7707 61.8362 35.2549 61.352 35.2549 60.7552C35.2549 60.1584 34.7707 59.6741 34.1739 59.6741H21.178Z" fill="#AB47BC"/>
<path d="M33.968 59.6741H21.3831C20.7845 59.6741 20.3003 59.1898 20.3003 58.5912V53.9901C20.3003 53.3915 20.7845 52.9072 21.3831 52.9072H33.968C34.5666 52.9072 35.0508 53.3915 35.0508 53.9901V58.5912C35.0508 59.1898 34.5666 59.6741 33.968 59.6741ZM22.466 57.5102H32.8852V55.0747H22.466V57.5102Z" fill="#AB47BC"/>
<path d="M27.6766 8.66092C27.078 8.66092 26.5938 8.17668 26.5938 7.57808V1.08284C26.5937 0.484239 27.078 0 27.6766 0C28.2752 0 28.7594 0.484239 28.7594 1.08284V7.57808C28.7594 8.17668 28.2752 8.66092 27.6766 8.66092Z" fill="#AB47BC"/>
<path d="M41.8876 14.5468C41.6106 14.5468 41.3336 14.4414 41.1228 14.2288C40.6993 13.8053 40.6993 13.1209 41.1228 12.6974L45.715 8.10521C46.1385 7.68173 46.8229 7.68173 47.2464 8.10521C47.6698 8.5287 47.6698 9.21307 47.2464 9.63655L42.6541 14.2288C42.4415 14.4414 42.1645 14.5468 41.8876 14.5468Z" fill="#AB47BC"/>
<path d="M54.2685 28.758H47.7733C47.1747 28.758 46.6904 28.2737 46.6904 27.6751C46.6904 27.0765 47.1747 26.5923 47.7733 26.5923H54.2685C54.8671 26.5923 55.3513 27.0765 55.3513 27.6751C55.3513 28.2737 54.8671 28.758 54.2685 28.758Z" fill="#AB47BC"/>
<path d="M7.57808 28.758H1.08284C0.484239 28.758 0 28.2737 0 27.6751C0 27.0765 0.484239 26.5923 1.08284 26.5923H7.57808C8.17668 26.5923 8.66092 27.0765 8.66092 27.6751C8.66092 28.2737 8.17668 28.758 7.57808 28.758Z" fill="#AB47BC"/>
<path d="M13.464 14.5468C13.187 14.5468 12.9101 14.4414 12.6992 14.2288L8.10521 9.63655C7.68173 9.21307 7.68173 8.5287 8.10521 8.10521C8.5287 7.68173 9.21307 7.68173 9.63655 8.10521L14.2306 12.6974C14.6541 13.1209 14.6541 13.8053 14.2306 14.2288C14.0179 14.4414 13.741 14.5468 13.464 14.5468Z" fill="#AB47BC"/>
<path d="M29.9836 46.6158C29.8979 46.6158 29.8121 46.6069 29.7245 46.5837C29.1438 46.4425 28.7882 45.8546 28.9312 45.2739L30.7555 37.837C28.7346 38.3766 26.6154 38.3802 24.5927 37.837L26.417 45.2739C26.56 45.8546 26.2044 46.4407 25.6237 46.5837C25.0465 46.732 24.4569 46.371 24.3157 45.7903L22.0071 36.3861C21.907 35.9805 22.05 35.5552 22.3716 35.2907C22.695 35.0245 23.1417 34.9709 23.517 35.1478C26.1597 36.3879 29.1885 36.3861 31.8277 35.1478C32.2047 34.9709 32.6496 35.0245 32.973 35.2907C33.2947 35.5552 33.4376 35.9805 33.3376 36.3861L31.0289 45.7903C30.9128 46.2853 30.4696 46.6158 29.9836 46.6158Z" fill="#AB47BC"/>
</svg>
