<svg width="76" height="64" viewBox="0 0 76 64" fill="none" xmlns="http://www.w3.org/2000/svg">
<g clip-path="url(#clip0_9175_15883)">
<path d="M38.4054 46.1382C37.7575 46.1382 37.2321 46.6636 37.2321 47.3115V54.7142H28.4716C27.8237 54.7142 27.2983 55.2396 27.2983 55.8875C27.2983 56.5354 27.8237 57.0608 28.4716 57.0608H38.4054C39.0533 57.0608 39.5787 56.5354 39.5787 55.8875V47.3115C39.5791 46.6636 39.0537 46.1382 38.4054 46.1382Z" fill="#AB47BC"/>
<path d="M24.2674 8.48047L7.71563 2.34657H37.2325V19.2057C37.2325 19.8539 37.7579 20.379 38.4058 20.379C39.0537 20.379 39.5791 19.8536 39.5791 19.2057V1.17328C39.5791 0.525026 39.0537 0 38.4058 0H1.17328C1.16517 0 1.15779 0.00221374 1.14967 0.0025827C1.10466 0.00332061 1.06075 0.00996184 1.01648 0.0158651C0.982901 0.0202926 0.949326 0.0228753 0.916858 0.0302545C0.879224 0.0387405 0.843435 0.0523919 0.806909 0.0641985C0.770751 0.0760051 0.733855 0.0863359 0.699173 0.101832C0.666336 0.116221 0.636451 0.135407 0.605089 0.152748C0.570776 0.171934 0.535725 0.189275 0.503626 0.211781C0.473003 0.233181 0.4457 0.258639 0.416921 0.28299C0.388512 0.307341 0.358995 0.329847 0.332799 0.356781C0.306972 0.383346 0.285204 0.413601 0.261959 0.442748C0.237239 0.473372 0.211781 0.502519 0.190382 0.535356C0.172672 0.563397 0.158283 0.594021 0.142417 0.623906C0.121387 0.663384 0.100356 0.702125 0.0837532 0.743817C0.0808016 0.751565 0.0760051 0.757837 0.0730535 0.765586C0.0634606 0.791413 0.0605089 0.81724 0.0527608 0.843435C0.0409542 0.884021 0.0284097 0.924237 0.0206616 0.966667C0.0132824 1.00947 0.0110687 1.0519 0.00811705 1.0947C0.00627227 1.12126 0 1.14635 0 1.17328V55.8874C0 55.9066 0.00479644 55.9243 0.00553435 55.9435C0.00737914 55.9859 0.0118066 56.0276 0.0184478 56.0693C0.0239822 56.1058 0.0313613 56.1412 0.0402163 56.1763C0.0498092 56.2135 0.0612468 56.2497 0.0741603 56.2855C0.0874428 56.3216 0.101463 56.3571 0.118066 56.3917C0.133931 56.4249 0.151641 56.4567 0.170458 56.4884C0.190013 56.5212 0.210674 56.553 0.233181 56.5836C0.255318 56.6138 0.279669 56.6423 0.304758 56.6707C0.329479 56.6983 0.354937 56.7245 0.382239 56.7496C0.41028 56.7755 0.439797 56.7991 0.47042 56.8223C0.501043 56.8456 0.532774 56.867 0.565611 56.8869C0.596603 56.9057 0.628334 56.923 0.66154 56.9389C0.699542 56.9574 0.738283 56.9736 0.778499 56.988C0.796209 56.9942 0.811705 57.0042 0.830153 57.0097L23.5166 63.9491C23.6291 63.9838 23.7446 64.0004 23.8597 64.0004C24.108 64.0004 24.3534 63.9214 24.5578 63.7701C24.8566 63.5491 25.0334 63.199 25.0334 62.8271V9.5807C25.033 9.08999 24.7275 8.65093 24.2674 8.48047ZM22.6864 61.2409L2.34657 55.0196V2.85942L22.6864 10.3972V61.2409Z" fill="#AB47BC"/>
<path d="M17.8338 37.1623C19.5591 37.1623 20.9626 35.7588 20.9626 34.0335C20.9626 32.3083 19.5591 30.9048 17.8338 30.9048C16.1086 30.9048 14.7051 32.3083 14.7051 34.0335C14.7051 35.7588 16.1086 37.1623 17.8338 37.1623ZM17.8338 33.2513C18.2651 33.2513 18.616 33.6022 18.616 34.0335C18.616 34.4648 18.2651 34.8157 17.8338 34.8157C17.4025 34.8157 17.0516 34.4648 17.0516 34.0335C17.0516 33.6022 17.4025 33.2513 17.8338 33.2513Z" fill="#AB47BC"/>
<path d="M68.4465 22.0361C66.2169 22.0361 64.4027 23.8503 64.4027 26.0799C64.4027 26.7477 64.5684 27.3768 64.8562 27.9324L56.5307 36.1458H54.9135C54.2656 36.1458 53.7402 36.6712 53.7402 37.3191C53.7402 37.967 54.2656 38.4924 54.9135 38.4924H57.0118C57.3202 38.4924 57.6161 38.371 57.8357 38.1544L66.4899 29.6164C67.0699 29.9385 67.7366 30.1233 68.4457 30.1233C70.6757 30.1233 72.4895 28.3091 72.4895 26.0795C72.4903 23.8503 70.6765 22.0361 68.4465 22.0361ZM68.4465 27.7771C67.5108 27.7771 66.7493 27.0159 66.7493 26.0799C66.7493 25.1442 67.5104 24.3827 68.4465 24.3827C69.3825 24.3827 70.1437 25.1439 70.1437 26.0799C70.1437 27.0159 69.3825 27.7771 68.4465 27.7771Z" fill="#AB47BC"/>
<path d="M67.9154 33.9873C65.6858 33.9873 63.8716 35.8011 63.8716 38.0311C63.8716 38.7266 64.0483 39.3818 64.359 39.9541L62.4186 41.9343H33.478C32.8301 41.9343 32.3047 42.4597 32.3047 43.1075C32.3047 43.7558 32.8301 44.2808 33.478 44.2808H62.9116C63.227 44.2808 63.5288 44.1539 63.7495 43.9285L66.0267 41.604C66.5908 41.9033 67.2332 42.0748 67.915 42.0748C70.1446 42.0748 71.9588 40.2607 71.9588 38.0311C71.9588 35.8011 70.145 33.9873 67.9154 33.9873ZM67.9154 39.7283C66.9797 39.7283 66.2182 38.9671 66.2182 38.0311C66.2182 37.0954 66.9793 36.3339 67.9154 36.3339C68.8514 36.3339 69.6126 37.0954 69.6126 38.0311C69.6122 38.9667 68.851 39.7283 67.9154 39.7283Z" fill="#AB47BC"/>
<path d="M71.6437 7.75146C69.4137 7.75146 67.5999 9.56563 67.5999 11.7952C67.5999 12.4177 67.7456 13.0054 67.998 13.5326L50.7341 30.8268H34.1034C33.4555 30.8268 32.9301 31.3522 32.9301 32C32.9301 32.6479 33.4555 33.1733 34.1034 33.1733H51.2204C51.5318 33.1733 51.8307 33.0494 52.0509 32.8291L69.5819 15.2675C70.1866 15.628 70.8902 15.839 71.6437 15.839C73.8733 15.839 75.6874 14.0248 75.6874 11.7952C75.6874 9.56563 73.8733 7.75146 71.6437 7.75146ZM71.6437 13.4924C70.7076 13.4924 69.9464 12.7313 69.9464 11.7952C69.9464 10.8592 70.7076 10.098 71.6437 10.098C72.5793 10.098 73.3409 10.8592 73.3409 11.7952C73.3409 12.7313 72.5793 13.4924 71.6437 13.4924Z" fill="#AB47BC"/>
<path d="M45.5005 13.865V16.4581L37.4757 25.4964H28.4717C27.8238 25.4964 27.2984 26.0218 27.2984 26.6697C27.2984 27.3176 27.8238 27.843 28.4717 27.843H38.0029C38.3383 27.843 38.6575 27.6994 38.8803 27.4485L47.5512 17.6826C47.7419 17.4679 47.8471 17.1908 47.8471 16.9038V13.8329C49.4775 13.3112 50.6615 11.7826 50.6615 9.98176C50.6615 7.75215 48.8473 5.93799 46.6177 5.93799C44.3881 5.93799 42.574 7.75215 42.574 9.98176C42.574 11.8236 43.8133 13.3784 45.5005 13.865ZM46.6177 8.28455C47.5534 8.28455 48.3149 9.04571 48.3149 9.98176C48.3149 10.8813 47.6095 11.6125 46.7236 11.6683C46.7066 11.6675 46.6908 11.6631 46.6738 11.6631C46.6376 11.6631 46.6033 11.6705 46.5679 11.6738C45.6555 11.6469 44.9205 10.9005 44.9205 9.98176C44.9205 9.04571 45.682 8.28455 46.6177 8.28455Z" fill="#AB47BC"/>
<path d="M45.0035 25.8545C44.5471 26.3142 44.55 27.0573 45.0101 27.5137C45.2389 27.7406 45.5377 27.8543 45.8366 27.8543C46.1384 27.8543 46.4402 27.7384 46.6693 27.5074L56.9828 17.1136C57.5155 17.3726 58.1107 17.5216 58.7416 17.5216C60.9715 17.5216 62.7853 15.7075 62.7853 13.4778C62.7853 11.2482 60.9715 9.43408 58.7416 9.43408C56.5116 9.43408 54.6978 11.2482 54.6978 13.4778C54.6978 14.2235 54.9044 14.9201 55.2575 15.5208L45.0035 25.8545ZM58.7416 11.7806C59.6772 11.7806 60.4388 12.5418 60.4388 13.4778C60.4388 14.4135 59.6772 15.1751 58.7416 15.1751C57.8055 15.1751 57.0444 14.4135 57.0444 13.4778C57.0444 12.5418 57.8059 11.7806 58.7416 11.7806Z" fill="#AB47BC"/>
<path d="M47.8471 37.3188C47.8471 36.6705 47.3217 36.1455 46.6738 36.1455H28.4717C27.8238 36.1455 27.2984 36.6709 27.2984 37.3188C27.2984 37.9667 27.8238 38.4921 28.4717 38.4921H46.6738C47.3217 38.4921 47.8471 37.967 47.8471 37.3188Z" fill="#AB47BC"/>
<path d="M51.1661 38.4921C51.8139 38.4921 52.3393 37.9667 52.3393 37.3188C52.3393 36.6705 51.8139 36.1455 51.1661 36.1455H50.7436C50.0957 36.1455 49.5703 36.6709 49.5703 37.3188C49.5703 37.9667 50.0957 38.4921 50.7436 38.4921H51.1661Z" fill="#AB47BC"/>
<path d="M28.4716 41.9336C27.8237 41.9336 27.2983 42.459 27.2983 43.1069C27.2983 43.7551 27.8237 44.2802 28.4716 44.2802H29.4102C30.0581 44.2802 30.5835 43.7548 30.5835 43.1069C30.5835 42.459 30.0581 41.9336 29.4102 41.9336H28.4716Z" fill="#AB47BC"/>
<path d="M29.4103 30.8267H28.4717C27.8238 30.8267 27.2984 31.3521 27.2984 31.9999C27.2984 32.6478 27.8238 33.1732 28.4717 33.1732H29.4103C30.0582 33.1732 30.5836 32.6478 30.5836 31.9999C30.5836 31.3521 30.0586 30.8267 29.4103 30.8267Z" fill="#AB47BC"/>
</g>
<defs>
<clipPath id="clip0_9175_15883">
<rect width="75.6874" height="64" fill="white"/>
</clipPath>
</defs>
</svg>
