<svg width="18" height="18" viewBox="0 0 18 18" fill="none" xmlns="http://www.w3.org/2000/svg">
<path fill-rule="evenodd" clip-rule="evenodd" d="M18 9C18 13.9706 13.9706 18 9 18C4.02944 18 0 13.9706 0 9C0 4.02944 4.02944 0 9 0C13.9706 0 18 4.02944 18 9ZM9.32237 6.64417C8.44698 7.00827 6.69745 7.76187 4.07377 8.90496C3.64772 9.07439 3.42454 9.24013 3.40422 9.4022C3.36989 9.67609 3.71288 9.78395 4.17995 9.93081C4.24348 9.95079 4.30931 9.97149 4.3768 9.99343C4.83633 10.1428 5.45447 10.3176 5.77581 10.3245C6.06731 10.3308 6.39264 10.2106 6.75183 9.96397C9.20322 8.30922 10.4686 7.47283 10.5481 7.4548C10.6041 7.44208 10.6818 7.42608 10.7344 7.47285C10.787 7.51963 10.7819 7.60821 10.7763 7.63197C10.7423 7.77683 9.39594 9.02854 8.69919 9.6763C8.48198 9.87824 8.3279 10.0215 8.29641 10.0542C8.22585 10.1275 8.15394 10.1968 8.08483 10.2634C7.65792 10.675 7.33778 10.9836 8.10256 11.4876C8.47007 11.7297 8.76416 11.93 9.05756 12.1298C9.37797 12.348 9.69756 12.5657 10.1111 12.8367C10.2164 12.9058 10.317 12.9775 10.415 13.0474C10.7879 13.3132 11.1229 13.552 11.5368 13.5139C11.7773 13.4918 12.0257 13.2657 12.1519 12.5912C12.45 10.9973 13.0361 7.54381 13.1715 6.1207C13.1834 5.99602 13.1685 5.83645 13.1565 5.7664C13.1445 5.69635 13.1194 5.59655 13.0284 5.52267C12.9205 5.43517 12.7541 5.41672 12.6796 5.41803C12.3411 5.424 11.8218 5.60458 9.32237 6.64417Z" fill="white"/>
</svg>
