<svg width="64" height="64" viewBox="0 0 64 64" fill="none" xmlns="http://www.w3.org/2000/svg">
<path d="M54.3468 22.853L51.0668 27.7863C52.6486 30.9412 53.423 34.4392 53.3206 37.9669C53.2182 41.4947 52.2423 44.9419 50.4801 47.9997H13.5201C11.2299 44.0266 10.2809 39.4213 10.8138 34.8665C11.3468 30.3117 13.3332 26.0499 16.4787 22.7128C19.6243 19.3758 23.7614 17.1411 28.2768 16.3402C32.7922 15.5393 37.4455 16.2147 41.5468 18.2663L46.4801 14.9863C41.4574 11.7656 35.4997 10.3224 29.5598 10.8875C23.62 11.4527 18.0413 13.9935 13.7161 18.1037C9.39091 22.2139 6.5691 27.6559 5.70205 33.5592C4.835 39.4625 5.9728 45.4861 8.93347 50.6663C9.39883 51.4724 10.067 52.1427 10.8717 52.6105C11.6763 53.0783 12.5894 53.3274 13.5201 53.333H50.4535C51.3933 53.3367 52.3173 53.0921 53.1322 52.6238C53.947 52.1555 54.6236 51.4802 55.0935 50.6663C57.5505 46.4101 58.7835 41.5577 58.6565 36.6449C58.5294 31.732 57.0472 26.9499 54.3735 22.8263L54.3468 22.853ZM28.2401 41.093C28.7355 41.5889 29.3237 41.9823 29.9711 42.2507C30.6186 42.5191 31.3126 42.6572 32.0135 42.6572C32.7144 42.6572 33.4084 42.5191 34.0558 42.2507C34.7033 41.9823 35.2915 41.5889 35.7868 41.093L50.8801 18.453L28.2401 33.5463C27.7443 34.0417 27.3509 34.6299 27.0825 35.2773C26.8141 35.9248 26.6759 36.6188 26.6759 37.3197C26.6759 38.0206 26.8141 38.7146 27.0825 39.362C27.3509 40.0095 27.7443 40.5977 28.2401 41.093Z" fill="#AB47BC"/>
</svg>
