<svg width="64" height="64" viewBox="0 0 64 64" fill="none" xmlns="http://www.w3.org/2000/svg">
<path d="M56.0002 32.5867C56.0002 17.9467 44.6402 8 32.0002 8C19.4935 8 8.00016 17.7333 8.00016 32.7467C6.40016 33.6533 5.3335 35.36 5.3335 37.3333V42.6667C5.3335 45.6 7.7335 48 10.6668 48H13.3335V31.7333C13.3335 21.4133 21.6802 13.0667 32.0002 13.0667C42.3202 13.0667 50.6668 21.4133 50.6668 31.7333V50.6667H29.3335V56H50.6668C53.6002 56 56.0002 53.6 56.0002 50.6667V47.4133C57.5735 46.5867 58.6668 44.96 58.6668 43.04V36.9067C58.6668 35.04 57.5735 33.4133 56.0002 32.5867Z" fill="#AB47BC"/>
<path d="M24.0002 37.3333C25.4729 37.3333 26.6668 36.1394 26.6668 34.6667C26.6668 33.1939 25.4729 32 24.0002 32C22.5274 32 21.3335 33.1939 21.3335 34.6667C21.3335 36.1394 22.5274 37.3333 24.0002 37.3333Z" fill="#AB47BC"/>
<path d="M40.0002 37.3333C41.4729 37.3333 42.6668 36.1394 42.6668 34.6667C42.6668 33.1939 41.4729 32 40.0002 32C38.5274 32 37.3335 33.1939 37.3335 34.6667C37.3335 36.1394 38.5274 37.3333 40.0002 37.3333Z" fill="#AB47BC"/>
<path d="M48.0002 29.4133C46.7202 21.8133 40.1068 16 32.1335 16C24.0535 16 15.3602 22.6933 16.0535 33.2C22.6402 30.5067 27.6002 24.64 29.0135 17.4933C32.5068 24.5067 39.6802 29.3333 48.0002 29.4133Z" fill="#AB47BC"/>
</svg>
