<?xml version="1.0" encoding="UTF-8"?>
<svg xmlns="http://www.w3.org/2000/svg" xmlns:xlink="http://www.w3.org/1999/xlink" width="24px" height="24px" viewBox="0 0 24 24" version="1.1">
<g id="surface1">
<path style=" stroke:none;fill-rule:nonzero;fill:rgb(0%,0%,0%);fill-opacity:1;" d="M 0 12.003906 L 0 24.003906 L 5.996094 24.003906 L 5.996094 0 L 0 0 Z M 0 12.003906 "/>
<path style=" stroke:none;fill-rule:nonzero;fill:rgb(0%,0%,0%);fill-opacity:1;" d="M 18.003906 12.003906 L 18.003906 24.003906 L 24.003906 24.003906 L 24.003906 0 L 18.003906 0 Z M 18.003906 12.003906 "/>
<path style=" stroke:none;fill-rule:nonzero;fill:rgb(0%,0%,0%);fill-opacity:1;" d="M 12 2.378906 C 11.988281 2.429688 11.796875 3.351562 11.570312 4.421875 C 11.347656 5.496094 11.160156 6.386719 11.15625 6.402344 C 11.152344 6.417969 11.148438 6.433594 11.144531 6.433594 C 11.140625 6.433594 11.050781 6.246094 10.945312 6.015625 L 10.757812 5.597656 L 10.75 6.921875 C 10.742188 7.652344 10.734375 8.789062 10.730469 9.449219 L 10.722656 10.648438 L 10.085938 9.351562 L 9.453125 8.058594 L 9.445312 8.277344 C 9.441406 8.394531 9.433594 8.632812 9.429688 8.800781 C 9.421875 9.011719 9.414062 9.113281 9.40625 9.113281 C 9.398438 9.113281 9.078125 8.984375 8.691406 8.820312 C 8.308594 8.660156 7.992188 8.535156 7.988281 8.539062 C 7.984375 8.542969 8.085938 9.203125 8.214844 10 C 8.339844 10.800781 8.441406 11.457031 8.4375 11.464844 C 8.433594 11.472656 8.351562 11.476562 8.253906 11.476562 C 8.152344 11.476562 8.03125 11.484375 7.980469 11.492188 L 7.886719 11.511719 L 8.820312 13.382812 L 9.75 15.261719 L 9.457031 15.835938 L 9.167969 16.414062 L 9.46875 17.121094 L 9.773438 17.835938 L 9.71875 18.457031 C 9.6875 18.800781 9.667969 19.089844 9.671875 19.097656 C 9.675781 19.105469 10.070312 18.917969 10.546875 18.679688 L 11.417969 18.25 L 11.652344 18.027344 C 11.78125 17.90625 11.886719 17.8125 11.890625 17.816406 C 11.894531 17.824219 11.875 18.65625 11.855469 19.667969 C 11.832031 20.679688 11.8125 21.542969 11.8125 21.585938 L 11.8125 21.664062 L 12.195312 21.664062 L 12.1875 21.246094 C 12.164062 20.015625 12.136719 17.839844 12.144531 17.828125 C 12.148438 17.816406 12.285156 17.921875 12.449219 18.058594 L 12.746094 18.308594 L 13.574219 18.742188 C 14.03125 18.980469 14.402344 19.164062 14.40625 19.15625 C 14.40625 19.144531 14.382812 18.839844 14.347656 18.472656 L 14.289062 17.808594 L 14.59375 17.121094 C 14.761719 16.738281 14.894531 16.417969 14.894531 16.40625 C 14.894531 16.394531 14.765625 16.144531 14.605469 15.851562 C 14.441406 15.558594 14.3125 15.3125 14.3125 15.304688 C 14.3125 15.296875 14.71875 14.453125 15.214844 13.429688 L 16.113281 11.5625 L 16.0625 11.550781 C 16.035156 11.539062 15.925781 11.523438 15.828125 11.515625 C 15.722656 11.503906 15.640625 11.492188 15.640625 11.488281 C 15.640625 11.484375 15.734375 10.808594 15.855469 9.988281 C 15.972656 9.171875 16.066406 8.496094 16.0625 8.488281 C 16.058594 8.480469 15.742188 8.609375 15.359375 8.773438 C 14.976562 8.9375 14.660156 9.066406 14.660156 9.0625 C 14.65625 9.058594 14.648438 8.820312 14.640625 8.542969 C 14.632812 8.257812 14.625 8.023438 14.621094 8.019531 C 14.617188 8.011719 14.324219 8.585938 13.972656 9.292969 L 13.328125 10.582031 L 13.320312 10.207031 C 13.316406 10.003906 13.3125 9.257812 13.3125 8.542969 C 13.3125 7.832031 13.308594 6.882812 13.304688 6.4375 L 13.296875 5.628906 L 13.101562 6.035156 C 12.910156 6.425781 12.90625 6.4375 12.890625 6.378906 C 12.882812 6.351562 12.683594 5.421875 12.453125 4.3125 C 12.21875 3.210938 12.027344 2.296875 12.023438 2.292969 C 12.023438 2.289062 12.011719 2.324219 12 2.378906 Z M 12 2.378906 "/>
</g>
</svg>
