<?xml version="1.0" encoding="UTF-8"?>
<svg xmlns="http://www.w3.org/2000/svg" xmlns:xlink="http://www.w3.org/1999/xlink" width="24px" height="24px" viewBox="0 0 24 24" version="1.1">
<g id="surface1">
<path style=" stroke:none;fill-rule:nonzero;fill:rgb(100%,100%,100%);fill-opacity:1;" d="M 3.800781 0 L 20.785156 0 L 20.785156 24 L 3.800781 24 Z M 3.800781 0 "/>
<path style=" stroke:none;fill-rule:nonzero;fill:rgb(83.529412%,16.862745%,11.764706%);fill-opacity:1;" d="M -4.6875 0 L 3.800781 0 L 3.800781 24 L -4.6875 24 Z M 20.785156 0 L 29.273438 0 L 29.273438 24 L 20.785156 24 Z M 6.34375 11.597656 L 5.6875 11.820312 L 8.75 14.515625 C 8.984375 15.210938 8.671875 15.414062 8.46875 15.777344 L 11.796875 15.355469 L 11.714844 18.707031 L 12.40625 18.683594 L 12.253906 15.359375 L 15.589844 15.753906 C 15.382812 15.320312 15.203125 15.089844 15.390625 14.394531 L 18.453125 11.839844 L 17.921875 11.648438 C 17.480469 11.304688 18.109375 10.015625 18.203125 9.203125 C 18.203125 9.203125 16.414062 9.816406 16.296875 9.492188 L 15.835938 8.625 L 14.210938 10.40625 C 14.035156 10.453125 13.960938 10.378906 13.917969 10.226562 L 14.667969 6.492188 L 13.476562 7.164062 C 13.378906 7.203125 13.28125 7.164062 13.214844 7.050781 L 12.066406 4.753906 L 10.882812 7.140625 C 10.796875 7.222656 10.707031 7.234375 10.632812 7.175781 L 9.496094 6.539062 L 10.175781 10.25 C 10.125 10.390625 9.992188 10.4375 9.84375 10.359375 L 8.28125 8.585938 C 8.082031 8.914062 7.941406 9.449219 7.671875 9.570312 C 7.40625 9.679688 6.5 9.34375 5.898438 9.210938 C 6.101562 9.957031 6.75 11.195312 6.34375 11.601562 Z M 6.34375 11.597656 "/>
</g>
</svg>
