<?xml version="1.0" encoding="UTF-8"?>
<svg xmlns="http://www.w3.org/2000/svg" xmlns:xlink="http://www.w3.org/1999/xlink" width="24px" height="24px" viewBox="0 0 24 24" version="1.1">
<g id="surface1">
<rect x="0" y="0" width="24" height="24" style="fill:rgb(0.392157%,12.941176%,41.176471%);fill-opacity:1;stroke:none;"/>
<path style=" stroke:none;fill-rule:nonzero;fill:rgb(100%,100%,100%);fill-opacity:1;" d="M 24 0 L 24 3 L 15.09375 12 L 24 20.765625 L 24 24 L 20.859375 24 L 11.90625 15.1875 L 3.1875 24 L 0 24 L 0 20.8125 L 8.71875 12.046875 L 0 3.46875 L 0 0 L 2.90625 0 L 11.90625 8.8125 L 20.625 0 Z M 24 0 "/>
<path style=" stroke:none;fill-rule:nonzero;fill:rgb(78.431373%,6.27451%,18.039216%);fill-opacity:1;" d="M 8.625 15.1875 L 9.140625 16.78125 L 1.96875 24 L 0 24 L 0 23.859375 Z M 14.4375 14.625 L 16.96875 15 L 24 21.890625 L 24 24 Z M 24 0 L 15 9.1875 L 14.8125 7.125 L 21.84375 0 Z M 0 0.046875 L 9.046875 8.90625 L 6.28125 8.53125 L 0 2.296875 Z M 0 0.046875 "/>
<path style=" stroke:none;fill-rule:nonzero;fill:rgb(100%,100%,100%);fill-opacity:1;" d="M 8.25 0 L 8.25 24 L 15.75 24 L 15.75 0 Z M 0 8.25 L 0 15.75 L 24 15.75 L 24 8.25 Z M 0 8.25 "/>
<path style=" stroke:none;fill-rule:nonzero;fill:rgb(78.431373%,6.27451%,18.039216%);fill-opacity:1;" d="M 0 9.75 L 0 14.25 L 24 14.25 L 24 9.75 Z M 9.75 0 L 9.75 24 L 14.25 24 L 14.25 0 Z M 9.75 0 "/>
</g>
</svg>
