<svg width="65" height="65" viewBox="0 0 65 65" fill="none" xmlns="http://www.w3.org/2000/svg">
<path d="M26.4062 26.4062C26.4062 27.4837 25.9782 28.517 25.2164 29.2789C24.4545 30.0407 23.4212 30.4688 22.3438 30.4688C21.2663 30.4688 20.233 30.0407 19.4711 29.2789C18.7093 28.517 18.2812 27.4837 18.2812 26.4062C18.2812 25.3288 18.7093 24.2955 19.4711 23.5336C20.233 22.7718 21.2663 22.3438 22.3438 22.3438C23.4212 22.3438 24.4545 22.7718 25.2164 23.5336C25.9782 24.2955 26.4062 25.3288 26.4062 26.4062ZM42.6562 30.4688C43.7337 30.4688 44.767 30.0407 45.5289 29.2789C46.2907 28.517 46.7188 27.4837 46.7188 26.4062C46.7188 25.3288 46.2907 24.2955 45.5289 23.5336C44.767 22.7718 43.7337 22.3438 42.6562 22.3438C41.5788 22.3438 40.5455 22.7718 39.7836 23.5336C39.0218 24.2955 38.5938 25.3288 38.5938 26.4062C38.5938 27.4837 39.0218 28.517 39.7836 29.2789C40.5455 30.0407 41.5788 30.4688 42.6562 30.4688ZM43.8872 40.625C38.7116 40.625 33.6497 42.1566 29.3434 45.0287C28.9124 45.3344 28.6174 45.796 28.5211 46.3155C28.4248 46.8351 28.5347 47.3717 28.8276 47.8115C29.1205 48.2514 29.5732 48.5597 30.0897 48.6712C30.6062 48.7827 31.1458 48.6886 31.5941 48.4088C35.2345 45.9818 39.5119 44.687 43.8872 44.6875H47.125C47.6637 44.6875 48.1804 44.4735 48.5613 44.0926C48.9422 43.7116 49.1562 43.195 49.1562 42.6562C49.1562 42.1175 48.9422 41.6009 48.5613 41.2199C48.1804 40.839 47.6637 40.625 47.125 40.625H43.8872ZM0 32.5C0 23.8805 3.4241 15.614 9.51903 9.51903C15.614 3.4241 23.8805 0 32.5 0C41.1195 0 49.386 3.4241 55.481 9.51903C61.5759 15.614 65 23.8805 65 32.5C65 41.1195 61.5759 49.386 55.481 55.481C49.386 61.5759 41.1195 65 32.5 65C23.8805 65 15.614 61.5759 9.51903 55.481C3.4241 49.386 0 41.1195 0 32.5ZM32.5 4.0625C28.7655 4.0625 25.0676 4.79806 21.6174 6.22718C18.1672 7.65629 15.0323 9.75098 12.3917 12.3917C9.75098 15.0323 7.65629 18.1672 6.22718 21.6174C4.79806 25.0676 4.0625 28.7655 4.0625 32.5C4.0625 36.2345 4.79806 39.9324 6.22718 43.3826C7.65629 46.8328 9.75098 49.9677 12.3917 52.6083C15.0323 55.249 18.1672 57.3437 21.6174 58.7728C25.0676 60.2019 28.7655 60.9375 32.5 60.9375C40.0421 60.9375 47.2753 57.9414 52.6083 52.6083C57.9414 47.2753 60.9375 40.0421 60.9375 32.5C60.9375 24.9579 57.9414 17.7247 52.6083 12.3917C47.2753 7.05858 40.0421 4.0625 32.5 4.0625Z" fill="#AB47BC"/>
</svg>
