<?xml version="1.0" encoding="UTF-8"?>
<svg xmlns="http://www.w3.org/2000/svg" xmlns:xlink="http://www.w3.org/1999/xlink" width="24px" height="24px" viewBox="0 0 24 24" version="1.1">
<g id="surface1">
<rect x="0" y="0" width="24" height="24" style="fill:rgb(0%,20%,60%);fill-opacity:1;stroke:none;"/>
<path style=" stroke:none;fill-rule:nonzero;fill:rgb(100%,80%,0%);fill-opacity:1;" d="M 12 3.816406 L 11.644531 5 L 12.238281 5.121094 Z M 12 3.816406 "/>
<path style=" stroke:none;fill-rule:nonzero;fill:rgb(100%,80%,0%);fill-opacity:1;" d="M 12 3.816406 L 12.355469 5 L 11.761719 5.121094 Z M 12 3.816406 "/>
<path style=" stroke:none;fill-rule:nonzero;fill:rgb(100%,80%,0%);fill-opacity:1;" d="M 13.128906 4.636719 L 11.890625 4.664062 L 11.960938 5.261719 Z M 13.128906 4.636719 "/>
<path style=" stroke:none;fill-rule:nonzero;fill:rgb(100%,80%,0%);fill-opacity:1;" d="M 13.128906 4.636719 L 12.109375 5.339844 L 11.8125 4.8125 Z M 13.128906 4.636719 "/>
<path style=" stroke:none;fill-rule:nonzero;fill:rgb(100%,80%,0%);fill-opacity:1;" d="M 12.695312 5.960938 L 12.289062 4.792969 L 11.738281 5.042969 Z M 12.695312 5.960938 "/>
<path style=" stroke:none;fill-rule:nonzero;fill:rgb(100%,80%,0%);fill-opacity:1;" d="M 12.695312 5.960938 L 11.710938 5.210938 L 12.121094 4.765625 Z M 12.695312 5.960938 "/>
<path style=" stroke:none;fill-rule:nonzero;fill:rgb(100%,80%,0%);fill-opacity:1;" d="M 10.871094 4.636719 L 12.109375 4.664062 L 12.039062 5.261719 Z M 10.871094 4.636719 "/>
<path style=" stroke:none;fill-rule:nonzero;fill:rgb(100%,80%,0%);fill-opacity:1;" d="M 10.871094 4.636719 L 11.890625 5.339844 L 12.1875 4.8125 Z M 10.871094 4.636719 "/>
<path style=" stroke:none;fill-rule:nonzero;fill:rgb(100%,80%,0%);fill-opacity:1;" d="M 11.304688 5.960938 L 11.710938 4.792969 L 12.261719 5.042969 Z M 11.304688 5.960938 "/>
<path style=" stroke:none;fill-rule:nonzero;fill:rgb(100%,80%,0%);fill-opacity:1;" d="M 11.304688 5.960938 L 12.289062 5.210938 L 11.878906 4.765625 Z M 11.304688 5.960938 "/>
<path style=" stroke:none;fill-rule:nonzero;fill:rgb(100%,80%,0%);fill-opacity:1;" d="M 12 18.039062 L 11.644531 19.222656 L 12.238281 19.34375 Z M 12 18.039062 "/>
<path style=" stroke:none;fill-rule:nonzero;fill:rgb(100%,80%,0%);fill-opacity:1;" d="M 12 18.039062 L 12.355469 19.222656 L 11.761719 19.34375 Z M 12 18.039062 "/>
<path style=" stroke:none;fill-rule:nonzero;fill:rgb(100%,80%,0%);fill-opacity:1;" d="M 13.128906 18.855469 L 11.890625 18.886719 L 11.960938 19.484375 Z M 13.128906 18.855469 "/>
<path style=" stroke:none;fill-rule:nonzero;fill:rgb(100%,80%,0%);fill-opacity:1;" d="M 13.128906 18.855469 L 12.109375 19.5625 L 11.8125 19.035156 Z M 13.128906 18.855469 "/>
<path style=" stroke:none;fill-rule:nonzero;fill:rgb(100%,80%,0%);fill-opacity:1;" d="M 12.695312 20.183594 L 12.289062 19.015625 L 11.738281 19.265625 Z M 12.695312 20.183594 "/>
<path style=" stroke:none;fill-rule:nonzero;fill:rgb(100%,80%,0%);fill-opacity:1;" d="M 12.695312 20.183594 L 11.710938 19.433594 L 12.121094 18.988281 Z M 12.695312 20.183594 "/>
<path style=" stroke:none;fill-rule:nonzero;fill:rgb(100%,80%,0%);fill-opacity:1;" d="M 10.871094 18.855469 L 12.109375 18.886719 L 12.039062 19.484375 Z M 10.871094 18.855469 "/>
<path style=" stroke:none;fill-rule:nonzero;fill:rgb(100%,80%,0%);fill-opacity:1;" d="M 10.871094 18.855469 L 11.890625 19.5625 L 12.1875 19.035156 Z M 10.871094 18.855469 "/>
<path style=" stroke:none;fill-rule:nonzero;fill:rgb(100%,80%,0%);fill-opacity:1;" d="M 11.304688 20.183594 L 11.710938 19.015625 L 12.261719 19.265625 Z M 11.304688 20.183594 "/>
<path style=" stroke:none;fill-rule:nonzero;fill:rgb(100%,80%,0%);fill-opacity:1;" d="M 11.304688 20.183594 L 12.289062 19.433594 L 11.878906 18.988281 Z M 11.304688 20.183594 "/>
<path style=" stroke:none;fill-rule:nonzero;fill:rgb(100%,80%,0%);fill-opacity:1;" d="M 4.890625 10.925781 L 4.535156 12.113281 L 5.125 12.230469 Z M 4.890625 10.925781 "/>
<path style=" stroke:none;fill-rule:nonzero;fill:rgb(100%,80%,0%);fill-opacity:1;" d="M 4.890625 10.925781 L 5.246094 12.113281 L 4.652344 12.230469 Z M 4.890625 10.925781 "/>
<path style=" stroke:none;fill-rule:nonzero;fill:rgb(100%,80%,0%);fill-opacity:1;" d="M 6.015625 11.746094 L 4.777344 11.773438 L 4.847656 12.375 Z M 6.015625 11.746094 "/>
<path style=" stroke:none;fill-rule:nonzero;fill:rgb(100%,80%,0%);fill-opacity:1;" d="M 6.015625 11.746094 L 5 12.449219 L 4.703125 11.921875 Z M 6.015625 11.746094 "/>
<path style=" stroke:none;fill-rule:nonzero;fill:rgb(100%,80%,0%);fill-opacity:1;" d="M 5.585938 13.070312 L 5.175781 11.902344 L 4.628906 12.15625 Z M 5.585938 13.070312 "/>
<path style=" stroke:none;fill-rule:nonzero;fill:rgb(100%,80%,0%);fill-opacity:1;" d="M 5.585938 13.070312 L 4.601562 12.320312 L 5.011719 11.878906 Z M 5.585938 13.070312 "/>
<path style=" stroke:none;fill-rule:nonzero;fill:rgb(100%,80%,0%);fill-opacity:1;" d="M 3.761719 11.746094 L 5 11.773438 L 4.929688 12.375 Z M 3.761719 11.746094 "/>
<path style=" stroke:none;fill-rule:nonzero;fill:rgb(100%,80%,0%);fill-opacity:1;" d="M 3.761719 11.746094 L 4.777344 12.449219 L 5.074219 11.921875 Z M 3.761719 11.746094 "/>
<path style=" stroke:none;fill-rule:nonzero;fill:rgb(100%,80%,0%);fill-opacity:1;" d="M 4.191406 13.070312 L 4.601562 11.902344 L 5.148438 12.15625 Z M 4.191406 13.070312 "/>
<path style=" stroke:none;fill-rule:nonzero;fill:rgb(100%,80%,0%);fill-opacity:1;" d="M 4.191406 13.070312 L 5.175781 12.320312 L 4.765625 11.878906 Z M 4.191406 13.070312 "/>
<path style=" stroke:none;fill-rule:nonzero;fill:rgb(100%,80%,0%);fill-opacity:1;" d="M 7.835938 6.964844 L 8.820312 6.214844 L 8.410156 5.773438 Z M 7.835938 6.964844 "/>
<path style=" stroke:none;fill-rule:nonzero;fill:rgb(100%,80%,0%);fill-opacity:1;" d="M 7.835938 6.964844 L 8.242188 5.796875 L 8.792969 6.050781 Z M 7.835938 6.964844 "/>
<path style=" stroke:none;fill-rule:nonzero;fill:rgb(100%,80%,0%);fill-opacity:1;" d="M 7.40625 5.640625 L 8.421875 6.347656 L 8.71875 5.820312 Z M 7.40625 5.640625 "/>
<path style=" stroke:none;fill-rule:nonzero;fill:rgb(100%,80%,0%);fill-opacity:1;" d="M 7.40625 5.640625 L 8.640625 5.667969 L 8.570312 6.269531 Z M 7.40625 5.640625 "/>
<path style=" stroke:none;fill-rule:nonzero;fill:rgb(100%,80%,0%);fill-opacity:1;" d="M 8.53125 4.824219 L 8.175781 6.007812 L 8.769531 6.125 Z M 8.53125 4.824219 "/>
<path style=" stroke:none;fill-rule:nonzero;fill:rgb(100%,80%,0%);fill-opacity:1;" d="M 8.53125 4.824219 L 8.886719 6.007812 L 8.292969 6.125 Z M 8.53125 4.824219 "/>
<path style=" stroke:none;fill-rule:nonzero;fill:rgb(100%,80%,0%);fill-opacity:1;" d="M 9.226562 6.964844 L 8.242188 6.214844 L 8.652344 5.773438 Z M 9.226562 6.964844 "/>
<path style=" stroke:none;fill-rule:nonzero;fill:rgb(100%,80%,0%);fill-opacity:1;" d="M 9.226562 6.964844 L 8.820312 5.796875 L 8.269531 6.050781 Z M 9.226562 6.964844 "/>
<path style=" stroke:none;fill-rule:nonzero;fill:rgb(100%,80%,0%);fill-opacity:1;" d="M 9.660156 5.640625 L 8.640625 6.347656 L 8.347656 5.820312 Z M 9.660156 5.640625 "/>
<path style=" stroke:none;fill-rule:nonzero;fill:rgb(100%,80%,0%);fill-opacity:1;" d="M 9.660156 5.640625 L 8.421875 5.667969 L 8.492188 6.269531 Z M 9.660156 5.640625 "/>
<path style=" stroke:none;fill-rule:nonzero;fill:rgb(100%,80%,0%);fill-opacity:1;" d="M 6.59375 9.601562 L 6.183594 8.433594 L 5.632812 8.6875 Z M 6.59375 9.601562 "/>
<path style=" stroke:none;fill-rule:nonzero;fill:rgb(100%,80%,0%);fill-opacity:1;" d="M 6.59375 9.601562 L 5.609375 8.851562 L 6.015625 8.410156 Z M 6.59375 9.601562 "/>
<path style=" stroke:none;fill-rule:nonzero;fill:rgb(100%,80%,0%);fill-opacity:1;" d="M 5.199219 9.601562 L 6.183594 8.851562 L 5.773438 8.410156 Z M 5.199219 9.601562 "/>
<path style=" stroke:none;fill-rule:nonzero;fill:rgb(100%,80%,0%);fill-opacity:1;" d="M 5.199219 9.601562 L 5.609375 8.433594 L 6.15625 8.6875 Z M 5.199219 9.601562 "/>
<path style=" stroke:none;fill-rule:nonzero;fill:rgb(100%,80%,0%);fill-opacity:1;" d="M 4.769531 8.277344 L 5.785156 8.980469 L 6.082031 8.457031 Z M 4.769531 8.277344 "/>
<path style=" stroke:none;fill-rule:nonzero;fill:rgb(100%,80%,0%);fill-opacity:1;" d="M 4.769531 8.277344 L 6.003906 8.304688 L 5.933594 8.90625 Z M 4.769531 8.277344 "/>
<path style=" stroke:none;fill-rule:nonzero;fill:rgb(100%,80%,0%);fill-opacity:1;" d="M 7.023438 8.277344 L 6.003906 8.980469 L 5.710938 8.457031 Z M 7.023438 8.277344 "/>
<path style=" stroke:none;fill-rule:nonzero;fill:rgb(100%,80%,0%);fill-opacity:1;" d="M 7.023438 8.277344 L 5.785156 8.304688 L 5.855469 8.90625 Z M 7.023438 8.277344 "/>
<path style=" stroke:none;fill-rule:nonzero;fill:rgb(100%,80%,0%);fill-opacity:1;" d="M 5.894531 7.460938 L 6.25 8.644531 L 5.660156 8.761719 Z M 5.894531 7.460938 "/>
<path style=" stroke:none;fill-rule:nonzero;fill:rgb(100%,80%,0%);fill-opacity:1;" d="M 5.894531 7.460938 L 5.539062 8.644531 L 6.132812 8.761719 Z M 5.894531 7.460938 "/>
<path style=" stroke:none;fill-rule:nonzero;fill:rgb(100%,80%,0%);fill-opacity:1;" d="M 7.023438 15.40625 L 5.785156 15.433594 L 5.855469 16.035156 Z M 7.023438 15.40625 "/>
<path style=" stroke:none;fill-rule:nonzero;fill:rgb(100%,80%,0%);fill-opacity:1;" d="M 7.023438 15.40625 L 6.007812 16.109375 L 5.710938 15.582031 Z M 7.023438 15.40625 "/>
<path style=" stroke:none;fill-rule:nonzero;fill:rgb(100%,80%,0%);fill-opacity:1;" d="M 6.59375 16.730469 L 6.183594 15.5625 L 5.636719 15.816406 Z M 6.59375 16.730469 "/>
<path style=" stroke:none;fill-rule:nonzero;fill:rgb(100%,80%,0%);fill-opacity:1;" d="M 6.59375 16.730469 L 5.609375 15.980469 L 6.019531 15.539062 Z M 6.59375 16.730469 "/>
<path style=" stroke:none;fill-rule:nonzero;fill:rgb(100%,80%,0%);fill-opacity:1;" d="M 5.199219 16.730469 L 6.183594 15.980469 L 5.773438 15.539062 Z M 5.199219 16.730469 "/>
<path style=" stroke:none;fill-rule:nonzero;fill:rgb(100%,80%,0%);fill-opacity:1;" d="M 5.199219 16.730469 L 5.609375 15.5625 L 6.15625 15.816406 Z M 5.199219 16.730469 "/>
<path style=" stroke:none;fill-rule:nonzero;fill:rgb(100%,80%,0%);fill-opacity:1;" d="M 5.898438 14.585938 L 6.253906 15.773438 L 5.660156 15.890625 Z M 5.898438 14.585938 "/>
<path style=" stroke:none;fill-rule:nonzero;fill:rgb(100%,80%,0%);fill-opacity:1;" d="M 5.898438 14.585938 L 5.542969 15.773438 L 6.132812 15.890625 Z M 5.898438 14.585938 "/>
<path style=" stroke:none;fill-rule:nonzero;fill:rgb(100%,80%,0%);fill-opacity:1;" d="M 4.769531 15.40625 L 6.007812 15.433594 L 5.9375 16.035156 Z M 4.769531 15.40625 "/>
<path style=" stroke:none;fill-rule:nonzero;fill:rgb(100%,80%,0%);fill-opacity:1;" d="M 4.769531 15.40625 L 5.785156 16.109375 L 6.082031 15.582031 Z M 4.769531 15.40625 "/>
<path style=" stroke:none;fill-rule:nonzero;fill:rgb(100%,80%,0%);fill-opacity:1;" d="M 9.597656 17.792969 L 8.359375 17.820312 L 8.429688 18.417969 Z M 9.597656 17.792969 "/>
<path style=" stroke:none;fill-rule:nonzero;fill:rgb(100%,80%,0%);fill-opacity:1;" d="M 9.597656 17.792969 L 8.578125 18.496094 L 8.28125 17.96875 Z M 9.597656 17.792969 "/>
<path style=" stroke:none;fill-rule:nonzero;fill:rgb(100%,80%,0%);fill-opacity:1;" d="M 9.164062 19.117188 L 8.757812 17.949219 L 8.207031 18.203125 Z M 9.164062 19.117188 "/>
<path style=" stroke:none;fill-rule:nonzero;fill:rgb(100%,80%,0%);fill-opacity:1;" d="M 9.164062 19.117188 L 8.179688 18.367188 L 8.589844 17.921875 Z M 9.164062 19.117188 "/>
<path style=" stroke:none;fill-rule:nonzero;fill:rgb(100%,80%,0%);fill-opacity:1;" d="M 7.773438 19.117188 L 8.757812 18.367188 L 8.347656 17.921875 Z M 7.773438 19.117188 "/>
<path style=" stroke:none;fill-rule:nonzero;fill:rgb(100%,80%,0%);fill-opacity:1;" d="M 7.773438 19.117188 L 8.179688 17.949219 L 8.730469 18.203125 Z M 7.773438 19.117188 "/>
<path style=" stroke:none;fill-rule:nonzero;fill:rgb(100%,80%,0%);fill-opacity:1;" d="M 8.46875 16.972656 L 8.824219 18.15625 L 8.230469 18.277344 Z M 8.46875 16.972656 "/>
<path style=" stroke:none;fill-rule:nonzero;fill:rgb(100%,80%,0%);fill-opacity:1;" d="M 8.46875 16.972656 L 8.113281 18.15625 L 8.707031 18.277344 Z M 8.46875 16.972656 "/>
<path style=" stroke:none;fill-rule:nonzero;fill:rgb(100%,80%,0%);fill-opacity:1;" d="M 7.339844 17.792969 L 8.578125 17.820312 L 8.507812 18.417969 Z M 7.339844 17.792969 "/>
<path style=" stroke:none;fill-rule:nonzero;fill:rgb(100%,80%,0%);fill-opacity:1;" d="M 7.339844 17.792969 L 8.359375 18.496094 L 8.65625 17.96875 Z M 7.339844 17.792969 "/>
<path style=" stroke:none;fill-rule:nonzero;fill:rgb(100%,80%,0%);fill-opacity:1;" d="M 19.109375 10.925781 L 19.464844 12.113281 L 18.875 12.230469 Z M 19.109375 10.925781 "/>
<path style=" stroke:none;fill-rule:nonzero;fill:rgb(100%,80%,0%);fill-opacity:1;" d="M 19.109375 10.925781 L 18.753906 12.113281 L 19.347656 12.230469 Z M 19.109375 10.925781 "/>
<path style=" stroke:none;fill-rule:nonzero;fill:rgb(100%,80%,0%);fill-opacity:1;" d="M 17.984375 11.746094 L 19.222656 11.773438 L 19.152344 12.375 Z M 17.984375 11.746094 "/>
<path style=" stroke:none;fill-rule:nonzero;fill:rgb(100%,80%,0%);fill-opacity:1;" d="M 17.984375 11.746094 L 19 12.449219 L 19.296875 11.921875 Z M 17.984375 11.746094 "/>
<path style=" stroke:none;fill-rule:nonzero;fill:rgb(100%,80%,0%);fill-opacity:1;" d="M 18.414062 13.070312 L 18.824219 11.902344 L 19.371094 12.15625 Z M 18.414062 13.070312 "/>
<path style=" stroke:none;fill-rule:nonzero;fill:rgb(100%,80%,0%);fill-opacity:1;" d="M 18.414062 13.070312 L 19.398438 12.320312 L 18.988281 11.878906 Z M 18.414062 13.070312 "/>
<path style=" stroke:none;fill-rule:nonzero;fill:rgb(100%,80%,0%);fill-opacity:1;" d="M 20.238281 11.746094 L 19 11.773438 L 19.070312 12.375 Z M 20.238281 11.746094 "/>
<path style=" stroke:none;fill-rule:nonzero;fill:rgb(100%,80%,0%);fill-opacity:1;" d="M 20.238281 11.746094 L 19.222656 12.449219 L 18.925781 11.921875 Z M 20.238281 11.746094 "/>
<path style=" stroke:none;fill-rule:nonzero;fill:rgb(100%,80%,0%);fill-opacity:1;" d="M 19.808594 13.070312 L 19.398438 11.902344 L 18.851562 12.15625 Z M 19.808594 13.070312 "/>
<path style=" stroke:none;fill-rule:nonzero;fill:rgb(100%,80%,0%);fill-opacity:1;" d="M 19.808594 13.070312 L 18.824219 12.320312 L 19.234375 11.878906 Z M 19.808594 13.070312 "/>
<path style=" stroke:none;fill-rule:nonzero;fill:rgb(100%,80%,0%);fill-opacity:1;" d="M 16.164062 6.964844 L 15.179688 6.214844 L 15.589844 5.773438 Z M 16.164062 6.964844 "/>
<path style=" stroke:none;fill-rule:nonzero;fill:rgb(100%,80%,0%);fill-opacity:1;" d="M 16.164062 6.964844 L 15.757812 5.796875 L 15.207031 6.050781 Z M 16.164062 6.964844 "/>
<path style=" stroke:none;fill-rule:nonzero;fill:rgb(100%,80%,0%);fill-opacity:1;" d="M 16.59375 5.640625 L 15.578125 6.347656 L 15.28125 5.820312 Z M 16.59375 5.640625 "/>
<path style=" stroke:none;fill-rule:nonzero;fill:rgb(100%,80%,0%);fill-opacity:1;" d="M 16.59375 5.640625 L 15.359375 5.667969 L 15.429688 6.269531 Z M 16.59375 5.640625 "/>
<path style=" stroke:none;fill-rule:nonzero;fill:rgb(100%,80%,0%);fill-opacity:1;" d="M 15.46875 4.824219 L 15.824219 6.007812 L 15.230469 6.125 Z M 15.46875 4.824219 "/>
<path style=" stroke:none;fill-rule:nonzero;fill:rgb(100%,80%,0%);fill-opacity:1;" d="M 15.46875 4.824219 L 15.113281 6.007812 L 15.707031 6.125 Z M 15.46875 4.824219 "/>
<path style=" stroke:none;fill-rule:nonzero;fill:rgb(100%,80%,0%);fill-opacity:1;" d="M 14.773438 6.964844 L 15.757812 6.214844 L 15.347656 5.773438 Z M 14.773438 6.964844 "/>
<path style=" stroke:none;fill-rule:nonzero;fill:rgb(100%,80%,0%);fill-opacity:1;" d="M 14.773438 6.964844 L 15.179688 5.796875 L 15.730469 6.050781 Z M 14.773438 6.964844 "/>
<path style=" stroke:none;fill-rule:nonzero;fill:rgb(100%,80%,0%);fill-opacity:1;" d="M 14.339844 5.640625 L 15.359375 6.347656 L 15.652344 5.820312 Z M 14.339844 5.640625 "/>
<path style=" stroke:none;fill-rule:nonzero;fill:rgb(100%,80%,0%);fill-opacity:1;" d="M 14.339844 5.640625 L 15.578125 5.667969 L 15.507812 6.269531 Z M 14.339844 5.640625 "/>
<path style=" stroke:none;fill-rule:nonzero;fill:rgb(100%,80%,0%);fill-opacity:1;" d="M 17.40625 9.601562 L 17.816406 8.433594 L 18.367188 8.6875 Z M 17.40625 9.601562 "/>
<path style=" stroke:none;fill-rule:nonzero;fill:rgb(100%,80%,0%);fill-opacity:1;" d="M 17.40625 9.601562 L 18.390625 8.851562 L 17.984375 8.410156 Z M 17.40625 9.601562 "/>
<path style=" stroke:none;fill-rule:nonzero;fill:rgb(100%,80%,0%);fill-opacity:1;" d="M 18.800781 9.601562 L 17.816406 8.851562 L 18.226562 8.410156 Z M 18.800781 9.601562 "/>
<path style=" stroke:none;fill-rule:nonzero;fill:rgb(100%,80%,0%);fill-opacity:1;" d="M 18.800781 9.601562 L 18.390625 8.433594 L 17.84375 8.6875 Z M 18.800781 9.601562 "/>
<path style=" stroke:none;fill-rule:nonzero;fill:rgb(100%,80%,0%);fill-opacity:1;" d="M 19.230469 8.277344 L 18.214844 8.980469 L 17.917969 8.457031 Z M 19.230469 8.277344 "/>
<path style=" stroke:none;fill-rule:nonzero;fill:rgb(100%,80%,0%);fill-opacity:1;" d="M 19.230469 8.277344 L 17.996094 8.304688 L 18.066406 8.90625 Z M 19.230469 8.277344 "/>
<path style=" stroke:none;fill-rule:nonzero;fill:rgb(100%,80%,0%);fill-opacity:1;" d="M 16.976562 8.277344 L 17.996094 8.980469 L 18.289062 8.457031 Z M 16.976562 8.277344 "/>
<path style=" stroke:none;fill-rule:nonzero;fill:rgb(100%,80%,0%);fill-opacity:1;" d="M 16.976562 8.277344 L 18.214844 8.304688 L 18.144531 8.90625 Z M 16.976562 8.277344 "/>
<path style=" stroke:none;fill-rule:nonzero;fill:rgb(100%,80%,0%);fill-opacity:1;" d="M 18.105469 7.460938 L 17.75 8.644531 L 18.339844 8.761719 Z M 18.105469 7.460938 "/>
<path style=" stroke:none;fill-rule:nonzero;fill:rgb(100%,80%,0%);fill-opacity:1;" d="M 18.105469 7.460938 L 18.460938 8.644531 L 17.867188 8.761719 Z M 18.105469 7.460938 "/>
<path style=" stroke:none;fill-rule:nonzero;fill:rgb(100%,80%,0%);fill-opacity:1;" d="M 16.976562 15.40625 L 18.214844 15.433594 L 18.144531 16.035156 Z M 16.976562 15.40625 "/>
<path style=" stroke:none;fill-rule:nonzero;fill:rgb(100%,80%,0%);fill-opacity:1;" d="M 16.976562 15.40625 L 17.992188 16.109375 L 18.289062 15.582031 Z M 16.976562 15.40625 "/>
<path style=" stroke:none;fill-rule:nonzero;fill:rgb(100%,80%,0%);fill-opacity:1;" d="M 17.40625 16.730469 L 17.816406 15.5625 L 18.363281 15.816406 Z M 17.40625 16.730469 "/>
<path style=" stroke:none;fill-rule:nonzero;fill:rgb(100%,80%,0%);fill-opacity:1;" d="M 17.40625 16.730469 L 18.390625 15.980469 L 17.980469 15.539062 Z M 17.40625 16.730469 "/>
<path style=" stroke:none;fill-rule:nonzero;fill:rgb(100%,80%,0%);fill-opacity:1;" d="M 18.800781 16.730469 L 17.816406 15.980469 L 18.226562 15.539062 Z M 18.800781 16.730469 "/>
<path style=" stroke:none;fill-rule:nonzero;fill:rgb(100%,80%,0%);fill-opacity:1;" d="M 18.800781 16.730469 L 18.390625 15.5625 L 17.84375 15.816406 Z M 18.800781 16.730469 "/>
<path style=" stroke:none;fill-rule:nonzero;fill:rgb(100%,80%,0%);fill-opacity:1;" d="M 18.101562 14.585938 L 17.746094 15.773438 L 18.339844 15.890625 Z M 18.101562 14.585938 "/>
<path style=" stroke:none;fill-rule:nonzero;fill:rgb(100%,80%,0%);fill-opacity:1;" d="M 18.101562 14.585938 L 18.457031 15.773438 L 17.867188 15.890625 Z M 18.101562 14.585938 "/>
<path style=" stroke:none;fill-rule:nonzero;fill:rgb(100%,80%,0%);fill-opacity:1;" d="M 19.230469 15.40625 L 17.992188 15.433594 L 18.0625 16.035156 Z M 19.230469 15.40625 "/>
<path style=" stroke:none;fill-rule:nonzero;fill:rgb(100%,80%,0%);fill-opacity:1;" d="M 19.230469 15.40625 L 18.214844 16.109375 L 17.917969 15.582031 Z M 19.230469 15.40625 "/>
<path style=" stroke:none;fill-rule:nonzero;fill:rgb(100%,80%,0%);fill-opacity:1;" d="M 14.402344 17.792969 L 15.640625 17.820312 L 15.570312 18.417969 Z M 14.402344 17.792969 "/>
<path style=" stroke:none;fill-rule:nonzero;fill:rgb(100%,80%,0%);fill-opacity:1;" d="M 14.402344 17.792969 L 15.421875 18.496094 L 15.71875 17.96875 Z M 14.402344 17.792969 "/>
<path style=" stroke:none;fill-rule:nonzero;fill:rgb(100%,80%,0%);fill-opacity:1;" d="M 14.835938 19.117188 L 15.242188 17.949219 L 15.792969 18.203125 Z M 14.835938 19.117188 "/>
<path style=" stroke:none;fill-rule:nonzero;fill:rgb(100%,80%,0%);fill-opacity:1;" d="M 14.835938 19.117188 L 15.820312 18.367188 L 15.410156 17.921875 Z M 14.835938 19.117188 "/>
<path style=" stroke:none;fill-rule:nonzero;fill:rgb(100%,80%,0%);fill-opacity:1;" d="M 16.226562 19.117188 L 15.242188 18.367188 L 15.652344 17.921875 Z M 16.226562 19.117188 "/>
<path style=" stroke:none;fill-rule:nonzero;fill:rgb(100%,80%,0%);fill-opacity:1;" d="M 16.226562 19.117188 L 15.820312 17.949219 L 15.269531 18.203125 Z M 16.226562 19.117188 "/>
<path style=" stroke:none;fill-rule:nonzero;fill:rgb(100%,80%,0%);fill-opacity:1;" d="M 15.53125 16.972656 L 15.175781 18.15625 L 15.769531 18.277344 Z M 15.53125 16.972656 "/>
<path style=" stroke:none;fill-rule:nonzero;fill:rgb(100%,80%,0%);fill-opacity:1;" d="M 15.53125 16.972656 L 15.886719 18.15625 L 15.292969 18.277344 Z M 15.53125 16.972656 "/>
<path style=" stroke:none;fill-rule:nonzero;fill:rgb(100%,80%,0%);fill-opacity:1;" d="M 16.660156 17.792969 L 15.421875 17.820312 L 15.492188 18.417969 Z M 16.660156 17.792969 "/>
<path style=" stroke:none;fill-rule:nonzero;fill:rgb(100%,80%,0%);fill-opacity:1;" d="M 16.660156 17.792969 L 15.640625 18.496094 L 15.34375 17.96875 Z M 16.660156 17.792969 "/>
</g>
</svg>
