<svg width="29" height="29" viewBox="0 0 29 29" fill="none" xmlns="http://www.w3.org/2000/svg">
<circle cx="14.334" cy="14.8457" r="14" fill="#AB47BC"/>
<path d="M15.584 8.8457C15.584 8.29342 15.1363 7.8457 14.584 7.8457C14.0317 7.8457 13.584 8.29342 13.584 8.8457V14.0957H8.33398C7.7817 14.0957 7.33398 14.5434 7.33398 15.0957C7.33398 15.648 7.7817 16.0957 8.33398 16.0957H13.584V21.3457C13.584 21.898 14.0317 22.3457 14.584 22.3457C15.1363 22.3457 15.584 21.898 15.584 21.3457V16.0957H20.834C21.3863 16.0957 21.834 15.648 21.834 15.0957C21.834 14.5434 21.3863 14.0957 20.834 14.0957H15.584V8.8457Z" fill="white"/>
</svg>
