<svg width="16" height="17" viewBox="0 0 16 17" fill="none" xmlns="http://www.w3.org/2000/svg">
<path d="M6.15334 12.2267V15.9134H4.58667V4.98004C4.58667 4.01337 4.87334 3.25337 5.44 2.68671C6 2.12004 6.78 1.83337 7.74 1.83337C8.66667 1.83337 9.38 2.06004 9.91334 2.50004C10.44 2.95337 10.7 3.58004 10.7 4.37337C10.7 4.92004 10.5267 5.43337 10.18 5.90671C9.83334 6.38004 9.38667 6.70671 8.83334 6.88671V6.91337C9.66667 7.04671 10.3133 7.34671 10.7533 7.83337C11.1933 8.30671 11.4133 8.91337 11.4133 9.66004C11.4133 10.54 11.1067 11.26 10.5 11.8134C9.88667 12.3667 9.08667 12.64 8.08667 12.64C7.38 12.64 6.73334 12.5 6.15334 12.2267V12.2267ZM7.14667 7.66671V6.38671C7.72667 6.31337 8.2 6.10004 8.58 5.74004C8.95334 5.37337 9.14 4.96671 9.14 4.50004C9.14 3.58004 8.66667 3.11337 7.73334 3.11337C7.22667 3.11337 6.83334 3.27337 6.56 3.60004C6.28667 3.92671 6.15334 4.38004 6.15334 4.97337V10.8334C6.76 11.1867 7.35334 11.36 7.92667 11.36C8.48667 11.36 8.92667 11.2134 9.24 10.9267C9.55334 10.6334 9.70667 10.22 9.70667 9.69337C9.70667 8.50004 8.85334 7.83337 7.14667 7.66671V7.66671Z" fill="white"/>
</svg>
