<?xml version="1.0" encoding="UTF-8"?>
<svg xmlns="http://www.w3.org/2000/svg" width="838" height="305" viewBox="0 0 838 305" fill="none"> <path d="M231.775 26.7547L234.011 23.4379L233.959 23.4026L233.905 23.3689L231.775 26.7547ZM232.46 277.811L234.609 281.186L234.651 281.158L234.693 281.13L232.46 277.811ZM605.582 26.7547L603.452 23.3689L603.4 23.4016L603.349 23.4359L605.582 26.7547ZM381.288 132.369C383.12 133.604 385.606 133.12 386.841 131.288C388.076 129.457 387.592 126.971 385.76 125.736L381.288 132.369ZM454.418 173.44C452.251 173.867 450.84 175.97 451.267 178.138L458.222 213.46C458.649 215.628 460.752 217.039 462.92 216.612C465.087 216.185 466.498 214.082 466.072 211.915L459.889 180.517L491.287 174.334C493.454 173.907 494.865 171.804 494.439 169.637C494.012 167.469 491.909 166.058 489.741 166.485L454.418 173.44ZM604.897 277.811L602.668 281.133L602.708 281.16L602.749 281.186L604.897 277.811ZM307.65 77.9036L305.414 81.2204L307.65 77.9036ZM366.792 112.948C364.96 111.714 362.474 112.198 361.239 114.029C360.004 115.861 360.488 118.347 362.32 119.582L366.792 112.948ZM324.382 94.0077C326.214 95.2425 328.7 94.7586 329.935 92.9268C331.17 91.095 330.686 88.6089 328.854 87.374L324.382 94.0077ZM152.658 297C72.7619 297 8.0002 232.301 8.0002 152.5H0C0 236.727 68.3515 305 152.658 305V297ZM8.0002 152.5C8.0002 72.6989 72.7619 8.0002 152.658 8.0002V0C68.3515 0 0 68.2725 0 152.5H8.0002ZM152.658 8.0002C180.961 8.0002 207.353 16.115 229.645 30.1404L233.905 23.3689C210.374 8.56406 182.511 0 152.658 0V8.0002ZM230.312 274.437C207.88 288.722 181.243 297 152.658 297V305C182.809 305 210.93 296.264 234.609 281.186L230.312 274.437ZM234.693 281.13L607.815 30.0735L603.349 23.4359L230.227 274.493L234.693 281.13ZM452.963 180.687L602.668 281.133L607.126 274.49L457.42 174.043L452.963 180.687ZM684.699 305C769.006 305 837.357 236.727 837.357 152.5H829.357C829.357 232.301 764.595 297 684.699 297V305ZM837.357 152.5C837.357 68.2725 769.006 0 684.699 0V8.0002C764.595 8.0002 829.357 72.6989 829.357 152.5H837.357ZM684.699 0C654.846 0 626.983 8.56406 603.452 23.3689L607.712 30.1404C630.005 16.115 656.397 8.0002 684.699 8.0002V0ZM602.749 281.186C626.427 296.264 654.548 305 684.699 305V297C656.114 297 629.478 288.722 607.046 274.437L602.749 281.186ZM229.539 30.0715L305.414 81.2204L309.886 74.5868L234.011 23.4379L229.539 30.0715ZM362.32 119.582L381.288 132.369L385.76 125.736L366.792 112.948L362.32 119.582ZM305.414 81.2204L324.382 94.0077L328.854 87.374L309.886 74.5868L305.414 81.2204Z" fill="#AB47BC"/> </svg>