<svg width="28" height="28" viewBox="0 0 28 28" fill="none" xmlns="http://www.w3.org/2000/svg">
<circle cx="14" cy="14" r="14" fill="#AB47BC"/>
<path d="M10.5372 9.12346C10.1467 8.73294 9.5135 8.73294 9.12297 9.12346C8.73245 9.51398 8.73245 10.1471 9.12297 10.5377L12.8353 14.25L9.12297 17.9623C8.73245 18.3528 8.73245 18.986 9.12297 19.3765C9.5135 19.767 10.1467 19.767 10.5372 19.3765L14.2495 15.6642L17.9618 19.3765C18.3523 19.767 18.9855 19.767 19.376 19.3765C19.7665 18.986 19.7665 18.3528 19.376 17.9623L15.6637 14.25L19.376 10.5377C19.7665 10.1471 19.7665 9.51398 19.376 9.12346C18.9855 8.73294 18.3523 8.73294 17.9618 9.12346L14.2495 12.8358L10.5372 9.12346Z" fill="white"/>
</svg>
