<svg width="24" height="24" viewBox="0 0 24 24" fill="none" xmlns="http://www.w3.org/2000/svg">
<circle cx="12" cy="12" r="12" fill="#D0D5DD"/>
<path d="M9.03159 7.82014C8.69686 7.48541 8.15415 7.48541 7.81941 7.82014C7.48468 8.15488 7.48468 8.69759 7.81941 9.03233L11.0014 12.2143L7.81941 15.3963C7.48468 15.731 7.48468 16.2737 7.81941 16.6085C8.15415 16.9432 8.69686 16.9432 9.03159 16.6085L12.2136 13.4265L15.3956 16.6085C15.7303 16.9432 16.273 16.9432 16.6077 16.6085C16.9425 16.2737 16.9425 15.731 16.6077 15.3963L13.4258 12.2143L16.6077 9.03233C16.9425 8.69759 16.9425 8.15488 16.6077 7.82014C16.273 7.48541 15.7303 7.48541 15.3956 7.82014L12.2136 11.0021L9.03159 7.82014Z" fill="white"/>
</svg>
