<svg width="28" height="28" viewBox="0 0 28 28" fill="none" xmlns="http://www.w3.org/2000/svg">
<rect width="28" height="28" rx="14" fill="#AB47BC"/>
<path d="M17.0779 7.58463C17.2368 7.39928 17.4255 7.25225 17.6332 7.15194C17.8409 7.05163 18.0635 7 18.2883 7C18.513 7 18.7356 7.05163 18.9433 7.15194C19.151 7.25225 19.3397 7.39928 19.4986 7.58463C19.6576 7.76998 19.7837 7.99003 19.8697 8.2322C19.9557 8.47437 20 8.73393 20 8.99606C20 9.25818 19.9557 9.51774 19.8697 9.75991C19.7837 10.0021 19.6576 10.2221 19.4986 10.4075L11.3286 19.9346L8 20.9932L8.90779 17.1117L17.0779 7.58463Z" stroke="white" stroke-width="1.66667" stroke-linecap="round" stroke-linejoin="round"/>
</svg>
