<svg width="22" height="21" viewBox="0 0 22 21" fill="none" xmlns="http://www.w3.org/2000/svg">
<g clip-path="url(#clip0_12528_46066)">
<path d="M7.6634 14.7126L10.9935 18.0492M10.9935 18.0492L14.3301 14.7191M10.9935 18.0492L11.0008 10.5492M18.3958 15.6314C19.1208 15.1226 19.6648 14.3961 19.9489 13.5572C20.233 12.7183 20.2424 11.8107 19.9757 10.9661C19.709 10.1215 19.1802 9.38389 18.4658 8.86025C17.7515 8.33662 16.8889 8.05422 16.0032 8.05405L14.9532 8.05303C14.7035 7.07601 14.2355 6.16836 13.5843 5.39842C12.933 4.62848 12.1156 4.01631 11.1936 3.60798C10.2715 3.19966 9.26885 3.00584 8.26105 3.04109C7.25325 3.07635 6.26658 3.33978 5.37532 3.81154C4.48406 4.2833 3.71144 4.9511 3.11561 5.76467C2.51979 6.57824 2.11629 7.51638 1.9355 8.50845C1.7547 9.50053 1.80133 10.5207 2.07185 11.4921C2.34238 12.4636 2.82976 13.361 3.49731 14.1169" stroke="#344054" stroke-width="1.67" stroke-linecap="round" stroke-linejoin="round"/>
</g>
<defs>
<clipPath id="clip0_12528_46066">
<rect width="20" height="20" fill="white" transform="translate(1.00977 0.539307) rotate(0.0558825)"/>
</clipPath>
</defs>
</svg>
