<svg width="25" height="24" viewBox="0 0 25 24" fill="none" xmlns="http://www.w3.org/2000/svg">
<path d="M7.16751 7.63689C7.06063 8.77689 6.98563 10.7944 7.65876 11.6531C7.65876 11.6531 7.34188 9.43689 10.1825 6.65626C11.3263 5.53689 11.5906 4.01439 11.1913 2.87251C10.9644 2.22564 10.55 1.69126 10.19 1.31814C9.98001 1.09876 10.1413 0.736887 10.4469 0.750012C12.2956 0.832512 15.2919 1.34626 16.565 4.54126C17.1238 5.94376 17.165 7.39314 16.8988 8.86689C16.73 9.80814 16.13 11.9006 17.4988 12.1575C18.4756 12.3413 18.9481 11.565 19.16 11.0063C19.2481 10.7738 19.5538 10.7156 19.7188 10.9013C21.3688 12.7781 21.5094 14.9888 21.1681 16.8919C20.5081 20.5706 16.7825 23.2481 13.0813 23.2481C8.45751 23.2481 4.77688 20.6025 3.82251 15.8138C3.43813 13.8806 3.63313 10.0556 6.61438 7.35564C6.83563 7.15314 7.19751 7.33314 7.16751 7.63689Z" fill="url(#paint0_radial_10521_12853)"/>
<path d="M14.7706 14.5162C13.0663 12.3225 13.8294 9.81937 14.2475 8.82187C14.3038 8.69062 14.1538 8.56687 14.0356 8.64749C13.3025 9.14624 11.8006 10.32 11.1013 11.9719C10.1544 14.205 10.2219 15.2981 10.7825 16.6331C11.12 17.4375 10.7281 17.6081 10.5313 17.6381C10.34 17.6681 10.1638 17.5406 10.0231 17.4075C9.61858 17.0191 9.33029 16.5256 9.19063 15.9825C9.16063 15.8662 9.00876 15.8344 8.93938 15.93C8.41438 16.6556 8.14251 17.82 8.12938 18.6431C8.08813 21.1875 10.19 23.25 12.7325 23.25C15.9369 23.25 18.2713 19.7062 16.43 16.7437C15.8956 15.8812 15.3931 15.3169 14.7706 14.5162Z" fill="url(#paint1_radial_10521_12853)"/>
<defs>
<radialGradient id="paint0_radial_10521_12853" cx="0" cy="0" r="1" gradientUnits="userSpaceOnUse" gradientTransform="translate(12.1655 23.3064) rotate(-179.751) scale(13.2352 21.7163)">
<stop offset="0.314" stop-color="#FF9800"/>
<stop offset="0.662" stop-color="#FF6D00"/>
<stop offset="0.972" stop-color="#F44336"/>
</radialGradient>
<radialGradient id="paint1_radial_10521_12853" cx="0" cy="0" r="1" gradientUnits="userSpaceOnUse" gradientTransform="translate(12.9087 10.1359) rotate(90.5787) scale(13.8481 10.4217)">
<stop offset="0.214" stop-color="#FFF176"/>
<stop offset="0.328" stop-color="#FFF27D"/>
<stop offset="0.487" stop-color="#FFF48F"/>
<stop offset="0.672" stop-color="#FFF7AD"/>
<stop offset="0.793" stop-color="#FFF9C4"/>
<stop offset="0.822" stop-color="#FFF8BD" stop-opacity="0.804"/>
<stop offset="0.863" stop-color="#FFF6AB" stop-opacity="0.529"/>
<stop offset="0.91" stop-color="#FFF38D" stop-opacity="0.209"/>
<stop offset="0.941" stop-color="#FFF176" stop-opacity="0"/>
</radialGradient>
</defs>
</svg>
