<svg width="540" height="639" viewBox="0 0 540 639" fill="none" xmlns="http://www.w3.org/2000/svg">
<g clip-path="url(#clip0_13035_304448)">
<path d="M207.313 161C196.094 161 187 170.094 187 181.313C187 192.532 196.094 201.626 207.313 201.626C218.532 201.626 227.626 192.532 227.626 181.313C227.626 170.094 218.532 161 207.313 161Z" fill="#40B3E0"/>
<path d="M217.198 172.685L213.569 190.978C213.569 190.978 213.062 192.246 211.667 191.637L203.294 185.218L200.25 183.747L195.125 182.022C195.125 182.022 194.338 181.743 194.262 181.134C194.186 180.525 195.15 180.195 195.15 180.195L215.523 172.203C215.523 172.203 217.198 171.467 217.198 172.685" fill="white"/>
<path d="M202.65 190.772C202.65 190.772 202.406 190.749 202.101 189.785C201.797 188.821 200.249 183.747 200.249 183.747L212.554 175.932C212.554 175.932 213.265 175.501 213.239 175.932C213.239 175.932 213.366 176.009 212.985 176.364C212.605 176.719 203.319 185.066 203.319 185.066" fill="#D2E5F1"/>
<path d="M206.504 187.679L203.192 190.699C203.192 190.699 202.934 190.895 202.65 190.772L203.285 185.164" fill="#B5CFE4"/>
</g>
<rect x="403" y="123" width="100" height="100" rx="50" fill="white"/>
<path d="M479.251 170.499C482.702 170.499 485.5 167.701 485.5 164.25V164.25C485.5 160.798 482.702 158 479.25 158V158C475.798 158 473 160.799 473 164.25V170.499H479.251ZM461.75 170.499C465.202 170.499 468 167.701 468 164.249V146.75C468 143.299 465.202 140.5 461.75 140.5V140.5C458.298 140.5 455.5 143.299 455.5 146.75V164.249C455.5 167.701 458.298 170.499 461.75 170.499V170.499Z" fill="#2EB67D"/>
<path d="M426.749 175.501C423.298 175.501 420.5 178.299 420.5 181.75V181.75C420.5 185.202 423.298 188 426.75 188V188C430.202 188 433 185.201 433 181.75V175.501H426.749ZM444.25 175.501C440.798 175.501 438 178.299 438 181.751V199.25C438 202.701 440.798 205.5 444.25 205.5V205.5C447.702 205.5 450.5 202.701 450.5 199.25V181.751C450.5 178.299 447.702 175.501 444.25 175.501V175.501Z" fill="#E01E5A"/>
<path d="M455.501 199.251C455.501 202.702 458.299 205.5 461.75 205.5V205.5C465.202 205.5 468 202.702 468 199.25V199.25C468 195.798 465.201 193 461.75 193L455.501 193L455.501 199.251ZM455.501 181.75C455.501 185.202 458.299 188 461.751 188L479.25 188C482.701 188 485.5 185.202 485.5 181.75V181.75C485.5 178.298 482.701 175.5 479.25 175.5L461.751 175.5C458.299 175.5 455.501 178.298 455.501 181.75V181.75Z" fill="#ECB22E"/>
<path d="M450.499 146.749C450.499 143.298 447.701 140.5 444.25 140.5V140.5C440.798 140.5 438 143.298 438 146.75V146.75C438 150.202 440.799 153 444.25 153L450.499 153L450.499 146.749ZM450.499 164.25C450.499 160.798 447.701 158 444.249 158L426.75 158C423.299 158 420.5 160.798 420.5 164.25V164.25C420.5 167.702 423.299 170.5 426.75 170.5L444.249 170.5C447.701 170.5 450.499 167.702 450.499 164.25V164.25Z" fill="#36C5F0"/>
<rect x="403.5" y="123.5" width="99" height="99" rx="49.5" stroke="#AB47BC" stroke-opacity="0.35"/>
<rect x="107" width="68" height="68" rx="34" fill="white"/>
<path fill-rule="evenodd" clip-rule="evenodd" d="M124.305 43.4824C123.933 44.1143 123.515 44.8475 123.16 45.4317C122.842 45.9908 123.013 46.7118 123.544 47.0532L130.99 51.8222C131.252 51.9902 131.567 52.0419 131.865 51.9657C132.163 51.8894 132.42 51.6917 132.577 51.4169C132.875 50.8982 133.258 50.2246 133.677 49.5033C136.627 44.4362 139.594 45.0562 144.944 47.7149L152.327 51.3692C152.607 51.5077 152.929 51.5225 153.219 51.4102C153.509 51.2979 153.743 51.068 153.868 50.7731L157.414 42.4272C157.664 41.8312 157.409 41.1361 156.841 40.8654C155.283 40.1023 152.184 38.5822 149.395 37.1813C139.359 32.1082 130.83 32.4361 124.305 43.4824Z" fill="url(#paint0_linear_13035_304448)"/>
<path fill-rule="evenodd" clip-rule="evenodd" d="M157.695 24.5433C158.067 23.9114 158.485 23.1781 158.84 22.5939C159.158 22.0349 158.987 21.3139 158.456 20.9724L151.01 16.2034C150.746 16.0187 150.421 15.9561 150.111 16.0307C149.802 16.1053 149.536 16.3104 149.377 16.5968C149.08 17.1155 148.696 17.7891 148.278 18.5104C145.328 23.5775 142.361 22.9576 137.01 20.2988L129.65 16.6624C129.37 16.5239 129.049 16.5091 128.758 16.6214C128.468 16.7337 128.234 16.9636 128.109 17.2585L124.563 25.6044C124.313 26.2004 124.568 26.8955 125.136 27.1662C126.694 27.9293 129.793 29.4494 132.583 30.8503C142.641 35.9174 151.17 35.5776 157.695 24.5433Z" fill="url(#paint1_linear_13035_304448)"/>
<rect x="107.5" y="0.5" width="67" height="67" rx="33.5" stroke="#AB47BC" stroke-opacity="0.35"/>
<rect x="426" y="388" width="114" height="114" rx="57" fill="white"/>
<path d="M504.667 480H461.333C458.5 480 456.333 477.833 456.333 475V415C456.333 412.167 458.5 410 461.333 410H493L509.667 426.667V475C509.667 477.833 507.5 480 504.667 480Z" fill="#43A047"/>
<path d="M509.666 426.667H492.999V410L509.666 426.667Z" fill="#C8E6C9"/>
<path d="M492.999 426.667L509.666 443.334V426.667H492.999Z" fill="#2E7D32"/>
<path d="M494.666 443.335H471.333H467.999V446.668V450.002V453.335V456.668V460.002V463.335V466.668H497.999V463.335V460.002V456.668V453.335V450.002V446.668V443.335H494.666ZM471.333 446.668H477.999V450.002H471.333V446.668ZM471.333 453.335H477.999V456.668H471.333V453.335ZM471.333 460.002H477.999V463.335H471.333V460.002ZM494.666 463.335H481.333V460.002H494.666V463.335ZM494.666 456.668H481.333V453.335H494.666V456.668ZM494.666 450.002H481.333V446.668H494.666V450.002Z" fill="#E8F5E9"/>
<rect x="426.5" y="388.5" width="113" height="113" rx="56.5" stroke="#AB47BC" stroke-opacity="0.35"/>
<rect y="528" width="111" height="111" rx="55.5" fill="#2979FF"/>
<path d="M83.1527 573.76C82.5024 565.999 75.9984 559.907 68.0854 559.907C66.2209 559.907 64.4215 560.254 62.7738 560.861C59.2834 555.918 53.5166 552.666 47.0127 552.666C36.368 552.666 27.7395 561.295 27.7395 571.939C27.7395 572.308 27.7611 572.676 27.7828 573.067C21.1271 575.798 16.4443 582.346 16.4443 589.977C16.4443 597.716 21.2572 604.307 28.043 606.974C30.1676 607.884 32.4873 608.404 34.9371 608.404H79.7057C89.3098 608.404 97.0928 600.621 97.0928 591.017V590.779C97.0494 582.389 91.0875 575.386 83.1527 573.76Z" fill="white"/>
<path fill-rule="evenodd" clip-rule="evenodd" d="M33.9702 571.843C37.6586 570.079 41.7278 569.017 45.8372 569.117C48.4231 569.177 51.1493 569.718 53.214 571.362C55.1584 572.865 56.1607 575.391 56.1206 577.817C56.2008 579.982 55.3589 582.106 54.0359 583.81C52.1315 586.256 49.5256 588 47.1201 589.904C44.9351 591.608 42.67 593.512 41.7479 596.219C46.6992 596.219 51.6504 596.219 56.6017 596.219C56.6017 598.143 56.6017 600.067 56.6017 601.992C48.7037 601.972 40.7857 602.032 32.8877 601.972C33.2084 598.905 33.9702 595.858 35.5337 593.192C37.0572 590.546 39.2622 588.361 41.6677 586.496C43.4718 585.053 45.4563 583.83 47.1602 582.247C48.1625 581.285 49.0645 580.022 49.0245 578.578C49.0645 577.436 48.5033 576.233 47.501 575.632C46.0978 574.73 44.3338 574.75 42.7301 574.91C40.2845 575.171 37.9592 576.053 35.7342 577.075C35.1328 575.331 34.5715 573.587 33.9702 571.843ZM55.9402 589.904C61.3525 583.009 66.7649 576.093 72.2173 569.217C73.841 569.237 75.4647 569.217 77.0884 569.217C77.0884 575.732 77.0884 582.267 77.0884 588.782C78.692 588.782 80.2957 588.782 81.8993 588.782C81.8993 590.606 81.8993 592.43 81.8993 594.254C80.2957 594.254 78.692 594.254 77.0884 594.254C77.0884 596.84 77.0884 599.406 77.0884 601.992C74.8834 601.992 72.6783 601.992 70.4733 601.992C70.4733 599.406 70.4733 596.84 70.4733 594.254C65.6223 594.254 60.7913 594.254 55.9402 594.254C55.9202 592.811 55.9402 591.348 55.9402 589.904ZM63.4974 588.922C65.8227 588.762 68.148 588.782 70.4733 588.782C70.4733 585.634 70.4332 582.487 70.754 579.36C68.3284 582.547 65.943 585.755 63.4974 588.922Z" fill="#21619A"/>
<circle cx="46.6667" cy="255.667" r="39.6667" fill="white"/>
<circle cx="46.6667" cy="255.667" r="39.1667" stroke="#AB47BC" stroke-opacity="0.35"/>
<path d="M24.0544 239.8H69.2576C72.1189 239.8 74.4337 242.133 74.4337 245.017V262.409C74.4337 265.294 72.1189 267.627 69.2576 267.627H53.0473L55.2732 273.12L45.4875 267.627H24.0767C21.2154 267.627 18.9005 265.294 18.9005 262.409V245.017C18.8783 242.158 21.1931 239.8 24.0544 239.8Z" fill="#9B5C8F"/>
<path d="M22.0616 244.555C22.377 244.123 22.8524 243.895 23.4833 243.85C24.6341 243.758 25.2894 244.305 25.4471 245.489C26.1469 250.245 26.9133 254.271 27.7264 257.572L32.6692 248.084C33.1202 247.22 33.6845 246.765 34.362 246.718C35.355 246.651 35.9637 247.287 36.2125 248.631C36.7768 251.656 37.4988 254.229 38.3563 256.412C38.9428 250.633 39.9358 246.468 41.3353 243.897C41.673 243.259 42.1706 242.941 42.826 242.896C43.3458 242.851 43.819 243.01 44.2477 243.351C44.6765 243.691 44.9031 244.123 44.9475 244.647C44.9697 245.057 44.9031 245.397 44.7209 245.74C43.8412 247.379 43.117 250.131 42.5305 253.953C41.9662 257.662 41.7641 260.552 41.8974 262.624C41.9418 263.193 41.8529 263.692 41.6264 264.126C41.3553 264.628 40.9488 264.899 40.429 264.946C39.8425 264.991 39.2316 264.717 38.6451 264.104C36.5458 261.943 34.8752 258.712 33.6556 254.41C32.1983 257.319 31.1142 259.505 30.4144 260.96C29.0815 263.531 27.953 264.852 27.0066 264.919C26.3979 264.964 25.8781 264.442 25.4271 263.349C24.2742 260.369 23.0324 254.612 21.7017 246.08C21.6106 245.487 21.7461 244.965 22.0616 244.555ZM70.5748 248.127C69.7617 246.694 68.5665 245.829 66.9626 245.487C66.5339 245.395 66.1273 245.35 65.743 245.35C63.577 245.35 61.8154 246.488 60.4381 248.763C59.2651 250.698 58.6764 252.836 58.6764 255.181C58.6764 256.932 59.0385 258.434 59.7605 259.686C60.5736 261.119 61.7687 261.983 63.3727 262.326C63.8014 262.418 64.2079 262.463 64.5923 262.463C66.7827 262.463 68.5421 261.325 69.8972 259.05C71.0702 257.093 71.6589 254.954 71.6589 252.61C71.6811 250.834 71.2968 249.356 70.5748 248.127ZM67.7313 254.43C67.4158 255.933 66.8515 257.048 66.0163 257.798C65.3609 258.389 64.7522 258.64 64.188 258.526C63.6459 258.412 63.1949 257.935 62.8551 257.048C62.584 256.343 62.4485 255.637 62.4485 254.977C62.4485 254.408 62.4929 253.839 62.6062 253.315C62.8084 252.382 63.1927 251.472 63.8036 250.608C64.5478 249.493 65.3387 249.038 66.1518 249.197C66.6938 249.312 67.1448 249.788 67.4847 250.675C67.7557 251.381 67.8912 252.086 67.8912 252.747C67.889 253.338 67.8423 253.906 67.7313 254.43ZM56.4438 248.127C55.6307 246.694 54.4111 245.829 52.8316 245.487C52.4029 245.395 51.9963 245.35 51.612 245.35C49.446 245.35 47.6844 246.488 46.3071 248.763C45.1341 250.698 44.5454 252.836 44.5454 255.181C44.5454 256.932 44.9075 258.434 45.6295 259.686C46.4426 261.119 47.6377 261.983 49.2417 262.326C49.6704 262.418 50.077 262.463 50.4613 262.463C52.6517 262.463 54.4111 261.325 55.7662 259.05C56.9392 257.093 57.5279 254.954 57.5279 252.61C57.5257 250.834 57.1658 249.356 56.4438 248.127ZM53.5758 254.43C53.2604 255.933 52.6961 257.048 51.8608 257.798C51.2055 258.389 50.5968 258.64 50.0325 258.526C49.4905 258.412 49.0395 257.935 48.6996 257.048C48.4286 256.343 48.2931 255.637 48.2931 254.977C48.2931 254.408 48.3375 253.839 48.4508 253.315C48.653 252.382 49.0373 251.472 49.6482 250.608C50.3924 249.493 51.1833 249.038 51.9963 249.197C52.5384 249.312 52.9894 249.788 53.3292 250.675C53.6003 251.381 53.7358 252.086 53.7358 252.747C53.7558 253.338 53.6891 253.906 53.5758 254.43Z" fill="white"/>
<defs>
<linearGradient id="paint0_linear_13035_304448" x1="157.213" y1="54.2843" x2="148.3" y2="34.6354" gradientUnits="userSpaceOnUse">
<stop offset="0.18" stop-color="#0052CC"/>
<stop offset="1" stop-color="#2684FF"/>
</linearGradient>
<linearGradient id="paint1_linear_13035_304448" x1="124.787" y1="13.7354" x2="133.714" y2="33.3934" gradientUnits="userSpaceOnUse">
<stop offset="0.18" stop-color="#0052CC"/>
<stop offset="1" stop-color="#2684FF"/>
</linearGradient>
<clipPath id="clip0_13035_304448">
<rect width="40.6263" height="40.6263" fill="white" transform="translate(187 161)"/>
</clipPath>
</defs>
</svg>
