<svg width="25" height="24" viewBox="0 0 25 24" fill="none" xmlns="http://www.w3.org/2000/svg">
<path fill-rule="evenodd" clip-rule="evenodd" d="M22.125 12C22.125 17.5228 17.6478 22 12.125 22C6.60215 22 2.125 17.5228 2.125 12C2.125 6.47715 6.60215 2 12.125 2C17.6478 2 22.125 6.47715 22.125 12ZM13.379 10.6221C13.1794 10.3988 13.1976 10.0486 13.4447 9.87931C14.1516 9.39526 14.9879 9 15.8364 9C16.7084 9.00071 17.5444 9.31699 18.1609 9.8794C18.7775 10.4418 19.1242 11.2044 19.125 11.9998C19.1241 12.7951 18.7773 13.5576 18.1608 14.12C17.5443 14.6824 16.7083 14.9987 15.8364 14.9996C13.7722 14.9996 11.7752 12.6593 11.5545 12.3926C11.1042 11.8503 9.56095 10.3039 8.41407 10.3039C7.38884 10.3039 6.55492 11.0646 6.55492 11.9998C6.55492 12.935 7.38884 13.6957 8.41407 13.6957C8.87895 13.6957 9.40857 13.4414 9.90433 13.1031C10.1157 12.9588 10.404 12.9754 10.5692 13.1707C10.5706 13.1724 10.572 13.174 10.5734 13.1757C10.6449 13.2604 10.718 13.344 10.7925 13.4264C10.9958 13.6509 10.9768 14.0061 10.7248 14.1741C10.0355 14.6335 9.23073 15 8.41407 15C6.60054 15 5.125 13.6545 5.125 12.0002C5.125 10.346 6.60054 9 8.41407 9C10.4783 9 12.4752 11.3402 12.696 11.6069C13.1463 12.1492 14.69 13.6957 15.8364 13.6957C16.8617 13.6957 17.6956 12.935 17.6956 11.9998C17.6956 11.0646 16.8617 10.3039 15.8364 10.3039C15.3496 10.3039 14.7917 10.5835 14.2758 10.9462C14.0656 11.0941 13.7747 11.0804 13.6069 10.8858C13.588 10.8639 13.5705 10.8432 13.5544 10.8238C13.497 10.7559 13.4385 10.6886 13.379 10.6221Z" fill="#AB47BC"/>
</svg>
