<svg width="561" height="536" viewBox="0 0 561 536" fill="none" xmlns="http://www.w3.org/2000/svg">
<path opacity="0.2" d="M376.697 321.091L381.114 319.829L384.059 251.869C389.737 253.342 396.047 249.975 396.047 249.975C399.412 236.088 386.372 174.019 386.372 174.019L358.61 160.763L352.816 156.133C347.348 144.141 356.393 148.138 359.45 135.303C359.45 135.303 359.826 133.572 360.27 130.874C360.348 130.875 360.423 130.883 360.502 130.883C363.755 130.883 366.391 128.622 366.391 125.834C366.391 123.833 365.031 122.109 363.063 121.294C364.062 120.422 364.689 119.243 364.746 117.969C366 116.95 366.728 115.464 366.562 113.889C366.483 113.133 366.2 112.442 365.775 111.842C367.173 110.823 368 109.248 367.824 107.578C367.631 105.735 366.268 104.262 364.431 103.638C364.998 102.881 365.33 101.979 365.33 101.008C365.33 98.3356 362.835 96.1688 359.757 96.1688C359.717 96.1688 359.68 96.1725 359.64 96.1743C359.515 93.5974 357.077 91.541 354.078 91.541C353.532 91.541 353.008 91.6128 352.509 91.7397C351.864 89.687 349.707 88.175 347.139 88.175C345.221 88.175 343.529 89.0175 342.526 90.2977C341.507 89.137 339.904 88.3848 338.094 88.3848C336.219 88.3848 334.564 89.1904 333.555 90.4227C332.575 89.6796 331.297 89.2253 329.892 89.2253C327.566 89.2253 325.575 90.4632 324.74 92.2198C324.177 92.0542 323.578 91.9604 322.951 91.9604C319.873 91.9604 317.378 94.1272 317.378 96.7997C317.378 97.8169 317.742 98.7605 318.36 99.5403C316.086 100.151 314.434 101.989 314.434 104.164C314.434 105.561 315.12 106.815 316.209 107.698C314.697 108.564 313.699 110.049 313.699 111.739C313.699 113.363 314.622 114.796 316.036 115.673C314.504 116.536 313.487 118.031 313.487 119.734C313.487 121.815 315.001 123.582 317.123 124.267C317.031 124.703 316.968 125.153 316.968 125.626C316.968 128.53 318.805 130.886 321.068 130.886C321.489 130.886 321.894 130.804 322.274 130.655C322.905 133.386 323.617 135.781 324.328 136.778C324.328 136.778 333.047 147.718 329.261 154.871C328.844 155.661 293.2 177.385 293.2 177.385C278.897 201.37 305.818 256.707 305.818 256.707L304.976 316.25L313.39 317.512C313.39 317.512 314.442 375.583 311.496 384.629C308.551 393.677 304.346 461.637 301.4 468.369C298.456 475.101 302.452 473.839 303.082 478.257C303.713 482.675 297.193 485.622 301.19 494.879C305.186 504.137 322.223 499.088 323.905 496.353C325.588 493.618 318.226 481.204 319.91 478.89C321.594 476.576 320.962 476.155 320.752 472.368C320.541 468.581 320.752 464.793 320.752 464.793C321.173 442.701 333.161 387.576 333.161 387.576C336.526 381.684 349.566 318.143 349.566 318.143L342.834 387.576C335.684 410.089 343.255 459.744 344.307 462.479C345.359 465.215 346.62 469.423 345.78 475.524C344.94 481.625 347.883 484.36 347.883 484.36L343.046 493.827C352.931 501.823 389.739 496.353 389.739 496.353C389.739 496.353 393.734 487.726 380.906 488.147C368.076 488.569 365.341 480.783 365.341 480.783C368.497 477.205 364.08 471.316 365.553 469.631C367.026 467.948 364.08 406.931 368.708 390.309C373.33 373.691 376.697 321.091 376.697 321.091Z" fill="#AB47BC"/>
<path opacity="0.2" d="M459.026 118.099C459.026 118.099 461.556 104.698 481.287 109.02C501.018 113.343 525.301 159.599 497.477 176.026L517.713 186.834C517.713 186.834 543.515 230.494 537.444 251.244C537.444 251.244 529.855 255.566 518.219 249.947L520.749 271.561L515.183 273.29C515.183 273.29 523.782 321.275 488.875 392.603L493.428 469.982L503.04 489.003C503.04 489.003 522.771 495.919 510.123 497.215C497.475 498.512 490.898 496.351 489.887 493.757C488.875 491.164 485.84 478.195 485.84 478.195C485.84 478.195 483.817 495.919 483.31 494.622C482.804 493.325 479.263 474.305 479.263 474.305L483.31 464.793L473.697 427.616L461.556 458.31C461.556 458.31 459.026 483.384 461.051 485.112C463.073 486.841 472.686 489.867 466.109 492.028C459.532 494.19 447.897 493.325 448.403 489.435C448.608 487.855 449.397 483.499 450.261 478.881C451.526 472.119 452.955 464.795 452.955 464.795L446.884 479.493C446.884 479.493 446.378 459.608 452.449 454.421C458.521 449.234 452.449 402.114 469.65 388.28L468.639 368.395C468.639 368.395 461.556 339.863 449.921 323.006C438.284 306.146 459.026 272.86 459.026 272.86L457.509 268.97C457.509 268.97 453.463 271.995 445.874 258.162C438.286 244.328 420.578 197.642 436.262 188.563C451.946 179.486 460.039 178.187 460.039 178.187C460.039 178.187 442.333 172.568 442.839 158.302C443.343 144.038 448.403 114.209 459.026 118.099Z" fill="#AB47BC"/>
<path opacity="0.2" d="M90.8104 380.204C90.8104 380.204 91.9467 371.871 92.6362 359.482C89.003 361.391 88.9148 361.391 92.548 359.482C93.881 335.524 93.5831 296.394 80.1057 272.977L85.0499 272.275C86.5778 272.056 87.841 270.951 88.2455 269.461C88.4386 268.751 88.8339 268.112 89.3781 267.618C94.3903 263.058 120.527 238.981 124.311 229.372C124.311 229.372 105.948 191.664 88.229 181.996L78.2432 178.128C78.2432 178.128 92.741 158.147 91.1304 137.197C89.5197 116.249 76.8752 89.6594 58.8728 104.082C58.8728 104.082 47.9401 95.6612 38.596 113.065C29.2538 130.469 33.7732 182.337 33.7732 182.337C33.7732 182.337 16.7031 202.63 18.6355 247.751C18.6355 247.751 6.07373 299.633 5.10659 300.601C4.13946 301.568 -2.94677 312.201 1.88708 321.869C6.71909 331.538 9.29689 324.768 9.29689 324.768C9.29689 324.768 14.7743 318.645 11.5529 311.554C11.5529 311.554 12.5274 305.107 10.9168 301.885L29.6105 254.83V262.405C29.6105 262.405 11.0087 295.224 25.1664 361.343C25.2087 361.36 25.1719 361.38 25.2142 361.396C26.5215 367.492 28.0549 373.862 29.958 380.524C29.958 380.524 39.28 427.578 40.2471 482.044L30.2485 501.381C30.2485 501.381 19.2901 502.671 23.4785 504.926C27.667 507.183 36.6856 505.248 36.6856 505.248L42.1612 492.356L43.4483 505.248C46.3478 504.926 49.2474 485.589 49.2474 485.589L44.7371 479.788C44.7371 479.788 61.0645 419.803 49.5692 379.556C49.389 378.925 50.1649 374.371 51.2332 367.694C56.4421 368.13 62.1309 368.106 67.9301 367.315C69.8625 367.056 70.0519 367.056 68.1048 367.315C70.7616 376.356 73.4884 383.632 75.9853 386.647L103.692 477.854L102.081 499.77C102.081 499.77 96.2823 501.703 101.114 503.315C105.946 504.926 112.391 504.604 112.391 501.058C112.391 497.511 108.848 477.853 108.848 476.563C108.848 475.274 109.173 400.185 90.8104 380.204ZM73.6465 260.742L90.165 214.225L109.173 232.273L85.0113 263.212L73.6465 260.742Z" fill="#AB47BC"/>
<path opacity="0.2" d="M266.759 496.305C250.066 494.979 237.613 484.642 237.613 484.642L245.032 312.087L249.007 311.558L247.683 254.569C251.255 255.134 254.161 255.331 256.422 255.351C260.009 255.382 263.144 252.923 263.959 249.427C270.876 219.758 262.256 190.15 258.13 178.562C256.988 175.354 254.582 172.761 251.471 171.38L228.702 161.282L225.691 156.762L224.968 149.712C224.753 147.624 225.453 145.544 226.884 144.008C227.835 142.989 228.473 141.72 228.721 140.348L230.267 131.843C230.287 131.843 230.308 131.847 230.328 131.847C233.181 131.847 235.494 129.295 235.494 126.148C235.494 124.009 234.424 122.148 232.843 121.173C240.781 96.6268 227.811 91.5576 227.811 91.5576C203.434 81.4854 194.426 97.1235 194.426 97.1235C187.537 96.064 188.331 105.605 188.331 105.605L187.917 116.563C187.866 117.912 187.943 119.258 188.121 120.592C185.816 121.164 184.091 123.432 184.091 126.146C184.091 129.294 186.404 131.845 189.258 131.845C189.693 131.845 190.112 131.779 190.517 131.668L192.472 140.308C192.711 141.363 193.211 142.344 193.928 143.155L195.395 144.819C196.298 145.842 196.734 147.196 196.597 148.553L195.75 157.027L192.571 161.004L169.176 171.381C166.063 172.763 163.658 175.356 162.516 178.564C158.39 190.152 149.77 219.758 156.687 249.428C157.502 252.923 160.637 255.384 164.224 255.353C166.486 255.333 169.391 255.136 172.965 254.571L171.639 311.56L175.615 312.089L183.034 484.643C183.034 484.643 170.58 494.981 153.887 496.307C153.887 496.307 149.382 496.572 150.973 501.343C150.973 501.343 158.392 505.053 179.058 503.199C199.725 501.343 204.495 501.608 204.495 501.608L198.931 485.97L201.051 480.669L198.401 472.452L210.325 322.213L222.249 472.452L219.599 480.669L221.719 485.97L216.155 501.608C216.155 501.608 220.925 501.343 241.591 503.199C262.258 505.055 269.677 501.343 269.677 501.343C271.262 496.57 266.759 496.305 266.759 496.305Z" fill="#AB47BC"/>
<path d="M288.225 290.883C288.225 290.883 294.863 346.22 291.174 376.47C287.486 406.72 295.6 447.301 292.649 463.531C289.698 479.764 286.011 516.653 290.437 521.081C290.437 521.081 276.425 529.196 271.262 521.081C271.262 521.081 260.198 453.202 257.249 429.592C254.3 405.982 242.498 317.444 239.548 316.706C236.599 315.968 246.923 410.409 244.711 429.592C242.499 448.776 239.548 501.898 241.762 513.703C241.762 513.703 224.061 518.868 218.898 512.966C218.898 512.966 220.373 453.941 218.898 439.184C217.424 424.427 198.246 329.248 207.098 299.736C215.945 270.224 261.673 215.625 288.225 290.883Z" fill="#506AC1"/>
<path d="M296.338 327.773C296.338 327.773 251.348 325.314 238.072 297.031C224.797 268.747 238.072 297.031 238.072 297.031C238.072 297.031 214.495 327.611 200.481 317.284C186.468 306.954 244.71 265.059 244.71 265.059C244.71 265.059 302.975 296.786 296.338 327.773Z" fill="#20367B"/>
<path d="M271.631 130.776H241.391L207.094 150.698L201.563 204.56C201.563 204.56 206.726 291.623 199.351 307.853C191.977 324.084 227.378 305.641 231.067 300.476C234.755 295.311 238.441 285.719 238.441 285.719C238.441 285.719 234.753 300.476 256.142 309.328C277.532 318.183 303.345 322.608 301.87 319.658C300.395 316.706 293.019 279.079 291.544 270.224C290.069 261.369 292.281 218.577 292.281 218.577C292.281 218.577 316.989 150.698 271.631 130.776Z" fill="#506AC1"/>
<path d="M238.809 510.753C238.809 511.491 243.235 525.51 240.284 526.248C237.335 526.985 229.958 526.985 228.484 526.248C227.009 525.51 225.534 525.51 222.583 526.985C219.632 528.46 193.082 529.198 191.605 526.985C190.131 524.772 212.257 519.608 221.107 511.491C229.96 503.375 238.809 510.753 238.809 510.753Z" fill="#3D0043"/>
<path d="M286.011 519.607C286.011 519.607 300.762 529.2 300.023 532.15C299.286 535.1 280.846 537.315 273.471 535.1C266.096 532.886 262.408 532.15 267.571 526.246C272.734 520.345 277.897 515.918 286.011 519.607Z" fill="#3D0043"/>
<path d="M291.175 176.89C290.135 176.826 283.801 203.857 277.163 204.022C270.525 204.188 257.248 204.188 257.248 204.188L255.036 200.498C255.036 200.498 226.076 198.867 222.584 198.285C213.733 196.81 211.521 166.928 211.521 166.928C211.521 166.928 198.246 191.645 196.769 196.81C195.295 201.975 202.669 214.027 202.669 214.027C202.669 214.027 283.061 230.75 290.438 216.732C297.813 202.715 302.976 177.628 291.175 176.89Z" fill="#20367B"/>
<path d="M269.048 113.069C269.048 113.806 269.048 127.086 271.999 130.776C274.948 134.466 257.247 135.203 257.247 135.203L244.211 126.209C244.211 126.209 246.921 113.806 246.184 107.904C245.447 102.001 269.048 113.069 269.048 113.069Z" fill="#FDAB7D"/>
<path d="M271.26 125.611L274.211 135.203L258.722 189.802L246.153 225.673L238.07 160.29L239.791 134.219L243.233 125.611L256.51 133.728L271.26 125.611Z" fill="#FDFEFD"/>
<path d="M235.123 88.3516C236.743 98.9573 245.508 119.709 258.724 119.709C271.758 119.709 282.325 105.669 282.325 88.3516C282.325 71.0342 280.851 56.9945 258.724 56.9945C254.49 56.9945 246.217 56.7996 240.622 62.6137C236.219 67.1919 235.509 73.3371 234.946 78.2187C234.875 78.8404 234.371 83.4369 235.123 88.3516Z" fill="#FDAB7D"/>
<path d="M282.315 86.5067L284.535 83.5565C284.535 83.5565 286.009 65.1115 282.323 59.9466C278.634 54.7818 266.091 44.4907 256.508 42.9769C242.495 40.7642 250.608 55.5194 243.233 52.5691C235.858 49.6188 227.007 58.4715 229.958 68.0637C232.907 77.6558 235.121 87.9856 235.121 87.9856C235.121 87.9856 234.383 71.0158 238.07 72.491C241.758 73.9661 249.87 80.6061 260.196 71.7534C265.479 67.2213 280.833 62.1557 282.315 86.5067Z" fill="#37344B"/>
<path d="M280.586 88.1677C279.573 91.8519 280.346 95.2786 282.309 95.8194C284.275 96.3601 286.687 93.8108 287.7 90.1248C288.713 86.4406 287.941 83.0139 285.976 82.4731C284.012 81.9342 281.598 84.4835 280.586 88.1677Z" fill="#FDAB7D"/>
<path d="M237.595 88.1677C238.608 91.8519 237.836 95.2786 235.872 95.8194C233.906 96.3601 231.494 93.8108 230.481 90.1248C229.468 86.4406 230.24 83.0139 232.204 82.4731C234.169 81.9342 236.583 84.4835 237.595 88.1677Z" fill="#FDAB7D"/>
<path d="M257.248 133.728C257.248 133.728 263.148 141.106 261.674 141.843C260.199 142.581 258.724 144.796 256.511 144.796C254.297 144.796 251.348 141.106 251.348 141.106L257.248 133.728Z" fill="#AB47BC"/>
<path d="M256.512 144.796L256.88 173.916L249.689 206.219L245.449 197.18L246.187 172.833L256.512 144.796Z" fill="#AB47BC"/>
<path d="M271.999 129.301C271.999 129.301 291.175 152.911 286.751 153.648C282.325 154.386 274.951 157.338 276.425 161.026C277.9 164.716 285.276 174.306 273.474 180.948C261.672 187.59 243.235 225.217 241.023 264.322C241.023 264.322 245.313 172.411 271.999 129.301Z" fill="#6181D8"/>
<path d="M241.759 129.301C241.759 129.301 218.241 148.612 222.374 150.36C226.507 152.107 232.994 156.692 230.703 159.937C228.412 163.182 219.009 170.796 228.944 179.999C238.878 189.201 248.069 230.086 241.134 268.635C241.134 268.633 257.698 177.436 241.759 129.301Z" fill="#6181D8"/>
<path d="M202.676 229.107C203.865 228.863 205.062 228.613 206.263 228.353C210.319 227.48 214.283 226.554 218.156 225.587C226.275 229.297 235.136 232.942 244.721 236.34C261.346 242.231 276.916 246.23 290.847 248.965C291.055 246.198 291.265 243.434 291.472 240.668C284.489 236.625 277.506 232.58 270.521 228.537C248.148 222.144 225.777 215.748 203.404 209.355C203.163 215.938 202.92 222.522 202.676 229.107Z" fill="#20367B"/>
<path d="M246.833 202.014L256.88 202.345L251.856 216.51L241.391 215.625L246.833 202.014Z" fill="white"/>
<path d="M256.086 204.581C256.086 204.581 276.189 200.003 284.236 205.233C292.282 210.46 283.433 223.004 272.37 220.79C261.306 218.577 250.98 217.1 250.98 217.1L256.086 204.581Z" fill="#FDAB7D"/>
<path d="M277.9 135.941C273.487 130.29 271.575 130.896 274.95 131.514C282.824 132.958 307.103 146.675 312.934 156.599C319.286 167.412 321.046 223.74 301.133 238.497C284.528 250.802 214.102 222.265 214.102 222.265L231.802 214.887C231.802 214.887 264.255 217.1 273.842 219.315C283.43 221.527 288.031 184.176 289.698 180.21C301.503 152.173 277.9 135.941 277.9 135.941Z" fill="#506AC1"/>
<path d="M238.069 132.253C238.069 132.253 205.249 144.058 196.398 156.6C187.546 169.143 174.271 207.51 176.483 217.102C178.695 226.694 204.51 230.351 241.388 215.61L247.288 200.87C247.288 200.87 212.499 206.603 211.886 202.345C204.879 153.648 238.069 132.253 238.069 132.253Z" fill="#506AC1"/>
<path d="M218.898 203.049C218.898 203.049 213.073 193.06 203.406 189.435C197.505 187.222 188.286 189.065 187.549 194.967C186.812 200.87 195.301 204.742 201.751 203.912C208.199 203.083 218.898 203.049 218.898 203.049Z" fill="#FDAB7D"/>
<path d="M281.56 80.4407C281.56 80.4407 279.295 102.342 270.188 102.342C261.083 102.342 257.771 98.2013 248.666 102.342C239.561 106.482 235.091 82.2635 235.091 82.2635L233.766 81.6399C233.766 81.6399 237.077 90.7483 235.42 95.7164C235.42 95.7164 234.593 112.278 237.075 114.761C239.559 117.244 256.94 126.352 261.079 125.525C265.218 124.697 282.601 113.931 283.428 111.448C284.255 108.965 282.601 94.8868 282.601 94.8868C282.601 94.8868 281.773 85.7784 283.428 80.8104C285.086 75.8441 281.56 80.4407 281.56 80.4407Z" fill="#37344B"/>
<path d="M516.8 481.866L340.676 308.479L375.213 273.371L551.335 446.759C561.027 456.299 561.152 471.893 551.615 481.586C542.079 491.282 526.491 491.407 516.8 481.866Z" fill="#AB47BC"/>
<path d="M506.483 481.949L392.102 369.342L436.871 323.833L551.253 436.44C563.815 448.808 563.976 469.02 551.615 481.588C539.252 494.153 519.045 494.315 506.483 481.949Z" fill="#3D0043"/>
<path d="M134.218 292.07C67.206 226.098 66.3381 117.888 132.287 50.8493C198.235 -16.1874 306.407 -17.0537 373.419 48.918C440.431 114.89 441.297 223.102 375.35 290.139C309.4 357.177 201.23 358.043 134.218 292.07ZM356.788 65.8215C299.093 9.02265 205.963 9.76759 149.183 67.4843C92.4031 125.201 93.1496 218.367 150.845 275.166C208.54 331.965 301.671 331.22 358.451 273.504C415.23 215.787 414.484 122.622 356.788 65.8215Z" fill="#AB47BC"/>
</svg>
