<svg width="608" height="586" viewBox="0 0 608 586" fill="none" xmlns="http://www.w3.org/2000/svg">
<path d="M47.088 430.913C22.2679 419.989 1.65721 396.417 0.641128 369.34C24.2697 386.975 53.3815 395.692 82.8259 393.947C94.179 393.234 106.732 391.259 115.966 397.894C121.712 402.023 124.993 408.896 126.246 415.855C127.499 422.815 126.947 429.957 126.392 437.007L127.08 438.633C100.17 442.028 71.9082 441.838 47.088 430.913Z" fill="#F0F0F0"/>
<path d="M1.20193 369.242C12.9516 388.353 30.4302 403.278 51.1554 411.899C55.5841 413.833 60.2904 415.059 65.1012 415.53C69.8023 415.837 74.5003 414.881 78.7068 412.761C82.6687 410.863 86.5013 408.463 90.856 407.56C93.0918 407.131 95.3933 407.179 97.6092 407.701C99.8251 408.223 101.906 409.207 103.714 410.588C108.31 413.913 111.436 418.69 114.33 423.467C117.544 428.772 120.797 434.332 126.135 437.776C126.781 438.194 126.095 439.172 125.45 438.755C116.163 432.763 113.347 421.169 105.599 413.722C101.984 410.247 97.2977 407.839 92.168 408.545C87.6822 409.163 83.7279 411.634 79.733 413.591C75.6597 415.719 71.1269 416.818 66.5305 416.793C61.7113 416.569 56.9655 415.526 52.4964 413.711C42.3698 409.785 32.9243 404.292 24.5058 397.434C14.8545 389.66 6.60555 380.295 0.115861 369.742C-0.285542 369.088 0.803083 368.593 1.20193 369.242Z" fill="white"/>
<path d="M44.3179 409.515C42.3978 412.793 39.3741 415.282 35.7867 416.539C32.1993 417.795 28.2818 417.736 24.734 416.373C24.0171 416.095 24.4163 414.969 25.1342 415.247C28.4356 416.523 32.0847 416.577 35.4228 415.4C38.761 414.224 41.5684 411.894 43.3383 408.831C43.7237 408.166 44.7011 408.854 44.3179 409.515Z" fill="white"/>
<path d="M76.8248 413.987C74.9256 406.46 70.2562 399.924 63.7476 395.684C63.1024 395.265 63.7883 394.286 64.4327 394.705C71.1974 399.13 76.0428 405.941 78.002 413.779C78.1882 414.526 77.01 414.73 76.8248 413.987L76.8248 413.987Z" fill="white"/>
<path d="M16.2582 388.924C17.2657 387.81 17.9805 386.464 18.3386 385.007C18.6966 383.549 18.6867 382.025 18.3097 380.572C18.1141 379.828 19.2925 379.625 19.4869 380.364C19.896 381.971 19.9049 383.654 19.5128 385.265C19.1208 386.877 18.3398 388.368 17.2379 389.608C17.1439 389.734 17.0055 389.819 16.8509 389.846C16.6963 389.874 16.537 389.841 16.4055 389.756C16.2763 389.664 16.1884 389.526 16.1608 389.37C16.1332 389.214 16.1682 389.054 16.2583 388.924L16.2582 388.924Z" fill="white"/>
<path d="M55.9491 309.279C56.0942 309.738 56.2394 310.196 56.3941 310.658C58.3774 316.81 60.8578 322.791 63.8108 328.542C64.032 328.991 64.263 329.442 64.4967 329.883C71.7589 343.662 81.519 355.975 93.2808 366.195C97.9649 370.257 102.952 373.957 108.198 377.264C115.443 381.83 123.663 386.204 128.823 392.704C129.369 393.376 129.873 394.081 130.331 394.815L118.53 437.393C118.455 437.477 118.389 437.563 118.313 437.647L117.92 439.368C117.638 439.217 117.348 439.053 117.065 438.902C116.901 438.814 116.74 438.718 116.575 438.63C116.467 438.569 116.358 438.507 116.257 438.458C116.22 438.438 116.184 438.418 116.158 438.4C116.056 438.351 115.967 438.295 115.875 438.248C114.253 437.34 112.635 436.418 111.02 435.484C111.01 435.481 111.01 435.481 111.003 435.469C98.63 428.465 87.1324 420.02 76.7512 410.31C76.4454 410.017 76.1297 409.72 75.8292 409.407C71.2699 404.979 67.0804 400.187 63.3027 395.077C61.2432 392.272 59.3271 389.365 57.5618 386.367C53.0155 378.611 49.7187 370.189 47.7923 361.41C43.9545 343.907 45.7626 325.372 55.2156 310.415C55.4577 310.032 55.6973 309.659 55.9491 309.279Z" fill="#F0F0F0"/>
<path d="M56.4638 309.525C54.8022 331.893 60.2375 354.214 71.9975 373.317C74.4561 377.475 77.5552 381.219 81.181 384.412C84.8136 387.409 89.1834 389.379 93.8361 390.117C98.1605 390.893 102.674 391.186 106.734 392.999C108.799 393.958 110.637 395.341 112.128 397.06C113.62 398.778 114.731 400.792 115.389 402.969C117.169 408.352 116.907 414.053 116.457 419.62C115.957 425.8 115.34 432.212 117.651 438.125C117.931 438.841 116.802 439.233 116.523 438.518C112.501 428.231 117.005 417.181 115.083 406.612C114.185 401.681 111.795 396.989 107.221 394.565C103.222 392.444 98.5677 392.138 94.1824 391.39C89.6329 390.736 85.3131 388.979 81.6004 386.272C77.8235 383.274 74.5851 379.655 72.0237 375.571C66.1103 366.469 61.6665 356.493 58.8549 346.011C55.5797 334.065 54.3742 321.648 55.2904 309.296C55.3474 308.531 56.5204 308.765 56.4638 309.525Z" fill="white"/>
<path d="M67.8483 367.388C64.3719 368.925 60.4621 369.177 56.8172 368.099C53.1723 367.022 50.0297 364.685 47.9506 361.506C47.5321 360.861 48.5153 360.181 48.9343 360.827C50.8649 363.791 53.7925 365.967 57.1886 366.963C60.5848 367.96 64.2258 367.711 67.4545 366.261C68.1565 365.946 68.5463 367.076 67.8483 367.388Z" fill="white"/>
<path d="M91.5909 390.012C94.4584 382.797 94.4984 374.767 91.7029 367.524C91.4254 366.806 92.5544 366.414 92.8317 367.13C95.7266 374.673 95.6679 383.029 92.6675 390.531C92.381 391.246 91.306 390.723 91.5909 390.012Z" fill="white"/>
<path d="M57.1482 334.288C58.6172 333.974 59.9852 333.3 61.1291 332.326C62.2731 331.353 63.1572 330.112 63.7021 328.713C63.9794 327.995 65.0541 328.518 64.7787 329.232C64.1694 330.774 63.1913 332.145 61.9298 333.223C60.6683 334.301 59.1618 335.054 57.5419 335.416C57.3921 335.463 57.23 335.451 57.0886 335.383C56.9472 335.315 56.8371 335.195 56.7806 335.049C56.7292 334.899 56.739 334.735 56.8078 334.593C56.8766 334.451 56.999 334.341 57.1482 334.288L57.1482 334.288Z" fill="white"/>
<path d="M97.6532 52.7368H267.844V63.6745C267.847 64.2346 267.654 64.7781 267.299 65.2117C267.642 73.761 267.844 84.675 267.844 96.535V388.956C267.844 416.366 266.743 438.667 265.394 438.667H100.103C98.7536 438.667 97.6532 416.366 97.6532 388.956V96.535C97.6532 84.675 97.8543 73.761 98.1977 65.2117C97.843 64.7781 97.6505 64.2345 97.6532 63.6745L97.6532 52.7368Z" fill="white"/>
<path d="M100.103 439.849H265.394C266.682 439.849 267.533 439.849 268.307 424.148C268.772 414.726 269.028 402.228 269.028 388.956V96.535C269.028 85.0725 268.834 73.9316 268.482 65.1642C268.262 59.9003 268.009 55.6837 267.732 52.63C267.188 46.6519 266.671 45.6421 265.394 45.6421H100.103C98.8254 45.6421 98.3085 46.6519 97.7643 52.63C97.4866 55.6953 97.2347 59.9118 97.015 65.1619L97.0148 65.1642C96.6631 73.9223 96.4695 85.0633 96.4695 96.535V388.956C96.4695 402.228 96.7252 414.727 97.1899 424.148C97.9637 439.849 98.8147 439.849 100.103 439.849ZM264.721 437.484H100.775C99.9189 434.253 98.8367 416.708 98.8367 388.956V96.535C98.8367 85.0944 99.0297 73.9881 99.38 65.2612H99.3802C99.5981 60.0486 99.8478 55.8708 100.122 52.8436C100.228 51.2176 100.45 49.6013 100.787 48.007H264.71C265.047 49.6013 265.269 51.2177 265.375 52.8436C265.649 55.8592 265.898 60.0371 266.117 65.2612C266.467 73.9956 266.66 85.1031 266.66 96.535V388.956C266.66 416.708 265.578 434.253 264.721 437.484Z" fill="#E4E4E4"/>
<path d="M100.103 46.8242H265.394C266.043 46.8255 266.666 47.0837 267.125 47.5425C267.584 48.0012 267.843 48.6231 267.844 49.2719V63.6742C267.847 64.2343 267.654 64.7778 267.299 65.2114C267.069 65.495 266.779 65.7238 266.449 65.8813C266.12 66.0387 265.759 66.1209 265.394 66.1219H100.103C99.7377 66.1209 99.3772 66.0386 99.0477 65.8811C98.7181 65.7237 98.4277 65.4949 98.1976 65.2114C97.8429 64.7777 97.6504 64.2342 97.6531 63.6742V49.2719C97.6543 48.6231 97.9129 48.0013 98.3721 47.5425C98.8312 47.0838 99.4536 46.8255 100.103 46.8242Z" fill="#CACACA"/>
<path d="M253.617 59.2464C251.695 59.2464 250.137 57.6901 250.137 55.7704C250.137 53.8507 251.695 52.2944 253.617 52.2944C255.538 52.2944 257.096 53.8507 257.096 55.7704C257.096 57.6901 255.538 59.2464 253.617 59.2464Z" fill="white"/>
<path d="M240.411 59.2464C238.489 59.2464 236.931 57.6901 236.931 55.7704C236.931 53.8507 238.489 52.2944 240.411 52.2944C242.332 52.2944 243.89 53.8507 243.89 55.7704C243.89 57.6901 242.332 59.2464 240.411 59.2464Z" fill="white"/>
<path d="M227.204 59.2464C225.282 59.2464 223.724 57.6901 223.724 55.7704C223.724 53.8507 225.282 52.2944 227.204 52.2944C229.125 52.2944 230.683 53.8507 230.683 55.7704C230.683 57.6901 229.125 59.2464 227.204 59.2464Z" fill="white"/>
<path d="M113.04 51.1284H128.249C128.547 51.1304 128.831 51.2494 129.042 51.4596C129.252 51.6699 129.371 51.9545 129.373 52.2517C129.378 52.421 129.337 52.5884 129.255 52.7366C129.164 52.927 129.022 53.088 128.844 53.201C128.666 53.314 128.46 53.3744 128.249 53.3751H113.04C112.827 53.3761 112.618 53.3166 112.438 53.2036C112.257 53.0905 112.113 52.9285 112.021 52.7366C111.949 52.5854 111.912 52.4194 111.915 52.2517C111.915 52.1042 111.944 51.9581 112 51.8217C112.057 51.6854 112.14 51.5615 112.244 51.4572C112.349 51.3529 112.473 51.2701 112.609 51.2137C112.746 51.1573 112.892 51.1283 113.04 51.1284Z" fill="white"/>
<path d="M113.04 55.3501H128.249C128.547 55.3501 128.833 55.4684 129.044 55.6791C129.255 55.8898 129.373 56.1755 129.373 56.4734C129.373 56.7714 129.255 57.0571 129.044 57.2677C128.833 57.4784 128.547 57.5968 128.249 57.5968H113.04C112.741 57.5968 112.455 57.4784 112.244 57.2677C112.034 57.0571 111.915 56.7714 111.915 56.4734C111.915 56.1755 112.034 55.8898 112.244 55.6791C112.455 55.4684 112.741 55.3501 113.04 55.3501Z" fill="white"/>
<path d="M113.04 59.5713H128.249C128.547 59.5713 128.833 59.6897 129.044 59.9003C129.255 60.111 129.373 60.3967 129.373 60.6946C129.373 60.9925 129.255 61.2783 129.044 61.4889C128.833 61.6996 128.547 61.818 128.249 61.818H113.04C112.741 61.818 112.455 61.6996 112.244 61.4889C112.034 61.2783 111.915 60.9925 111.915 60.6946C111.915 60.3967 112.034 60.111 112.244 59.9003C112.455 59.6897 112.741 59.5713 113.04 59.5713Z" fill="white"/>
<path d="M166.302 97.6938H197.597C199.166 97.6945 200.671 98.3176 201.781 99.4262C202.891 100.535 203.514 102.038 203.515 103.606V130.684C203.512 132.252 202.888 133.754 201.779 134.862C200.669 135.97 199.166 136.594 197.597 136.597H166.302C164.734 136.592 163.232 135.968 162.123 134.86C161.014 133.752 160.389 132.251 160.384 130.684V103.606C160.387 102.039 161.011 100.537 162.121 99.4284C163.23 98.3202 164.734 97.6964 166.302 97.6938Z" fill="#AB47BC"/>
<path d="M127.42 154.286H236.489C237.202 154.286 237.885 154.569 238.389 155.072C238.893 155.576 239.176 156.258 239.176 156.97C239.176 157.682 238.893 158.365 238.389 158.868C237.885 159.372 237.202 159.654 236.489 159.654H127.42C126.707 159.654 126.024 159.372 125.52 158.868C125.016 158.365 124.733 157.682 124.733 156.97C124.733 156.258 125.016 155.576 125.52 155.072C126.024 154.569 126.707 154.286 127.42 154.286Z" fill="#E4E4E4"/>
<path d="M195.063 166.867H236.489C237.202 166.867 237.885 167.15 238.389 167.653C238.893 168.157 239.176 168.839 239.176 169.551C239.176 170.263 238.893 170.946 238.389 171.449C237.885 171.953 237.202 172.236 236.489 172.236H195.063C194.35 172.236 193.667 171.953 193.163 171.449C192.659 170.946 192.376 170.263 192.376 169.551C192.376 168.839 192.659 168.157 193.163 167.653C193.667 167.15 194.35 166.867 195.063 166.867Z" fill="#E4E4E4"/>
<path d="M166.302 214.757H197.597C199.166 214.757 200.671 215.381 201.781 216.489C202.891 217.598 203.514 219.101 203.515 220.669V247.747C203.512 249.315 202.888 250.817 201.779 251.925C200.669 253.033 199.166 253.657 197.597 253.66H166.302C164.734 253.655 163.232 253.031 162.123 251.923C161.014 250.815 160.389 249.314 160.384 247.747V220.669C160.387 219.102 161.011 217.6 162.121 216.491C163.23 215.383 164.734 214.759 166.302 214.757Z" fill="#AB47BC"/>
<path d="M127.42 271.349H236.489C237.202 271.349 237.885 271.632 238.389 272.135C238.893 272.639 239.176 273.321 239.176 274.033C239.176 274.745 238.893 275.428 238.389 275.931C237.885 276.435 237.202 276.717 236.489 276.717H127.42C126.707 276.717 126.024 276.435 125.52 275.931C125.016 275.428 124.733 274.745 124.733 274.033C124.733 273.321 125.016 272.639 125.52 272.135C126.024 271.632 126.707 271.349 127.42 271.349Z" fill="#E4E4E4"/>
<path d="M195.063 283.931H236.489C237.202 283.931 237.885 284.213 238.389 284.717C238.893 285.22 239.176 285.903 239.176 286.615C239.176 287.327 238.893 288.009 238.389 288.513C237.885 289.016 237.202 289.299 236.489 289.299H195.063C194.35 289.299 193.667 289.016 193.163 288.513C192.659 288.009 192.376 287.327 192.376 286.615C192.376 285.903 192.659 285.22 193.163 284.717C193.667 284.213 194.35 283.931 195.063 283.931Z" fill="#E4E4E4"/>
<path d="M166.302 331.82H197.597C199.166 331.82 200.671 332.444 201.781 333.552C202.891 334.661 203.514 336.164 203.515 337.732V364.81C203.512 366.378 202.888 367.88 201.779 368.988C200.669 370.096 199.166 370.72 197.597 370.723H166.302C164.734 370.718 163.232 370.094 162.123 368.986C161.014 367.878 160.389 366.377 160.384 364.81V337.732C160.387 336.165 161.011 334.663 162.121 333.554C163.23 332.446 164.734 331.822 166.302 331.82Z" fill="#AB47BC"/>
<path d="M127.42 388.412H236.489C237.202 388.412 237.885 388.695 238.389 389.198C238.893 389.702 239.176 390.384 239.176 391.096C239.176 391.808 238.893 392.491 238.389 392.994C237.885 393.498 237.202 393.78 236.489 393.78H127.42C126.707 393.78 126.024 393.498 125.52 392.994C125.016 392.491 124.733 391.808 124.733 391.096C124.733 390.384 125.016 389.702 125.52 389.198C126.024 388.695 126.707 388.412 127.42 388.412Z" fill="#E4E4E4"/>
<path d="M195.063 400.994H236.489C237.202 400.994 237.885 401.276 238.389 401.78C238.893 402.283 239.176 402.966 239.176 403.678C239.176 404.39 238.893 405.072 238.389 405.576C237.885 406.079 237.202 406.362 236.489 406.362H195.063C194.35 406.362 193.667 406.079 193.163 405.576C192.659 405.072 192.376 404.39 192.376 403.678C192.376 402.966 192.659 402.283 193.163 401.78C193.667 401.276 194.35 400.994 195.063 400.994Z" fill="#E4E4E4"/>
<path d="M314.253 38.6298C314.254 37.9811 314.512 37.3592 314.971 36.9005C315.431 36.4417 316.053 36.1834 316.702 36.1821H754.223C754.872 36.1834 755.495 36.4416 755.954 36.9004C756.413 37.3591 756.672 37.981 756.673 38.6298V53.0321C756.675 53.6317 756.451 54.2101 756.046 54.6521C756.436 64.431 756.673 77.3198 756.673 91.4383V416.507C756.673 446.991 755.572 471.775 754.223 471.775H316.702C315.353 471.775 314.253 446.991 314.253 416.507V91.4383C314.253 77.3198 314.489 64.431 314.88 54.6521C314.474 54.2101 314.25 53.6317 314.253 53.0321V38.6298Z" fill="white"/>
<path d="M316.702 472.958H754.223C755.56 472.958 756.368 472.958 757.137 455.625C757.601 445.155 757.857 431.263 757.857 416.507V91.4386C757.857 77.8317 757.634 64.7508 757.228 54.6052C756.45 35 755.564 35 754.223 35H316.702C315.361 35 314.475 35.0035 313.697 54.6052C313.292 64.7416 313.069 77.8225 313.069 91.4386V416.507C313.069 431.263 313.325 445.155 313.789 455.625C314.558 472.958 315.365 472.958 316.702 472.958ZM753.532 470.593H317.393C316.425 466.886 315.436 446.069 315.436 416.507V91.4386C315.436 77.8531 315.659 64.8051 316.062 54.6999V54.6993C316.555 42.2795 317.131 38.5 317.406 37.3649H753.519C753.794 38.5001 754.37 42.2795 754.863 54.6993C755.267 64.8149 755.49 77.8623 755.49 91.4386V416.507C755.49 446.069 754.501 466.885 753.532 470.593Z" fill="#E4E4E4"/>
<path d="M316.702 36.1821H754.223C754.872 36.1834 755.495 36.4416 755.954 36.9004C756.413 37.3591 756.672 37.981 756.673 38.6298V53.0321C756.675 53.6317 756.451 54.2101 756.046 54.6521C755.818 54.9116 755.538 55.1197 755.224 55.2624C754.909 55.4052 754.568 55.4793 754.223 55.4798H316.703C316.357 55.4793 316.016 55.4052 315.702 55.2624C315.387 55.1197 315.107 54.9116 314.88 54.6521C314.474 54.2101 314.25 53.6317 314.253 53.0321V38.6298C314.254 37.9811 314.512 37.3593 314.972 36.9005C315.431 36.4417 316.053 36.1834 316.702 36.1821Z" fill="#CACACA"/>
<path d="M329.64 40.4863H344.85C345.148 40.4863 345.434 40.6047 345.645 40.8153C345.856 41.026 345.974 41.3117 345.974 41.6097C345.974 41.9076 345.856 42.1933 345.645 42.404C345.434 42.6146 345.148 42.733 344.85 42.733H329.64C329.342 42.733 329.056 42.6146 328.845 42.404C328.634 42.1933 328.516 41.9076 328.516 41.6097C328.516 41.3117 328.634 41.026 328.845 40.8153C329.056 40.6047 329.342 40.4863 329.64 40.4863Z" fill="white"/>
<path d="M329.64 44.708H344.85C345.148 44.708 345.434 44.8264 345.645 45.037C345.856 45.2477 345.974 45.5334 345.974 45.8313C345.974 46.1293 345.856 46.415 345.645 46.6257C345.434 46.8363 345.148 46.9547 344.85 46.9547H329.64C329.342 46.9547 329.056 46.8363 328.845 46.6257C328.634 46.415 328.516 46.1293 328.516 45.8313C328.516 45.5334 328.634 45.2477 328.845 45.037C329.056 44.8264 329.342 44.708 329.64 44.708Z" fill="white"/>
<path d="M329.64 48.9292H344.85C345.148 48.9292 345.434 49.0476 345.645 49.2582C345.856 49.4689 345.974 49.7546 345.974 50.0525C345.974 50.3505 345.856 50.6362 345.645 50.8468C345.434 51.0575 345.148 51.1759 344.85 51.1759H329.64C329.342 51.1759 329.056 51.0575 328.845 50.8468C328.634 50.6362 328.516 50.3505 328.516 50.0525C328.516 49.7546 328.634 49.4689 328.845 49.2582C329.056 49.0476 329.342 48.9292 329.64 48.9292Z" fill="white"/>
<path d="M612.806 108.336H664.009C666.576 108.339 669.037 109.359 670.852 111.172C672.667 112.986 673.688 115.444 673.691 118.008V162.315C673.688 164.879 672.667 167.338 670.852 169.151C669.037 170.964 666.576 171.984 664.009 171.988H612.806C610.239 171.984 607.779 170.964 605.964 169.151C604.149 167.338 603.128 164.879 603.125 162.315V118.008C603.128 115.444 604.149 112.986 605.964 111.172C607.779 109.359 610.239 108.339 612.806 108.336Z" fill="#AB47BC"/>
<path d="M401.615 125.47H580.079C581.245 125.47 582.363 125.933 583.188 126.756C584.013 127.58 584.476 128.697 584.476 129.863C584.476 131.028 584.013 132.145 583.188 132.969C582.363 133.793 581.245 134.255 580.079 134.255H401.615C400.449 134.255 399.33 133.793 398.506 132.969C397.681 132.145 397.218 131.028 397.218 129.863C397.218 128.697 397.681 127.58 398.506 126.756C399.33 125.933 400.449 125.47 401.615 125.47Z" fill="#E4E4E4"/>
<path d="M512.294 146.056H580.079C581.245 146.056 582.363 146.519 583.188 147.343C584.013 148.167 584.476 149.284 584.476 150.449C584.476 151.614 584.013 152.731 583.188 153.555C582.363 154.379 581.245 154.842 580.079 154.842H512.294C511.127 154.842 510.009 154.379 509.184 153.555C508.36 152.731 507.897 151.614 507.897 150.449C507.897 149.284 508.36 148.167 509.184 147.343C510.009 146.519 511.127 146.056 512.294 146.056Z" fill="#E4E4E4"/>
<path d="M612.806 226.582H664.009C666.576 226.585 669.037 227.605 670.852 229.418C672.667 231.231 673.688 233.69 673.691 236.254V280.561C673.688 283.125 672.667 285.583 670.852 287.397C669.037 289.21 666.576 290.23 664.009 290.233H612.806C610.239 290.23 607.779 289.21 605.964 287.397C604.149 285.583 603.128 283.125 603.125 280.561V236.254C603.128 233.69 604.149 231.231 605.964 229.418C607.779 227.605 610.239 226.585 612.806 226.582Z" fill="#AB47BC"/>
<path d="M401.615 243.715H580.079C581.245 243.715 582.363 244.178 583.188 245.002C584.013 245.826 584.476 246.943 584.476 248.108C584.476 249.273 584.013 250.391 583.188 251.214C582.363 252.038 581.245 252.501 580.079 252.501H401.615C400.449 252.501 399.33 252.038 398.506 251.214C397.681 250.391 397.218 249.273 397.218 248.108C397.218 246.943 397.681 245.826 398.506 245.002C399.33 244.178 400.449 243.715 401.615 243.715Z" fill="#E4E4E4"/>
<path d="M512.294 264.302H580.079C581.245 264.302 582.363 264.765 583.188 265.588C584.013 266.412 584.476 267.53 584.476 268.695C584.476 269.86 584.013 270.977 583.188 271.801C582.363 272.625 581.245 273.087 580.079 273.087H512.294C511.127 273.087 510.009 272.625 509.184 271.801C508.36 270.977 507.897 269.86 507.897 268.695C507.897 267.53 508.36 266.412 509.184 265.588C510.009 264.765 511.127 264.302 512.294 264.302Z" fill="#E4E4E4"/>
<path d="M612.806 344.827H664.009C666.576 344.83 669.037 345.85 670.852 347.664C672.667 349.477 673.688 351.935 673.691 354.5V398.806C673.688 401.371 672.667 403.829 670.852 405.642C669.037 407.456 666.576 408.476 664.009 408.479H612.806C610.239 408.476 607.779 407.456 605.964 405.642C604.149 403.829 603.128 401.371 603.125 398.806V354.5C603.128 351.935 604.149 349.477 605.964 347.664C607.779 345.85 610.239 344.83 612.806 344.827Z" fill="#AB47BC"/>
<path d="M401.615 361.961H580.079C581.245 361.961 582.363 362.424 583.188 363.248C584.013 364.071 584.476 365.189 584.476 366.354C584.476 367.519 584.013 368.636 583.188 369.46C582.363 370.284 581.245 370.747 580.079 370.747H401.615C400.449 370.747 399.33 370.284 398.506 369.46C397.681 368.636 397.218 367.519 397.218 366.354C397.218 365.189 397.681 364.071 398.506 363.248C399.33 362.424 400.449 361.961 401.615 361.961Z" fill="#E4E4E4"/>
<path d="M512.294 382.547H580.079C581.245 382.547 582.363 383.01 583.188 383.834C584.013 384.658 584.476 385.775 584.476 386.94C584.476 388.105 584.013 389.223 583.188 390.046C582.363 390.87 581.245 391.333 580.079 391.333H512.294C511.127 391.333 510.009 390.87 509.184 390.046C508.36 389.223 507.897 388.105 507.897 386.94C507.897 385.775 508.36 384.658 509.184 383.834C510.009 383.01 511.127 382.547 512.294 382.547Z" fill="#E4E4E4"/>
<path d="M238.581 549.817H531.7C533.051 549.817 534.151 529.066 534.151 503.556V231.433C534.151 205.922 533.051 185.171 531.7 185.171H238.581C237.23 185.171 236.13 205.922 236.13 231.433V503.556C236.13 529.066 237.23 549.817 238.581 549.817Z" fill="white"/>
<path d="M238.581 551H531.7C532.94 551 533.836 551 534.614 536.316C535.079 527.548 535.334 515.914 535.334 503.556V231.433C535.334 219.075 535.079 207.441 534.614 198.673C533.836 183.988 532.94 183.988 531.7 183.988H238.581C237.341 183.988 236.445 183.988 235.667 198.673C235.202 207.441 234.947 219.075 234.947 231.433V503.556C234.947 515.914 235.202 527.548 235.667 536.316C236.445 551 237.341 551 238.581 551ZM531.045 548.635H239.236C238.387 545.572 237.314 529.25 237.314 503.556V231.433C237.314 205.738 238.387 189.417 239.236 186.353H531.045C531.894 189.417 532.967 205.738 532.967 231.433V503.556C532.967 529.25 531.894 545.572 531.045 548.635Z" fill="#E4E4E4"/>
<path d="M238.581 204.469H531.7C532.35 204.468 532.973 204.21 533.432 203.751C533.892 203.292 534.15 202.67 534.151 202.021V187.619C534.15 186.97 533.892 186.348 533.432 185.889C532.973 185.43 532.35 185.172 531.7 185.171H238.581C237.931 185.172 237.308 185.43 236.849 185.889C236.39 186.348 236.131 186.97 236.13 187.619V202.021C236.131 202.67 236.39 203.292 236.849 203.751C237.308 204.21 237.931 204.468 238.581 204.469Z" fill="#CACACA"/>
<path d="M519.928 197.594C518.007 197.594 516.449 196.037 516.449 194.118C516.449 192.198 518.007 190.642 519.928 190.642C521.85 190.642 523.408 192.198 523.408 194.118C523.408 196.037 521.85 197.594 519.928 197.594Z" fill="white"/>
<path d="M506.722 197.594C504.801 197.594 503.243 196.037 503.243 194.118C503.243 192.198 504.801 190.642 506.722 190.642C508.644 190.642 510.202 192.198 510.202 194.118C510.202 196.037 508.644 197.594 506.722 197.594Z" fill="white"/>
<path d="M493.515 197.594C491.594 197.594 490.036 196.037 490.036 194.118C490.036 192.198 491.594 190.642 493.515 190.642C495.437 190.642 496.995 192.198 496.995 194.118C496.995 196.037 495.437 197.594 493.515 197.594Z" fill="white"/>
<path d="M251.521 191.725H266.728C267.027 191.725 267.314 191.606 267.525 191.395C267.736 191.184 267.855 190.898 267.855 190.6C267.855 190.301 267.736 190.015 267.525 189.804C267.314 189.593 267.027 189.474 266.728 189.474H251.521C251.223 189.475 250.937 189.594 250.726 189.805C250.516 190.016 250.398 190.302 250.398 190.6C250.398 190.897 250.516 191.183 250.726 191.394C250.937 191.605 251.223 191.724 251.521 191.725Z" fill="white"/>
<path d="M251.521 195.946H266.728C267.027 195.946 267.314 195.827 267.525 195.616C267.736 195.405 267.855 195.119 267.855 194.82C267.855 194.522 267.736 194.236 267.525 194.024C267.314 193.813 267.027 193.695 266.728 193.695H251.521C251.222 193.695 250.935 193.813 250.724 194.024C250.513 194.236 250.394 194.522 250.394 194.82C250.394 195.119 250.513 195.405 250.724 195.616C250.935 195.827 251.222 195.946 251.521 195.946Z" fill="white"/>
<path d="M251.521 200.166H266.728C267.027 200.166 267.314 200.047 267.525 199.836C267.736 199.625 267.855 199.339 267.855 199.04C267.855 198.742 267.736 198.456 267.525 198.245C267.314 198.034 267.027 197.915 266.728 197.915H251.521C251.223 197.916 250.937 198.035 250.726 198.246C250.516 198.457 250.398 198.743 250.398 199.04C250.398 199.338 250.516 199.624 250.726 199.835C250.937 200.046 251.223 200.165 251.521 200.166Z" fill="white"/>
<path d="M441.628 293.859H479.022C480.896 293.857 482.694 293.112 484.02 291.788C485.345 290.463 486.091 288.667 486.093 286.794V254.439C486.091 252.566 485.345 250.77 484.02 249.446C482.694 248.121 480.896 247.376 479.022 247.374H441.628C439.753 247.376 437.955 248.121 436.63 249.446C435.304 250.77 434.558 252.566 434.556 254.439V286.794C434.558 288.667 435.304 290.463 436.63 291.787C437.955 293.112 439.753 293.857 441.628 293.859Z" fill="#AB47BC"/>
<path d="M287.399 266.307H417.726C418.578 266.307 419.395 265.969 419.997 265.368C420.599 264.766 420.937 263.951 420.937 263.1C420.937 262.249 420.599 261.433 419.997 260.832C419.395 260.231 418.578 259.893 417.726 259.893H287.399C286.547 259.893 285.731 260.231 285.129 260.832C284.527 261.433 284.188 262.249 284.188 263.1C284.188 263.951 284.527 264.766 285.129 265.368C285.731 265.969 286.547 266.307 287.399 266.307Z" fill="#E4E4E4"/>
<path d="M368.226 281.341H417.726C418.578 281.341 419.395 281.003 419.997 280.402C420.599 279.8 420.937 278.984 420.937 278.134C420.937 277.283 420.599 276.467 419.997 275.866C419.395 275.264 418.578 274.926 417.726 274.926H368.226C367.804 274.925 367.386 275.008 366.995 275.169C366.605 275.329 366.251 275.566 365.952 275.864C365.653 276.161 365.416 276.515 365.254 276.905C365.093 277.294 365.009 277.712 365.009 278.134C365.009 278.555 365.093 278.973 365.254 279.362C365.416 279.752 365.653 280.106 365.952 280.404C366.251 280.702 366.605 280.938 366.995 281.099C367.386 281.259 367.804 281.342 368.226 281.341Z" fill="#E4E4E4"/>
<path d="M441.628 389.638H479.022C480.896 389.636 482.694 388.891 484.02 387.566C485.345 386.242 486.091 384.446 486.093 382.573V350.217C486.091 348.344 485.345 346.549 484.02 345.224C482.694 343.9 480.896 343.155 479.022 343.153H441.628C439.753 343.155 437.955 343.9 436.63 345.224C435.304 346.549 434.558 348.344 434.556 350.217V382.573C434.558 384.446 435.304 386.242 436.63 387.566C437.955 388.891 439.753 389.636 441.628 389.638Z" fill="#AB47BC"/>
<path d="M287.399 362.086H417.726C418.578 362.086 419.395 361.748 419.997 361.147C420.599 360.545 420.937 359.729 420.937 358.879C420.937 358.028 420.599 357.212 419.997 356.611C419.395 356.009 418.578 355.671 417.726 355.671H287.399C286.547 355.671 285.731 356.009 285.129 356.611C284.527 357.212 284.188 358.028 284.188 358.879C284.188 359.729 284.527 360.545 285.129 361.147C285.731 361.748 286.547 362.086 287.399 362.086Z" fill="#E4E4E4"/>
<path d="M368.226 377.12H417.726C418.578 377.12 419.395 376.782 419.997 376.18C420.599 375.579 420.937 374.763 420.937 373.912C420.937 373.062 420.599 372.246 419.997 371.644C419.395 371.043 418.578 370.705 417.726 370.705H368.226C367.804 370.704 367.386 370.787 366.995 370.947C366.605 371.108 366.251 371.344 365.952 371.642C365.653 371.94 365.416 372.294 365.254 372.684C365.093 373.073 365.009 373.491 365.009 373.912C365.009 374.334 365.093 374.752 365.254 375.141C365.416 375.531 365.653 375.885 365.952 376.183C366.251 376.48 366.605 376.717 366.995 376.877C367.386 377.038 367.804 377.121 368.226 377.12Z" fill="#E4E4E4"/>
<path d="M441.628 485.417H479.022C480.896 485.415 482.694 484.67 484.02 483.345C485.345 482.021 486.091 480.225 486.093 478.352V445.996C486.091 444.123 485.345 442.328 484.02 441.003C482.694 439.679 480.896 438.934 479.022 438.932H441.628C439.753 438.934 437.955 439.679 436.63 441.003C435.304 442.328 434.558 444.123 434.556 445.996V478.352C434.558 480.225 435.304 482.021 436.63 483.345C437.955 484.67 439.753 485.415 441.628 485.417Z" fill="#AB47BC"/>
<path d="M287.399 457.865H417.726C418.578 457.865 419.395 457.527 419.997 456.926C420.599 456.324 420.937 455.508 420.937 454.658C420.937 453.807 420.599 452.991 419.997 452.39C419.395 451.788 418.578 451.45 417.726 451.45H287.399C286.547 451.45 285.731 451.788 285.129 452.39C284.527 452.991 284.188 453.807 284.188 454.658C284.188 455.508 284.527 456.324 285.129 456.926C285.731 457.527 286.547 457.865 287.399 457.865Z" fill="#E4E4E4"/>
<path d="M368.226 472.899H417.726C418.578 472.899 419.395 472.561 419.997 471.96C420.599 471.358 420.937 470.542 420.937 469.692C420.937 468.841 420.599 468.025 419.997 467.424C419.395 466.822 418.578 466.484 417.726 466.484H368.226C367.804 466.484 367.386 466.566 366.995 466.727C366.605 466.888 366.251 467.124 365.952 467.422C365.653 467.72 365.416 468.073 365.254 468.463C365.093 468.852 365.009 469.27 365.009 469.692C365.009 470.113 365.093 470.531 365.254 470.921C365.416 471.31 365.653 471.664 365.952 471.962C366.251 472.26 366.605 472.496 366.995 472.657C367.386 472.817 367.804 472.9 368.226 472.899Z" fill="#E4E4E4"/>
</svg>
