<svg width="16" height="16" viewBox="0 0 16 16" fill="none" xmlns="http://www.w3.org/2000/svg">
<path d="M9.66016 15.8264C11.6609 15.4039 13.381 14.2319 14.5245 12.6208L9.66016 9.96222V15.8264Z" fill="#003E9C"/>
<path d="M1.56641 3.2629L4.77083 5.01294L6.28559 5.83991V2.11441V0.190125C4.35878 0.611214 2.69746 1.72859 1.56641 3.2629Z" fill="#003E9C"/>
<path d="M0.183594 9.68878C0.282457 10.15 0.422111 10.596 0.597023 11.024L3.08106 9.68878H0.183594Z" fill="#003E9C"/>
<path d="M6.28814 15.8115V10.0352L1.48047 12.6198C2.61291 14.2163 4.31225 15.3786 6.28814 15.8115Z" fill="#003E9C"/>
<path d="M0.588036 5.00262C0.417963 5.42302 0.281075 5.86001 0.183594 6.31222H2.98427L0.588036 5.00262Z" fill="#003E9C"/>
<path d="M15.4637 10.8552C15.6075 10.4784 15.7292 10.0905 15.8156 9.68878H13.3281L15.4637 10.8552Z" fill="#003E9C"/>
<path d="M15.8208 6.31263C15.7316 5.89707 15.6058 5.49534 15.4544 5.10675L13.2109 6.31263H15.8208Z" fill="#003E9C"/>
<path d="M14.6075 3.49264C13.4654 1.82211 11.7073 0.607933 9.66016 0.175781V2.11528V6.15262L11.356 5.2413L14.6075 3.49264Z" fill="#003E9C"/>
<path d="M11.3575 6.80628H12.2922H15.9038C15.8789 6.64034 15.8554 6.47439 15.8209 6.31259H13.2117L15.4551 5.10671C15.3362 4.8011 15.2056 4.50239 15.0521 4.21683L11.3589 6.21233L11.1736 6.31259H10.0826L11.3589 5.62322L14.7859 3.77154C14.7278 3.67819 14.6732 3.58277 14.611 3.4915L11.3596 5.23947L9.6616 6.15079V2.11346V0.173957C9.49982 0.139385 9.3332 0.117951 9.16797 0.09375V2.11346V6.41631V6.80559H10.2582H11.3575V6.80628Z" fill="white"/>
<path d="M6.28572 2.11356V5.83906L4.77097 5.01209L1.56723 3.26205C1.34876 3.55868 1.14274 3.86499 0.966446 4.19066L4.77166 6.28919L4.81452 6.3127H4.77097H3.72495L0.738991 4.66222C0.687139 4.77493 0.635287 4.88694 0.588967 5.00241L2.9852 6.31201H0.184525C0.149957 6.47449 0.126451 6.64044 0.101562 6.8057H3.8888H4.61887H4.77097H5.70913H6.77935V6.10941V2.11356V0.102844C6.61342 0.128428 6.4475 0.15332 6.28572 0.189275V2.11356Z" fill="white"/>
<path d="M4.0008 9.19472H0.101562C0.126451 9.36067 0.149957 9.52662 0.184525 9.68841H3.08199L0.597954 11.0236C0.707188 11.2912 0.827484 11.5532 0.963681 11.8049L4.79447 9.68772H5.87851L1.22639 12.2398C1.30728 12.3684 1.38955 12.4957 1.47736 12.6194L6.28503 10.0348V15.8111C6.4475 15.8464 6.61273 15.872 6.77866 15.8976V9.76931V9.19403H5.6877H4.0008V9.19472Z" fill="white"/>
<path d="M11.5787 9.19472H10.4878H9.16797V9.69187V15.9066C9.33389 15.8824 9.49982 15.8602 9.6616 15.8264V9.96153L14.526 12.6201C14.7368 12.3228 14.929 12.011 15.0984 11.6853L11.4017 9.68772H12.4913L15.3224 11.2193C15.3749 11.0996 15.4213 10.9766 15.4683 10.8542L13.3327 9.68772H15.8195C15.8541 9.52523 15.8776 9.35929 15.9024 9.19403H12.4277H11.5787V9.19472Z" fill="white"/>
<path d="M0.960938 11.8047C1.04183 11.9541 1.13378 12.0965 1.22434 12.2396L5.87646 9.6875H4.79242L0.960938 11.8047Z" fill="#E30613"/>
<path d="M11.3551 6.21295L15.0483 4.21745C14.966 4.06464 14.8734 3.91874 14.7814 3.77216L11.3544 5.62384L10.0781 6.31321H11.1691L11.3551 6.21295Z" fill="#E30613"/>
<path d="M4.76635 6.31147H4.80921L4.76635 6.28796L0.96183 4.19012C0.878868 4.34293 0.807659 4.50335 0.734375 4.66169L3.72033 6.31147H4.76635Z" fill="#E30613"/>
<path d="M11.3984 9.6875L15.0951 11.6851C15.1746 11.5323 15.25 11.3774 15.3191 11.219L12.488 9.6875H11.3984Z" fill="#E30613"/>
<path d="M15.8998 6.80657H12.2881H11.3534H10.2542H9.16389V6.41659V2.11374V0.0940363C8.78296 0.0387208 8.3958 0 7.99896 0C7.58208 0 7.17625 0.0414866 6.77665 0.103025V2.11374V6.10959V6.80657H5.70643H4.76827H4.61617H3.8861H0.0988637C0.0400986 7.19723 0 7.59343 0 8C0 8.40657 0.0400986 8.80346 0.0988637 9.19343H3.99879H5.68708H6.77803V9.76871V15.897C7.17763 15.9585 7.58346 16 8.00035 16C8.39718 16 8.78434 15.9613 9.16528 15.906V9.69127V9.19412H10.4851H11.576H12.4264H15.9011C15.9599 8.80346 16 8.40726 16 8.00069C15.9986 7.59343 15.9585 7.19723 15.8998 6.80657Z" fill="#E30613"/>
</svg>
