<svg width="24" height="24" viewBox="0 0 24 24" fill="none" xmlns="http://www.w3.org/2000/svg">
<path d="M8.11313 10.5533L7.62375 12H6.375L8.46975 6.375H9.91425L12 12H10.6871L10.1977 10.5533H8.11313ZM9.95137 9.72525L9.1875 7.4505H9.13238L8.3685 9.72525H9.9525H9.95137Z" fill="#AB47BC"/>
<path d="M3 5.25C3 4.65326 3.23705 4.08097 3.65901 3.65901C4.08097 3.23705 4.65326 3 5.25 3H13.125C13.7217 3 14.294 3.23705 14.716 3.65901C15.1379 4.08097 15.375 4.65326 15.375 5.25V8.625H18.75C19.3467 8.625 19.919 8.86205 20.341 9.28401C20.7629 9.70597 21 10.2783 21 10.875V18.75C21 19.3467 20.7629 19.919 20.341 20.341C19.919 20.7629 19.3467 21 18.75 21H10.875C10.2783 21 9.70597 20.7629 9.28401 20.341C8.86205 19.919 8.625 19.3467 8.625 18.75V15.375H5.25C4.65326 15.375 4.08097 15.1379 3.65901 14.716C3.23705 14.294 3 13.7217 3 13.125V5.25ZM5.25 4.125C4.95163 4.125 4.66548 4.24353 4.4545 4.4545C4.24353 4.66548 4.125 4.95163 4.125 5.25V13.125C4.125 13.4234 4.24353 13.7095 4.4545 13.9205C4.66548 14.1315 4.95163 14.25 5.25 14.25H13.125C13.4234 14.25 13.7095 14.1315 13.9205 13.9205C14.1315 13.7095 14.25 13.4234 14.25 13.125V5.25C14.25 4.95163 14.1315 4.66548 13.9205 4.4545C13.7095 4.24353 13.4234 4.125 13.125 4.125H5.25ZM13.2802 15.3694C13.4974 15.708 13.7325 16.0252 13.989 16.3211C13.1475 16.968 12.1069 17.4473 10.875 17.7746C11.0753 18.0188 11.3824 18.489 11.4994 18.75C12.765 18.3461 13.8394 17.8005 14.7461 17.0692C15.6202 17.8174 16.7025 18.3799 18.0424 18.7252C18.192 18.4395 18.5081 17.9681 18.75 17.724C17.4844 17.4394 16.4359 16.9432 15.5775 16.2795C16.3436 15.4391 16.9522 14.4221 17.4011 13.1779H18.75V12H15.375V13.1779H16.2356C15.8779 14.1274 15.4031 14.9171 14.8046 15.5741C14.6393 15.398 14.4835 15.2133 14.3378 15.0206C14.0203 15.2242 13.6565 15.3441 13.2802 15.3694V15.3694Z" fill="#AB47BC"/>
</svg>
