<svg width="16" height="14" viewBox="0 0 16 14" fill="none" xmlns="http://www.w3.org/2000/svg">
<path d="M14.2998 12.0296C14.1839 12.5258 13.9014 12.9672 13.4994 13.2802C13.0974 13.5932 12.6002 13.7589 12.0908 13.7497L8.54923 13.5971C6.03892 13.2436 5.61719 10.9542 5.61719 9.03331V6.60033C5.61729 6.09831 5.80701 5.61486 6.14837 5.24677L9.07137 1.49436C9.50515 1.02343 10.0454 0.402883 10.7171 1.41604C10.9852 1.73768 11.1497 2.13286 11.1891 2.5497C11.1891 2.79907 11.1307 3.04498 11.0184 3.26764L9.85659 5.49479H13.8158C14.0191 5.49132 14.2189 5.5479 14.3902 5.65746C14.6304 5.80454 14.818 6.02374 14.9261 6.28377C15.0343 6.5438 15.0576 6.83135 14.9927 7.1054L14.2998 12.0296Z" fill="#00B13A"/>
<path d="M2.47689 12.7546H3.88266C3.96851 12.7541 4.0507 12.7198 4.11141 12.6591C4.17212 12.5984 4.20646 12.5162 4.20699 12.4303L4.53132 6.6787C4.53106 6.59276 4.4968 6.51042 4.43603 6.44966C4.37527 6.38889 4.29293 6.35463 4.20699 6.35437H2.80122C2.40232 6.35622 2.02029 6.5155 1.73823 6.79756C1.45616 7.07963 1.29688 7.46166 1.29503 7.86055L0.970703 11.2465C0.972023 11.6457 1.13107 12.0282 1.41319 12.3107C1.69531 12.5932 2.07765 12.7528 2.47689 12.7546V12.7546Z" fill="#00B13A"/>
</svg>
