<svg width="14" height="14" viewBox="0 0 14 14" fill="none" xmlns="http://www.w3.org/2000/svg">
<path d="M7.93933 6.99947L13.466 1.47281C13.5752 1.34527 13.6323 1.18122 13.6258 1.01344C13.6193 0.845653 13.5498 0.686494 13.431 0.567764C13.3123 0.449034 13.1532 0.379479 12.9854 0.372998C12.8176 0.366517 12.6535 0.423588 12.526 0.532806L6.99933 6.05947L1.47266 0.526139C1.34713 0.400603 1.17687 0.330078 0.999331 0.330078C0.821797 0.330078 0.651534 0.400603 0.525998 0.526139C0.400462 0.651675 0.329937 0.821938 0.329937 0.999473C0.329937 1.17701 0.400462 1.34727 0.525998 1.47281L6.05933 6.99947L0.525998 12.5261C0.45621 12.5859 0.39953 12.6595 0.359514 12.7422C0.319499 12.8249 0.297012 12.915 0.293466 13.0068C0.289919 13.0986 0.30539 13.1901 0.338906 13.2757C0.372422 13.3612 0.423261 13.4389 0.488231 13.5039C0.553201 13.5689 0.630899 13.6197 0.716449 13.6532C0.801999 13.6867 0.893554 13.7022 0.985367 13.6987C1.07718 13.6951 1.16727 13.6726 1.24998 13.6326C1.33269 13.5926 1.40623 13.5359 1.466 13.4661L6.99933 7.93947L12.526 13.4661C12.6535 13.5754 12.8176 13.6324 12.9854 13.6259C13.1532 13.6195 13.3123 13.5499 13.431 13.4312C13.5498 13.3125 13.6193 13.1533 13.6258 12.9855C13.6323 12.8177 13.5752 12.6537 13.466 12.5261L7.93933 6.99947Z" fill="white"/>
</svg>
