<svg width="65" height="65" viewBox="0 0 65 65" fill="none" xmlns="http://www.w3.org/2000/svg">
<g clip-path="url(#clip0_12550_231926)">
<path d="M31.7005 0.0260001L32.5 1.54341e-07C35.5943 -0.000508125 38.5728 1.25441 40.8316 3.51021C43.0903 5.766 44.4601 8.85377 44.6631 12.1472L44.6875 13V20.9083H49.5625C51.5019 20.9083 53.3619 21.7301 54.7332 23.1929C56.1046 24.6557 56.875 26.6396 56.875 28.7083V57.2C56.875 59.2687 56.1046 61.2526 54.7332 62.7154C53.3619 64.1782 51.5019 65 49.5625 65H15.4375C13.4981 65 11.6381 64.1782 10.2668 62.7154C8.89542 61.2526 8.125 59.2687 8.125 57.2V28.7083C8.125 26.6396 8.89542 24.6557 10.2668 23.1929C11.6381 21.7301 13.4981 20.9083 15.4375 20.9083H20.3125V13C20.312 9.69946 21.4885 6.5223 23.6033 4.11296C25.7181 1.70363 28.6129 0.242515 31.7005 0.0260001ZM49.5625 26.1083H15.4375C14.791 26.1083 14.171 26.3823 13.7139 26.8699C13.2568 27.3575 13 28.0188 13 28.7083V57.2C13 57.8896 13.2568 58.5509 13.7139 59.0385C14.171 59.5261 14.791 59.8 15.4375 59.8H49.5625C50.209 59.8 50.829 59.5261 51.2861 59.0385C51.7432 58.5509 52 57.8896 52 57.2V28.7083C52 28.0188 51.7432 27.3575 51.2861 26.8699C50.829 26.3823 50.209 26.1083 49.5625 26.1083ZM33.202 5.2364L32.5 5.2C30.6822 5.20009 28.9296 5.92238 27.584 7.22602C26.2383 8.52965 25.3961 10.3212 25.2216 12.2512L25.1875 13V20.9083H39.8125V13C39.8124 11.061 39.1353 9.19157 37.9131 7.75622C36.6909 6.32088 35.0114 5.42254 33.202 5.2364Z" fill="#AB47BC"/>
<path d="M36.3298 39.5031C35.314 38.4873 33.9363 37.9166 32.4997 37.9166C31.0631 37.9166 29.6853 38.4873 28.6695 39.5031C27.6537 40.519 27.083 41.8967 27.083 43.3333C27.083 44.7699 27.6537 46.1476 28.6695 47.1635C29.6853 48.1793 31.0631 48.75 32.4997 48.75C33.9363 48.75 35.314 48.1793 36.3298 47.1635C37.3457 46.1476 37.9163 44.7699 37.9163 43.3333C37.9163 41.8967 37.3457 40.519 36.3298 39.5031Z" fill="#AB47BC"/>
</g>
<defs>
<clipPath id="clip0_12550_231926">
<rect width="65" height="65" fill="white"/>
</clipPath>
</defs>
</svg>
