<svg width="65" height="65" viewBox="0 0 65 65" fill="none" xmlns="http://www.w3.org/2000/svg">
<path d="M36.5625 38.5938H48.75V42.6562H36.5625V38.5938ZM36.5625 30.4688H60.9375V34.5312H36.5625V30.4688ZM36.5625 22.3438H60.9375V26.4062H36.5625V22.3438ZM28.4375 42.6562V38.5938H18.2812V34.5312H14.2188V38.5938H4.0625V42.6562H20.7492C20.0026 45.7048 18.4476 48.4956 16.248 50.7345C15.0949 49.5318 14.1066 48.1814 13.3088 46.7188H8.80141C9.83381 49.1978 11.3104 51.4674 13.1584 53.4158C10.9811 54.9664 8.60483 56.2167 6.09375 57.133L7.51969 60.9375C10.6447 59.7992 13.5819 58.1998 16.2338 56.1925C18.8974 58.2011 21.8461 59.8004 24.9823 60.9375L26.4062 57.133C23.8963 56.2183 21.5207 54.97 19.3436 53.4219C22.2108 50.4573 24.1392 46.7122 24.8869 42.6562H28.4375ZM22.683 26.4062H27.0827L17.7734 4.0625H13.3717L4.0625 26.4062H8.46219L10.1562 22.3438H20.9889L22.683 26.4062ZM11.8483 18.2812L15.5716 9.34375L19.2969 18.2812H11.8483Z" fill="#AB47BC"/>
</svg>
