<svg width="24" height="25" viewBox="0 0 24 25" fill="none" xmlns="http://www.w3.org/2000/svg">
<path fill-rule="evenodd" clip-rule="evenodd" d="M2.78484 14.7799C3.10061 15.0347 3.5452 15.0184 3.84313 14.7411L5.74954 12.9671C6.09159 12.6488 6.12197 12.101 5.81739 11.7435C5.51281 11.386 4.98861 11.3543 4.64656 11.6726L4.15166 12.1331C4.50523 8.89043 6.71634 6.05283 9.9171 5.17147C13.4486 4.19904 17.0548 5.9192 18.7387 9.11974C18.9594 9.53916 19.4636 9.69222 19.8649 9.4616C20.2663 9.23098 20.4127 8.70402 20.1921 8.28459C18.1502 4.40377 13.7793 2.31549 9.49451 3.49535C5.48138 4.6004 2.75417 8.23903 2.46822 12.3346L1.33613 11.4212C0.973599 11.1287 0.45281 11.1987 0.172914 11.5775C-0.106981 11.9564 -0.0399912 12.5007 0.322538 12.7932L2.78484 14.7799ZM21.0404 10.5486C20.7246 10.2938 20.28 10.3101 19.9821 10.5873L18.0757 12.3614C17.7336 12.6797 17.7032 13.2275 18.0078 13.585C18.3124 13.9424 18.8366 13.9742 19.1786 13.6559L19.6733 13.1956C19.3196 16.4382 17.1085 19.2757 13.9079 20.157C10.4017 21.1224 6.82189 19.4338 5.12275 16.2773C4.8982 15.8601 4.39256 15.7122 3.99338 15.9468C3.5942 16.1815 3.45264 16.7099 3.6772 17.1271C5.73738 20.9544 10.0763 23.0045 14.3305 21.8331C18.3436 20.728 21.0709 17.0893 21.3568 12.9937L22.4891 13.9073C22.8516 14.1998 23.3724 14.1298 23.6523 13.7509C23.9322 13.3721 23.8652 12.8278 23.5027 12.5353L21.0404 10.5486Z" fill="#D0D5DD"/>
<path fill-rule="evenodd" clip-rule="evenodd" d="M7.01411 10.9606C7.24234 10.2892 7.61667 9.67194 8.11233 9.14954C8.15337 9.1064 8.20681 9.07587 8.26591 9.06178C8.32502 9.04769 8.38715 9.05068 8.44449 9.07036L9.62705 9.47375C9.71105 9.50229 9.80051 9.51306 9.88926 9.50532C9.97802 9.49758 10.064 9.47152 10.1412 9.42891C10.2185 9.38631 10.2852 9.32818 10.3368 9.25851C10.3884 9.18885 10.4236 9.10931 10.4401 9.02536L10.6661 7.84519C10.6772 7.78783 10.7057 7.73489 10.7481 7.69305C10.7905 7.65122 10.8449 7.62237 10.9044 7.61016C11.6268 7.46328 12.3732 7.46328 13.0956 7.61016C13.2173 7.63516 13.3113 7.72767 13.3339 7.84519L13.5599 9.02536C13.5761 9.10945 13.6112 9.18916 13.6627 9.25898C13.7142 9.3288 13.781 9.38704 13.8583 9.42969C13.9356 9.47234 14.0217 9.49837 14.1106 9.50598C14.1994 9.51359 14.289 9.50259 14.3729 9.47375L15.5555 9.07036C15.6129 9.05068 15.675 9.04769 15.7341 9.06178C15.7932 9.07587 15.8466 9.1064 15.8877 9.14954C16.3829 9.67208 16.7569 10.2894 16.985 10.9606C17.0038 11.0161 17.005 11.0758 16.9882 11.1319C16.9715 11.188 16.9377 11.2381 16.8911 11.2757L15.9329 12.0516C15.8647 12.1066 15.8098 12.1752 15.7722 12.2527C15.7346 12.3302 15.7151 12.4146 15.7151 12.5C15.7151 12.5854 15.7346 12.6699 15.7722 12.7473C15.8098 12.8248 15.8647 12.8934 15.9329 12.9484L16.8911 13.7243C16.9868 13.8019 17.0233 13.926 16.985 14.0394C16.7571 14.7107 16.383 15.328 15.8877 15.8505C15.8466 15.8936 15.7932 15.9241 15.7341 15.9382C15.675 15.9523 15.6129 15.9493 15.5555 15.9297L14.3729 15.5263C14.2889 15.4977 14.1995 15.4869 14.1107 15.4947C14.022 15.5024 13.936 15.5285 13.8588 15.5711C13.7815 15.6137 13.7148 15.6718 13.6632 15.7415C13.6116 15.8112 13.5764 15.8907 13.5599 15.9747L13.3339 17.1548C13.3229 17.2123 13.2943 17.2654 13.2517 17.3073C13.2091 17.3491 13.1545 17.3779 13.0947 17.3899C12.3727 17.5367 11.6265 17.5367 10.9044 17.3899C10.8447 17.3778 10.7901 17.349 10.7476 17.3072C10.705 17.2653 10.6764 17.2123 10.6653 17.1548L10.4401 15.9747C10.4239 15.8906 10.3888 15.8109 10.3373 15.741C10.2858 15.6712 10.219 15.613 10.1417 15.5703C10.0644 15.5277 9.97829 15.5016 9.88943 15.494C9.80057 15.4864 9.71104 15.4974 9.62705 15.5263L8.44449 15.9297C8.38715 15.9493 8.32502 15.9523 8.26591 15.9382C8.20681 15.9241 8.15337 15.8936 8.11233 15.8505C7.61698 15.328 7.24296 14.7107 7.01498 14.0394C6.99616 13.9839 6.99505 13.9243 7.01178 13.8681C7.02851 13.812 7.06232 13.7619 7.10889 13.7243L8.06711 12.9484C8.1352 12.8933 8.18992 12.8247 8.22746 12.7472C8.265 12.6698 8.28444 12.5854 8.28444 12.5C8.28444 12.4146 8.265 12.3302 8.22746 12.2528C8.18992 12.1753 8.1352 12.1067 8.06711 12.0516L7.10889 11.2757C7.06232 11.2381 7.02851 11.188 7.01178 11.1319C6.99505 11.0758 6.99616 11.0161 7.01498 10.9606H7.01411ZM12 13.5C12.5523 13.5 13 13.0523 13 12.5C13 11.9477 12.5523 11.5 12 11.5C11.4477 11.5 11 11.9477 11 12.5C11 13.0523 11.4477 13.5 12 13.5Z" fill="#D0D5DD"/>
</svg>
