<svg width="18" height="18" viewBox="0 0 18 18" fill="none" xmlns="http://www.w3.org/2000/svg">
<path fill-rule="evenodd" clip-rule="evenodd" d="M2.08863 10.71C2.32545 10.901 2.6589 10.8888 2.88235 10.6809L4.31215 9.35036C4.56869 9.11163 4.59148 8.70076 4.36304 8.43266C4.13461 8.16456 3.74146 8.14075 3.48492 8.37947L3.11375 8.72488C3.37893 6.29286 5.03725 4.16466 7.43783 3.50364C10.0865 2.77431 12.7911 4.06443 14.054 6.46483C14.2195 6.7794 14.5977 6.8942 14.8987 6.72123C15.1997 6.54827 15.3096 6.15304 15.144 5.83848C13.6127 2.92786 10.3345 1.36165 7.12088 2.24654C4.11104 3.07533 2.06562 5.8043 1.85117 8.87598L1.0021 8.19091C0.730199 7.97153 0.339607 8.02403 0.129685 8.30818C-0.0802357 8.59233 -0.0299934 9.00053 0.241903 9.21991L2.08863 10.71ZM15.7803 7.53647C15.5435 7.34539 15.21 7.3576 14.9866 7.56553L13.5568 8.89606C13.3002 9.13479 13.2774 9.54566 13.5059 9.81376C13.7343 10.0819 14.1274 10.1057 14.384 9.86695L14.755 9.52174C14.4897 11.9537 12.8314 14.0818 10.4309 14.7428C7.80127 15.4669 5.11642 14.2004 3.84206 11.833C3.67365 11.5201 3.29442 11.4091 2.99503 11.5852C2.69565 11.7612 2.58948 12.1575 2.7579 12.4704C4.30304 15.3408 7.55726 16.8784 10.7478 15.9999C13.7577 15.1711 15.8032 12.442 16.0176 9.3703L16.8668 10.0555C17.1387 10.2749 17.5293 10.2224 17.7392 9.93824C17.9491 9.65409 17.8989 9.24589 17.627 9.02651L15.7803 7.53647Z" fill="#919CB1"/>
<path fill-rule="evenodd" clip-rule="evenodd" d="M5.26058 7.84547C5.43176 7.34193 5.7125 6.87895 6.08425 6.48715C6.11503 6.4548 6.1551 6.4319 6.19943 6.42134C6.24376 6.41077 6.29036 6.41301 6.33337 6.42777L7.22029 6.73031C7.28329 6.75172 7.35038 6.7598 7.41695 6.75399C7.48352 6.74819 7.54798 6.72864 7.60592 6.69668C7.66386 6.66473 7.71389 6.62113 7.75258 6.56889C7.79127 6.51664 7.8177 6.45698 7.83005 6.39402L7.99961 5.50889C8.00788 5.46587 8.02926 5.42616 8.06107 5.39479C8.09287 5.36341 8.13367 5.34178 8.17829 5.33262C8.72007 5.22246 9.27993 5.22246 9.82171 5.33262C9.91301 5.35137 9.98344 5.42075 10.0004 5.50889L10.17 6.39402C10.1821 6.45709 10.2084 6.51687 10.247 6.56923C10.2857 6.6216 10.3357 6.66528 10.3937 6.69727C10.4517 6.72926 10.5163 6.74878 10.5829 6.75448C10.6496 6.76019 10.7167 6.75194 10.7797 6.73031L11.6666 6.42777C11.7096 6.41301 11.7562 6.41077 11.8006 6.42134C11.8449 6.4319 11.885 6.4548 11.9158 6.48715C12.2872 6.87906 12.5677 7.34201 12.7388 7.84547C12.7529 7.8871 12.7537 7.93182 12.7412 7.97391C12.7286 8.016 12.7033 8.05355 12.6683 8.08175L11.9497 8.66371C11.8985 8.70496 11.8574 8.75643 11.8291 8.81452C11.8009 8.87262 11.7863 8.93592 11.7863 9.00001C11.7863 9.06409 11.8009 9.12739 11.8291 9.18549C11.8574 9.24358 11.8985 9.29505 11.9497 9.3363L12.6683 9.91826C12.7401 9.97639 12.7675 10.0695 12.7388 10.1545C12.5678 10.658 12.2873 11.121 11.9158 11.5129C11.885 11.5452 11.8449 11.5681 11.8006 11.5787C11.7562 11.5892 11.7096 11.587 11.6666 11.5722L10.7797 11.2697C10.7167 11.2483 10.6496 11.2402 10.5831 11.246C10.5165 11.2518 10.452 11.2714 10.3941 11.3033C10.3361 11.3353 10.2861 11.3789 10.2474 11.4311C10.2087 11.4834 10.1823 11.543 10.17 11.606L10.0004 12.4911C9.99216 12.5343 9.9707 12.5741 9.93876 12.6055C9.90682 12.6369 9.86584 12.6584 9.82105 12.6674C9.2795 12.7775 8.71985 12.7775 8.17829 12.6674C8.13355 12.6583 8.09261 12.6368 8.06068 12.6054C8.02875 12.574 8.00727 12.5342 7.99895 12.4911L7.83005 11.606C7.8179 11.5429 7.7916 11.4831 7.75296 11.4308C7.71432 11.3784 7.66427 11.3347 7.60627 11.3027C7.54828 11.2708 7.48372 11.2512 7.41707 11.2455C7.35043 11.2398 7.28328 11.2481 7.22029 11.2697L6.33337 11.5722C6.29036 11.587 6.24376 11.5892 6.19943 11.5787C6.1551 11.5681 6.11503 11.5452 6.08425 11.5129C5.71273 11.121 5.43222 10.658 5.26124 10.1545C5.24712 10.1129 5.24629 10.0682 5.25883 10.0261C5.27138 9.98401 5.29674 9.94646 5.33167 9.91826L6.05034 9.3363C6.1014 9.29499 6.14244 9.2435 6.17059 9.18541C6.19875 9.12733 6.21333 9.06405 6.21333 9.00001C6.21333 8.93596 6.19875 8.87268 6.17059 8.8146C6.14244 8.75651 6.1014 8.70502 6.05034 8.66371L5.33167 8.08175C5.29674 8.05355 5.27138 8.016 5.25883 7.97391C5.24629 7.93182 5.24712 7.8871 5.26124 7.84547H5.26058ZM9 9.75C9.41421 9.75 9.75 9.41421 9.75 9C9.75 8.58579 9.41421 8.25 9 8.25C8.58579 8.25 8.25 8.58579 8.25 9C8.25 9.41421 8.58579 9.75 9 9.75Z" fill="#919CB1"/>
</svg>
