<svg width="24" height="24" viewBox="0 0 24 24" fill="none" xmlns="http://www.w3.org/2000/svg">
<path d="M8.12121 8.12109C9.29262 6.94968 9.29262 5.04984 8.12121 3.87843C6.94981 2.70703 5.04996 2.70703 3.87855 3.87843C2.70715 5.04984 2.70715 6.94968 3.87855 8.12109C5.05043 9.29296 6.94981 9.29296 8.12121 8.12109ZM20.1212 15.8784C18.9498 14.707 17.05 14.707 15.8786 15.8784C14.7071 17.0498 14.7071 18.9497 15.8786 20.1211C17.05 21.2925 18.9498 21.2925 20.1212 20.1211C21.2931 18.9497 21.2931 17.0503 20.1212 15.8784ZM20.0303 5.03015L18.97 3.96984C18.384 3.3839 17.4343 3.3839 16.8489 3.96984L3.96996 16.8487C3.38402 17.4347 3.38402 18.3844 3.96996 18.9698L5.03027 20.0302C5.61621 20.6161 6.5659 20.6161 7.15137 20.0302L20.0303 7.15125C20.6162 6.56578 20.6162 5.61609 20.0303 5.03015Z" fill="#FF0F09"/>
<path d="M8.12121 8.12109C9.29262 6.94968 9.29262 5.04984 8.12121 3.87843C6.94981 2.70703 5.04996 2.70703 3.87855 3.87843C2.70715 5.04984 2.70715 6.94968 3.87855 8.12109C5.05043 9.29296 6.94981 9.29296 8.12121 8.12109ZM20.1212 15.8784C18.9498 14.707 17.05 14.707 15.8786 15.8784C14.7071 17.0498 14.7071 18.9497 15.8786 20.1211C17.05 21.2925 18.9498 21.2925 20.1212 20.1211C21.2931 18.9497 21.2931 17.0503 20.1212 15.8784ZM20.0303 5.03015L18.97 3.96984C18.384 3.3839 17.4343 3.3839 16.8489 3.96984L3.96996 16.8487C3.38402 17.4347 3.38402 18.3844 3.96996 18.9698L5.03027 20.0302C5.61621 20.6161 6.5659 20.6161 7.15137 20.0302L20.0303 7.15125C20.6162 6.56578 20.6162 5.61609 20.0303 5.03015Z" fill="url(#paint0_radial_10648_31085)"/>
<defs>
<radialGradient id="paint0_radial_10648_31085" cx="0" cy="0" r="1" gradientUnits="userSpaceOnUse" gradientTransform="translate(3.00012 21) rotate(-107.928) scale(17.8676 22.9897)">
<stop offset="0.314" stop-color="#FF9800"/>
<stop offset="0.662" stop-color="#FF6D00"/>
<stop offset="0.972" stop-color="#F44336"/>
</radialGradient>
</defs>
</svg>
