<svg width="56" height="56" viewBox="0 0 56 56" fill="none" xmlns="http://www.w3.org/2000/svg">
<circle cx="28" cy="28" r="28" fill="white"/>
<path d="M27.863 9C18.2163 9 18.8187 13.2053 18.8187 13.2053L18.8294 17.562H28.0351V18.8701H15.173C15.173 18.8701 9 18.1663 9 27.9509C9 37.7356 14.3879 37.3886 14.3879 37.3886H17.6034V32.8481C17.6034 32.8481 17.4301 27.432 22.9053 27.432C28.3805 27.432 32.0357 27.432 32.0357 27.432C32.0357 27.432 37.1655 27.5154 37.1655 22.4484C37.1655 17.3813 37.1655 14.0702 37.1655 14.0702C37.1655 14.0702 37.9443 9 27.863 9ZM22.787 11.9297C23.7029 11.9297 24.4432 12.6738 24.4432 13.5945C24.4432 14.5152 23.7029 15.2593 22.787 15.2593C21.8711 15.2593 21.1308 14.5152 21.1308 13.5945C21.1308 12.6738 21.8711 11.9297 22.787 11.9297Z" fill="url(#paint0_linear_12653_43259)"/>
<path d="M28.1367 47.0002C37.7835 47.0002 37.1811 42.7949 37.1811 42.7949L37.1703 38.4382H27.9647V37.1302H40.8268C40.8268 37.1302 46.9997 37.8339 46.9997 28.0493C46.9997 18.2646 41.6118 18.6116 41.6118 18.6116H38.3963V23.1521C38.3963 23.1521 38.5696 28.5682 33.0944 28.5682C27.6193 28.5682 23.9641 28.5682 23.9641 28.5682C23.9641 28.5682 18.8343 28.4848 18.8343 33.5519C18.8343 38.6189 18.8343 41.9301 18.8343 41.9301C18.8343 41.9301 18.0554 47.0002 28.1367 47.0002ZM33.2127 44.0705C32.2968 44.0705 31.5566 43.3264 31.5566 42.4057C31.5566 41.485 32.2968 40.7409 33.2127 40.7409C34.1286 40.7409 34.8689 41.485 34.8689 42.4057C34.8689 43.3264 34.1286 44.0705 33.2127 44.0705Z" fill="url(#paint1_linear_12653_43259)"/>
<defs>
<linearGradient id="paint0_linear_12653_43259" x1="12.6519" y1="12.3215" x2="31.5402" y2="31.1743" gradientUnits="userSpaceOnUse">
<stop stop-color="#387EB8"/>
<stop offset="1" stop-color="#366994"/>
</linearGradient>
<linearGradient id="paint1_linear_12653_43259" x1="24.2103" y1="24.3778" x2="44.4916" y2="43.7071" gradientUnits="userSpaceOnUse">
<stop stop-color="#FFE052"/>
<stop offset="1" stop-color="#FFC331"/>
</linearGradient>
</defs>
</svg>
