<svg width="64" height="64" viewBox="0 0 64 64" fill="none" xmlns="http://www.w3.org/2000/svg">
<path d="M54.6667 16C47.7067 17.8667 39.5467 18.6667 32 18.6667C24.4533 18.6667 16.2933 17.8667 9.33333 16L8 21.3334C12.96 22.6667 18.6667 23.5467 24 24V58.6667H29.3333V42.6667H34.6667V58.6667H40V24C45.3333 23.5467 51.04 22.6667 56 21.3334L54.6667 16ZM32 16C34.9333 16 37.3333 13.6 37.3333 10.6667C37.3333 7.73337 34.9333 5.33337 32 5.33337C29.0667 5.33337 26.6667 7.73337 26.6667 10.6667C26.6667 13.6 29.0667 16 32 16Z" fill="#AB47BC"/>
</svg>
