<svg width="64" height="64" viewBox="0 0 64 64" fill="none" xmlns="http://www.w3.org/2000/svg">
<path d="M34.9587 15.2533L33.4387 22.9599C33.1187 24.5333 33.5454 26.1599 34.5587 27.3866C35.572 28.6133 37.0654 29.3333 38.6654 29.3333H53.332V32.2133L46.4787 47.9999H24.9054C24.4254 47.9999 23.9987 47.5733 23.9987 47.0933V26.1866L34.9587 15.2533ZM37.332 5.33325L20.2387 22.4266C19.2254 23.4399 18.6654 24.7999 18.6654 26.2133V47.0933C18.6654 50.5333 21.4654 53.3333 24.9054 53.3333H46.5054C48.3987 53.3333 50.132 52.3466 51.092 50.7466L58.212 34.3466C58.5054 33.6799 58.6654 32.9599 58.6654 32.2133V29.3333C58.6654 26.3999 56.2654 23.9999 53.332 23.9999H38.6654L41.1187 11.5999C41.252 11.0133 41.172 10.3733 40.9054 9.83992C40.292 8.63992 39.5187 7.54659 38.5587 6.58659L37.332 5.33325ZM10.6654 23.9999H5.33203V53.3333H10.6654C12.132 53.3333 13.332 52.1333 13.332 50.6666V26.6666C13.332 25.1999 12.132 23.9999 10.6654 23.9999Z" fill="#AB47BC"/>
</svg>
