<svg width="64" height="64" viewBox="0 0 64 64" fill="none" xmlns="http://www.w3.org/2000/svg">
<path d="M31.4649 29.0667C25.4116 27.4933 23.4649 25.8667 23.4649 23.3333C23.4649 20.4267 26.1582 18.4 30.6649 18.4C35.4116 18.4 37.1716 20.6667 37.3316 24H43.2249C43.0382 19.4133 40.2382 15.2 34.6649 13.84V8H26.6649V13.76C21.4916 14.88 17.3316 18.24 17.3316 23.3867C17.3316 29.5467 22.4249 32.6133 29.8649 34.4C36.5316 36 37.8649 38.3467 37.8649 40.8267C37.8649 42.6667 36.5582 45.6 30.6649 45.6C25.1716 45.6 23.0116 43.1467 22.7182 40H16.8516C17.1716 45.84 21.5449 49.12 26.6649 50.2133V56H34.6649V50.2667C39.8649 49.28 43.9982 46.2667 43.9982 40.8C43.9982 33.2267 37.5182 30.64 31.4649 29.0667Z" fill="#AB47BC"/>
</svg>
