<svg width="64" height="64" viewBox="0 0 64 64" fill="none" xmlns="http://www.w3.org/2000/svg">
<path d="M26.6641 21.3333V37.3333L39.1974 45.0666L41.3307 41.8666L30.6641 35.4666V21.3333H26.6641Z" fill="#AB47BC"/>
<path d="M47.7854 31.9998C47.9187 32.8798 47.9987 33.7598 47.9987 34.6665C47.9987 45.0665 39.732 53.3332 29.332 53.3332C18.932 53.3332 10.6654 45.0665 10.6654 34.6665C10.6654 24.2665 18.932 15.9998 29.332 15.9998C31.1987 15.9998 32.9854 16.2665 34.6654 16.7732V11.2798C32.9587 10.8798 31.172 10.6665 29.332 10.6665C15.9987 10.6665 5.33203 21.3332 5.33203 34.6665C5.33203 47.9998 15.9987 58.6665 29.332 58.6665C42.6654 58.6665 53.332 47.9998 53.332 34.6665C53.332 33.7598 53.2787 32.8798 53.172 31.9998H47.7854Z" fill="#AB47BC"/>
<path d="M53.3333 13.3333V5.33325H48V13.3333H40V18.6666H48V26.6666H53.3333V18.6666H61.3333V13.3333H53.3333Z" fill="#AB47BC"/>
</svg>
