<svg width="64" height="64" viewBox="0 0 64 64" fill="none" xmlns="http://www.w3.org/2000/svg">
<path d="M58.6667 13.3333V18.6666H50.6667V26.6666H45.3333V18.6666H37.3333V13.3333H45.3333V5.33325H50.6667V13.3333H58.6667ZM50.6667 50.6666H13.3333V13.3333H29.3333V7.99992H13.3333C10.4 7.99992 8 10.3999 8 13.3333V50.6666C8 53.5999 10.4 55.9999 13.3333 55.9999H50.6667C53.6 55.9999 56 53.5999 56 50.6666V34.6666H50.6667V50.6666ZM40 34.6666V45.3333H45.3333V34.6666H40ZM29.3333 45.3333H34.6667V23.9999H29.3333V45.3333ZM24 45.3333V29.3333H18.6667V45.3333H24Z" fill="#AB47BC"/>
</svg>
