<?xml version="1.0" encoding="UTF-8"?>
<svg xmlns="http://www.w3.org/2000/svg" width="101" height="101" viewBox="0 0 101 101" fill="none"> <path d="M29.8795 56.3314C31.87 55.0014 34.2102 54.2915 36.6042 54.2915C38.1937 54.2915 39.7677 54.6046 41.2362 55.2129C42.7048 55.8212 44.0391 56.7128 45.1631 57.8367C46.2871 58.9607 47.1787 60.2951 47.787 61.7636C48.3953 63.2322 48.7083 64.8061 48.7083 66.3957C48.7083 68.7896 47.9984 71.1299 46.6684 73.1204C45.3384 75.1109 43.448 76.6623 41.2362 77.5785C39.0245 78.4946 36.5907 78.7343 34.2428 78.2673C31.8948 77.8002 29.738 76.6474 28.0452 74.9546C26.3524 73.2618 25.1996 71.1051 24.7326 68.7571C24.2655 66.4091 24.5052 63.9754 25.4214 61.7636C26.3375 59.5519 27.8889 57.6614 29.8795 56.3314Z" stroke="#AB47BC"/> <g filter="url(#filter0_d_11011_252844)"> <path d="M68.6872 64.1043H74.4163C75.0241 64.1043 75.607 64.3458 76.0368 64.7755C76.4666 65.2053 76.708 65.7882 76.708 66.396C76.708 67.0038 76.4666 67.5867 76.0368 68.0164C75.607 68.4462 75.0241 68.6877 74.4163 68.6877H68.6872V74.4168C68.6872 75.0246 68.4457 75.6075 68.016 76.0373C67.5862 76.4671 67.0033 76.7085 66.3955 76.7085C65.7877 76.7085 65.2048 76.4671 64.7751 76.0373C64.3453 75.6075 64.1038 75.0246 64.1038 74.4168V68.6877H58.3747C57.7669 68.6877 57.184 68.4462 56.7542 68.0164C56.3244 67.5867 56.083 67.0038 56.083 66.396C56.083 65.7882 56.3244 65.2053 56.7542 64.7755C57.184 64.3458 57.7669 64.1043 58.3747 64.1043H64.1038V58.3752C64.1038 57.7674 64.3453 57.1845 64.7751 56.7547C65.2048 56.3249 65.7877 56.0835 66.3955 56.0835C67.0033 56.0835 67.5862 56.3249 68.016 56.7547C68.4457 57.1845 68.6872 57.7674 68.6872 58.3752V64.1043Z" fill="#AB47BC"/> </g> <g filter="url(#filter1_d_11011_252844)"> <path d="M47.0842 43.6067C48.4691 41.5339 49.2083 39.097 49.2083 36.6042C49.2083 34.949 48.8823 33.31 48.2489 31.7808C47.6155 30.2516 46.6871 28.8621 45.5167 27.6917C44.3463 26.5213 42.9568 25.5929 41.4276 24.9594C39.8984 24.326 38.2594 24 36.6042 24C34.1113 24 31.6744 24.7392 29.6017 26.1242C27.5289 27.5091 25.9134 29.4777 24.9594 31.7808C24.0055 34.0839 23.7559 36.6181 24.2422 39.0631C24.7285 41.5081 25.929 43.7539 27.6917 45.5167C29.4544 47.2794 31.7003 48.4798 34.1452 48.9661C36.5902 49.4525 39.1245 49.2029 41.4276 48.2489C43.7307 47.2949 45.6992 45.6794 47.0842 43.6067Z" fill="#AB47BC"/> </g> <path d="M73.1209 46.6684C71.1303 47.9984 68.7901 48.7083 66.3962 48.7083C63.1859 48.7083 60.1072 47.4331 57.8372 45.1631C55.5672 42.8931 54.292 39.8144 54.292 36.6042C54.292 34.2102 55.0019 31.87 56.3319 29.8795C57.6619 27.8889 59.5523 26.3375 61.7641 25.4214C63.9758 24.5052 66.4096 24.2655 68.7576 24.7326C71.1055 25.1996 73.2623 26.3524 74.9551 28.0452C76.6479 29.738 77.8007 31.8948 78.2677 34.2428C78.7348 36.5907 78.4951 39.0245 77.5789 41.2362C76.6628 43.448 75.1114 45.3384 73.1209 46.6684Z" stroke="#AB47BC"/> <defs> <filter id="filter0_d_11011_252844" x="32.083" y="32.0835" width="68.625" height="68.625" filterUnits="userSpaceOnUse" color-interpolation-filters="sRGB"> <feFlood flood-opacity="0" result="BackgroundImageFix"/> <feColorMatrix in="SourceAlpha" type="matrix" values="0 0 0 0 0 0 0 0 0 0 0 0 0 0 0 0 0 0 127 0" result="hardAlpha"/> <feOffset/> <feGaussianBlur stdDeviation="12"/> <feComposite in2="hardAlpha" operator="out"/> <feColorMatrix type="matrix" values="0 0 0 0 0.670588 0 0 0 0 0.278431 0 0 0 0 0.737255 0 0 0 1 0"/> <feBlend mode="normal" in2="BackgroundImageFix" result="effect1_dropShadow_11011_252844"/> <feBlend mode="normal" in="SourceGraphic" in2="effect1_dropShadow_11011_252844" result="shape"/> </filter> <filter id="filter1_d_11011_252844" x="0" y="0" width="73.208" height="73.2085" filterUnits="userSpaceOnUse" color-interpolation-filters="sRGB"> <feFlood flood-opacity="0" result="BackgroundImageFix"/> <feColorMatrix in="SourceAlpha" type="matrix" values="0 0 0 0 0 0 0 0 0 0 0 0 0 0 0 0 0 0 127 0" result="hardAlpha"/> <feOffset/> <feGaussianBlur stdDeviation="12"/> <feComposite in2="hardAlpha" operator="out"/> <feColorMatrix type="matrix" values="0 0 0 0 0.670588 0 0 0 0 0.278431 0 0 0 0 0.737255 0 0 0 1 0"/> <feBlend mode="normal" in2="BackgroundImageFix" result="effect1_dropShadow_11011_252844"/> <feBlend mode="normal" in="SourceGraphic" in2="effect1_dropShadow_11011_252844" result="shape"/> </filter> </defs> </svg>