<?xml version="1.0" encoding="UTF-8"?>
<svg xmlns="http://www.w3.org/2000/svg" width="80" height="80" viewBox="0 0 80 80" fill="none"> <g filter="url(#filter0_d_11011_252861)"> <path d="M29.0511 56C29.8257 56.0004 30.5901 55.8226 31.285 55.4803C31.98 55.138 32.5869 54.6404 33.0589 54.0259C33.5309 53.4115 33.8553 52.6967 34.007 51.9368C34.1587 51.177 34.1337 50.3924 33.9338 49.6437L39.261 44.3114L39.3621 44.2104H47.5785C47.7998 44.2108 48.0189 44.1676 48.2235 44.0832C48.428 43.9988 48.6139 43.8749 48.7706 43.7186L55.5053 36.9817C55.7414 36.7461 55.9023 36.4458 55.9675 36.1187C56.0327 35.7915 55.9993 35.4524 55.8717 35.1443C55.744 34.8362 55.5277 34.5729 55.2503 34.3879C54.9728 34.2029 54.6467 34.1044 54.3133 34.105H45.8948V25.6839C45.8947 25.351 45.7961 25.0256 45.6113 24.7488C45.4265 24.472 45.1638 24.2562 44.8565 24.1286C44.5491 24.0011 44.2109 23.9674 43.8845 24.032C43.5581 24.0966 43.2581 24.2564 43.0224 24.4914L36.2876 31.2284C36.1308 31.3848 36.0063 31.5706 35.9214 31.7752C35.8364 31.9799 35.7927 32.1992 35.7926 32.4208V40.6398C35.758 40.6726 35.7243 40.7063 35.6916 40.7409L30.3644 46.063C29.6153 45.862 28.8301 45.8361 28.0695 45.9872C27.3088 46.1384 26.5931 46.4627 25.9778 46.9349C25.3625 47.4071 24.8641 48.0146 24.5211 48.7104C24.1782 49.4061 23.9999 50.1715 24 50.9473C24 52.2874 24.5322 53.5725 25.4794 54.5201C26.4267 55.4677 27.7115 56 29.0511 56Z" fill="#AB47BC"/> </g> <path d="M31.8 35.3301C30.7337 35.1136 29.6301 35 28.5 35C19.3873 35 12 42.3873 12 51.5C12 60.6127 19.3873 68 28.5 68C37.6127 68 45 60.6127 45 51.5C45 50.3699 44.8864 49.2663 44.6699 48.2" stroke="#AB47BC" stroke-width="2" stroke-linecap="round"/> <path d="M36.5 25.1818C33.9685 24.4133 31.2825 24 28.5 24C13.3122 24 1 36.3122 1 51.5C1 66.6878 13.3122 79 28.5 79C43.6878 79 56 66.6878 56 51.5C56 48.7175 55.5867 46.0315 54.8182 43.5" stroke="#AB47BC" stroke-width="2" stroke-linecap="round"/> <defs> <filter id="filter0_d_11011_252861" x="0" y="0" width="80" height="80" filterUnits="userSpaceOnUse" color-interpolation-filters="sRGB"> <feFlood flood-opacity="0" result="BackgroundImageFix"/> <feColorMatrix in="SourceAlpha" type="matrix" values="0 0 0 0 0 0 0 0 0 0 0 0 0 0 0 0 0 0 127 0" result="hardAlpha"/> <feOffset/> <feGaussianBlur stdDeviation="12"/> <feComposite in2="hardAlpha" operator="out"/> <feColorMatrix type="matrix" values="0 0 0 0 0.670588 0 0 0 0 0.278431 0 0 0 0 0.737255 0 0 0 1 0"/> <feBlend mode="normal" in2="BackgroundImageFix" result="effect1_dropShadow_11011_252861"/> <feBlend mode="normal" in="SourceGraphic" in2="effect1_dropShadow_11011_252861" result="shape"/> </filter> </defs> </svg>