<?xml version="1.0" encoding="UTF-8"?>
<svg xmlns="http://www.w3.org/2000/svg" width="79" height="79" viewBox="0 0 79 79" fill="none"> <path d="M41.5822 14.9756H61.4183C62.8578 14.9756 64.0248 16.1426 64.0248 17.5821V37.4182C64.0248 38.8578 62.8578 40.0248 61.4183 40.0248H41.5822C40.1426 40.0248 38.9756 38.8578 38.9756 37.4182V17.5821C38.9756 16.1426 40.1426 14.9756 41.5822 14.9756Z" stroke="#AB47BC" stroke-width="2"/> <path d="M55.5577 1H75.3939C76.8334 1 78.0004 2.167 78.0004 3.60656V23.4426C78.0004 24.8822 76.8334 26.0492 75.3939 26.0492H55.5577C54.1182 26.0492 52.9512 24.8822 52.9512 23.4426V3.60656C52.9512 2.167 54.1182 1 55.5577 1Z" stroke="#AB47BC" stroke-width="2"/> <g filter="url(#filter0_d_11011_252819)"> <path d="M47.4427 27.9507H27.6066C25.6147 27.9507 24 29.5654 24 31.5572V51.3933C24 53.3852 25.6147 54.9999 27.6066 54.9999H47.4427C49.4345 54.9999 51.0492 53.3852 51.0492 51.3933V31.5572C51.0492 29.5654 49.4345 27.9507 47.4427 27.9507Z" fill="#AB47BC"/> </g> <defs> <filter id="filter0_d_11011_252819" x="0" y="3.95068" width="75.0488" height="75.0493" filterUnits="userSpaceOnUse" color-interpolation-filters="sRGB"> <feFlood flood-opacity="0" result="BackgroundImageFix"/> <feColorMatrix in="SourceAlpha" type="matrix" values="0 0 0 0 0 0 0 0 0 0 0 0 0 0 0 0 0 0 127 0" result="hardAlpha"/> <feOffset/> <feGaussianBlur stdDeviation="12"/> <feComposite in2="hardAlpha" operator="out"/> <feColorMatrix type="matrix" values="0 0 0 0 0.670588 0 0 0 0 0.278431 0 0 0 0 0.737255 0 0 0 1 0"/> <feBlend mode="normal" in2="BackgroundImageFix" result="effect1_dropShadow_11011_252819"/> <feBlend mode="normal" in="SourceGraphic" in2="effect1_dropShadow_11011_252819" result="shape"/> </filter> </defs> </svg>