<?xml version="1.0" encoding="UTF-8"?>
<svg xmlns="http://www.w3.org/2000/svg" width="78" height="67" viewBox="0 0 78 67" fill="none"> <path d="M9.16634 28.5002C7.22142 28.5002 5.35616 27.7275 3.98089 26.3523C2.60563 24.977 1.83301 23.1118 1.83301 21.1668C1.83301 19.2219 2.60563 17.3566 3.98089 15.9814C5.35616 14.6061 7.22142 13.8335 9.16634 13.8335C11.1113 13.8335 12.9765 14.6061 14.3518 15.9814C15.7271 17.3566 16.4997 19.2219 16.4997 21.1668C16.4997 23.1118 15.7271 24.977 14.3518 26.3523C12.9765 27.7275 11.1113 28.5002 9.16634 28.5002ZM9.16634 28.5002V50.5002M9.16634 50.5002C7.71595 50.5002 6.29812 50.9303 5.09216 51.7361C3.8862 52.5419 2.94627 53.6872 2.39123 55.0272C1.83619 56.3671 1.69096 57.8416 1.97392 59.2642C2.25688 60.6867 2.95531 61.9934 3.98089 63.0189C5.00648 64.0445 6.31315 64.743 7.73568 65.0259C9.15821 65.3089 10.6327 65.1637 11.9727 64.6086C13.3127 64.0536 14.458 63.1136 15.2638 61.9077C16.0696 60.7017 16.4997 59.2839 16.4997 57.8335M9.16634 50.5002C11.1113 50.5002 12.9765 51.2728 14.3518 52.6481C15.7271 54.0233 16.4997 55.8886 16.4997 57.8335M16.4997 57.8335H34.833C37.7504 57.8335 40.5483 56.6746 42.6112 54.6117C44.6741 52.5488 45.833 49.7509 45.833 46.8335V39.5" stroke="#AB47BC" stroke-width="2"/> <g filter="url(#filter0_d_11011_252869)"> <path d="M40.6479 37.3523C42.0232 38.7275 43.8884 39.5002 45.8333 39.5002C47.7783 39.5002 49.6435 38.7275 51.0188 37.3523C52.3941 35.977 53.1667 34.1118 53.1667 32.1668C53.1667 30.2219 52.3941 28.3566 51.0188 26.9814C49.6435 25.6061 47.7783 24.8335 45.8333 24.8335C43.8884 24.8335 42.0232 25.6061 40.6479 26.9814C39.2726 28.3566 38.5 30.2219 38.5 32.1668C38.5 34.1118 39.2726 35.977 40.6479 37.3523Z" fill="#AB47BC"/> </g> <defs> <filter id="filter0_d_11011_252869" x="14.5" y="0.833496" width="62.667" height="62.6665" filterUnits="userSpaceOnUse" color-interpolation-filters="sRGB"> <feFlood flood-opacity="0" result="BackgroundImageFix"/> <feColorMatrix in="SourceAlpha" type="matrix" values="0 0 0 0 0 0 0 0 0 0 0 0 0 0 0 0 0 0 127 0" result="hardAlpha"/> <feOffset/> <feGaussianBlur stdDeviation="12"/> <feComposite in2="hardAlpha" operator="out"/> <feColorMatrix type="matrix" values="0 0 0 0 0.670588 0 0 0 0 0.278431 0 0 0 0 0.737255 0 0 0 1 0"/> <feBlend mode="normal" in2="BackgroundImageFix" result="effect1_dropShadow_11011_252869"/> <feBlend mode="normal" in="SourceGraphic" in2="effect1_dropShadow_11011_252869" result="shape"/> </filter> </defs> </svg>