<?xml version="1.0" encoding="UTF-8"?>
<svg xmlns="http://www.w3.org/2000/svg" width="80" height="80" viewBox="0 0 80 80" fill="none"> <path d="M56 28.4999C56 23.0609 54.3872 17.7441 51.3657 13.2218C48.3437 8.69945 44.0491 5.17473 39.0239 3.09332C33.999 1.01192 28.4696 0.467326 23.1351 1.52841C17.8006 2.5895 12.9005 5.20862 9.0546 9.05454C5.20865 12.9005 2.58951 17.8005 1.52842 23.135C0.467322 28.4694 1.01192 33.9987 3.09333 39.0237C5.17476 44.0488 8.6995 48.3434 13.2219 51.3653C17.7442 54.3868 23.0611 55.9996 28.5001 55.9996V28.4999H56Z" stroke="#AB47BC" stroke-width="2"/> <g filter="url(#filter0_d_11011_252812)"> <path d="M54.4373 43.3279C55.4689 40.8374 55.9999 38.168 55.9999 35.4722H35.4717V56.0003C38.1675 56.0003 40.8369 55.4693 43.3275 54.4376C45.8181 53.406 48.0811 51.8939 49.9873 49.9877C51.8936 48.0815 53.4057 45.8185 54.4373 43.3279Z" fill="#AB47BC"/> </g> <defs> <filter id="filter0_d_11011_252812" x="11.4717" y="11.4722" width="68.5283" height="68.5283" filterUnits="userSpaceOnUse" color-interpolation-filters="sRGB"> <feFlood flood-opacity="0" result="BackgroundImageFix"/> <feColorMatrix in="SourceAlpha" type="matrix" values="0 0 0 0 0 0 0 0 0 0 0 0 0 0 0 0 0 0 127 0" result="hardAlpha"/> <feOffset/> <feGaussianBlur stdDeviation="12"/> <feComposite in2="hardAlpha" operator="out"/> <feColorMatrix type="matrix" values="0 0 0 0 0.670588 0 0 0 0 0.278431 0 0 0 0 0.737255 0 0 0 1 0"/> <feBlend mode="normal" in2="BackgroundImageFix" result="effect1_dropShadow_11011_252812"/> <feBlend mode="normal" in="SourceGraphic" in2="effect1_dropShadow_11011_252812" result="shape"/> </filter> </defs> </svg>