<?xml version="1.0" encoding="UTF-8"?>
<svg xmlns="http://www.w3.org/2000/svg" width="103" height="65" viewBox="0 0 103 65" fill="none"> <path d="M76.25 5H26.75C25.2312 5 24 6.32592 24 7.96153V18.1153C24 19.7509 25.2312 21.0769 26.75 21.0769H76.25C77.7688 21.0769 79 19.7509 79 18.1153V7.96153C79 6.32592 77.7688 5 76.25 5Z" stroke="#AB47BC" stroke-width="2"/> <g filter="url(#filter0_d_11011_252827)"> <path d="M76.25 24.4614H26.75C25.2312 24.4614 24 25.7873 24 27.423V37.5768C24 39.2124 25.2312 40.5383 26.75 40.5383H76.25C77.7688 40.5383 79 39.2124 79 37.5768V27.423C79 25.7873 77.7688 24.4614 76.25 24.4614Z" fill="#AB47BC"/> </g> <path d="M76.25 43.9233H26.75C25.2312 43.9233 24 45.2493 24 46.8849V57.0387C24 58.6743 25.2312 60.0002 26.75 60.0002H76.25C77.7688 60.0002 79 58.6743 79 57.0387V46.8849C79 45.2493 77.7688 43.9233 76.25 43.9233Z" stroke="#AB47BC" stroke-width="2"/> <defs> <filter id="filter0_d_11011_252827" x="0" y="0.461426" width="103" height="64.0767" filterUnits="userSpaceOnUse" color-interpolation-filters="sRGB"> <feFlood flood-opacity="0" result="BackgroundImageFix"/> <feColorMatrix in="SourceAlpha" type="matrix" values="0 0 0 0 0 0 0 0 0 0 0 0 0 0 0 0 0 0 127 0" result="hardAlpha"/> <feOffset/> <feGaussianBlur stdDeviation="12"/> <feComposite in2="hardAlpha" operator="out"/> <feColorMatrix type="matrix" values="0 0 0 0 0.670588 0 0 0 0 0.278431 0 0 0 0 0.737255 0 0 0 1 0"/> <feBlend mode="normal" in2="BackgroundImageFix" result="effect1_dropShadow_11011_252827"/> <feBlend mode="normal" in="SourceGraphic" in2="effect1_dropShadow_11011_252827" result="shape"/> </filter> </defs> </svg>