<?xml version="1.0" encoding="UTF-8"?>
<svg xmlns="http://www.w3.org/2000/svg" width="82" height="82" viewBox="0 0 82 82" fill="none"> <g filter="url(#filter0_d_11011_252835)"> <path d="M40.6807 57.3615C49.8933 57.3615 57.3615 49.8933 57.3615 40.6807C57.3615 31.4682 49.8933 24 40.6807 24C31.4682 24 24 31.4682 24 40.6807C24 49.8933 31.4682 57.3615 40.6807 57.3615Z" fill="#AB47BC"/> </g> <path d="M78.0002 40.6807C78.0002 49.341 70.9797 56.3615 62.3194 56.3615C53.6592 56.3615 46.6387 49.341 46.6387 40.6807C46.6387 32.0205 53.6592 25 62.3194 25C70.9797 25 78.0002 32.0205 78.0002 40.6807Z" stroke="#AB47BC" stroke-width="2"/> <path d="M67.1828 62.3209C67.1828 70.9811 60.1623 78.0016 51.502 78.0016C42.8418 78.0016 35.8213 70.9811 35.8213 62.3209C35.8213 53.6606 42.8418 46.6401 51.502 46.6401C60.1623 46.6401 67.1828 53.6606 67.1828 62.3209Z" stroke="#AB47BC" stroke-width="2"/> <defs> <filter id="filter0_d_11011_252835" x="0" y="0" width="81.3613" height="81.3613" filterUnits="userSpaceOnUse" color-interpolation-filters="sRGB"> <feFlood flood-opacity="0" result="BackgroundImageFix"/> <feColorMatrix in="SourceAlpha" type="matrix" values="0 0 0 0 0 0 0 0 0 0 0 0 0 0 0 0 0 0 127 0" result="hardAlpha"/> <feOffset/> <feGaussianBlur stdDeviation="12"/> <feComposite in2="hardAlpha" operator="out"/> <feColorMatrix type="matrix" values="0 0 0 0 0.670588 0 0 0 0 0.278431 0 0 0 0 0.737255 0 0 0 1 0"/> <feBlend mode="normal" in2="BackgroundImageFix" result="effect1_dropShadow_11011_252835"/> <feBlend mode="normal" in="SourceGraphic" in2="effect1_dropShadow_11011_252835" result="shape"/> </filter> </defs> </svg>