<?xml version="1.0" encoding="UTF-8"?>
<svg xmlns="http://www.w3.org/2000/svg" width="79" height="78" viewBox="0 0 79 78" fill="none"> <path d="M65.8434 34.395L65.8453 34.3976C65.9316 34.5126 65.9841 34.6494 65.997 34.7926C66.0099 34.9358 65.9827 35.0798 65.9184 35.2084C65.8541 35.337 65.7553 35.4451 65.633 35.5207C65.5107 35.5963 65.3697 35.6363 65.226 35.6363H55.4679V35.6362L55.4552 35.6364C55.3548 35.6377 55.2552 35.6188 55.1623 35.581C55.0693 35.5432 54.9848 35.4872 54.9139 35.4162L54.2068 36.1233L54.9139 35.4162C54.8429 35.3452 54.7868 35.2608 54.749 35.1678C54.7112 35.0748 54.6924 34.9752 54.6937 34.8749H54.6937L54.6937 34.8665C54.7013 33.1395 54.4037 31.4247 53.8147 29.8012C52.626 26.4373 50.2915 23.599 47.2202 21.7836C47.0824 21.7003 46.9731 21.5771 46.9067 21.4304C46.8404 21.2838 46.8201 21.1207 46.8483 20.9624C47.0823 19.7398 47.6029 18.5901 48.3674 17.6077C49.1328 16.6241 50.1209 15.8364 51.2503 15.3093C52.3797 14.7822 53.6182 14.5309 54.8637 14.576C56.1093 14.621 57.3263 14.9613 58.4146 15.5686C59.503 16.176 60.4315 17.0332 61.1238 18.0695C61.8162 19.1059 62.2525 20.2919 62.3969 21.5298C62.5413 22.7678 62.3896 24.0223 61.9544 25.1902C61.5192 26.3581 60.8128 27.406 59.8935 28.2475L58.7557 29.289L60.1709 29.9026C62.4219 30.8786 64.3777 32.4275 65.8434 34.395Z" stroke="#AB47BC" stroke-width="2"/> <g filter="url(#filter0_d_11011_252853)"> <path d="M45.9759 43.3117C47.7416 41.9584 49.039 40.0858 49.6856 37.9571C50.3323 35.8285 50.2958 33.5507 49.5812 31.4438C48.8667 29.337 47.51 27.507 45.7018 26.2109C43.8937 24.9148 41.7248 24.2178 39.5001 24.2178C37.2754 24.2178 35.1066 24.9148 33.2984 26.2109C31.4902 27.507 30.1336 29.337 29.419 31.4438C28.7045 33.5507 28.668 35.8285 29.3146 37.9571C29.9613 40.0858 31.2586 41.9584 33.0244 43.3117C29.5747 44.8432 26.7781 47.5456 25.1292 50.9407C24.998 51.2105 24.9393 51.5098 24.9587 51.8092C24.9782 52.1086 25.0751 52.3978 25.2401 52.6484C25.3937 52.9054 25.6113 53.1182 25.8718 53.266C26.1322 53.4137 26.4266 53.4913 26.726 53.4911H52.2743C52.5737 53.4913 52.868 53.4137 53.1285 53.266C53.3889 53.1182 53.6066 52.9054 53.7601 52.6484C53.9251 52.3978 54.0221 52.1086 54.0415 51.8092C54.061 51.5098 54.0022 51.2105 53.871 50.9407C52.2222 47.5456 49.4255 44.8432 45.9759 43.3117Z" fill="#AB47BC"/> </g> <path d="M24.3064 34.8665H24.3065C24.2989 33.1393 24.5966 31.4242 25.1858 29.8006C26.3794 26.44 28.7123 23.6036 31.7795 21.7839M24.3064 34.8665L32.2923 22.6424M24.3064 34.8665L24.3065 34.8749C24.3078 34.9752 24.289 35.0748 24.2512 35.1678L25.1775 35.5446L24.2512 35.1678C24.2134 35.2608 24.1573 35.3452 24.0863 35.4162L24.7935 36.1233L24.0863 35.4162C24.0154 35.4872 23.9309 35.5432 23.8379 35.581C23.745 35.6188 23.6454 35.6377 23.545 35.6364L23.545 35.6363H23.5323H13.7791C13.6319 35.6345 13.4879 35.5931 13.3622 35.5163C13.2408 35.4421 13.1409 35.3376 13.0722 35.2131C13.0139 35.0836 12.9902 34.941 13.0037 34.7993C13.0177 34.6523 13.0712 34.5118 13.1586 34.3927C14.6241 32.4263 16.5792 30.8782 18.8293 29.9026L20.2445 29.289L19.1067 28.2475C18.1874 27.406 17.481 26.3581 17.0458 25.1902C16.6106 24.0223 16.4589 22.7678 16.6033 21.5298C16.7477 20.2919 17.184 19.1059 17.8764 18.0695C18.5687 17.0332 19.4973 16.176 20.5856 15.5686C21.6739 14.9613 22.891 14.621 24.1365 14.576C25.382 14.5309 26.6205 14.7822 27.7499 15.3093C28.8793 15.8364 29.8674 16.6241 30.6328 17.6077C31.3974 18.5901 31.918 19.7398 32.1519 20.9624M24.3064 34.8665L33.1351 20.7795M31.7795 21.7839C31.7804 21.7834 31.7813 21.7828 31.7823 21.7823L32.2923 22.6424M31.7795 21.7839C31.7789 21.7843 31.7783 21.7846 31.7777 21.785L32.2923 22.6424M31.7795 21.7839C31.9175 21.7006 32.027 21.5773 32.0935 21.4304C32.1598 21.2839 32.1801 21.1207 32.1519 20.9624M32.2923 22.6424C32.6056 22.4544 32.854 22.1754 33.0046 21.8426C33.1552 21.5097 33.2007 21.1389 33.1351 20.7795M32.1519 20.9624C32.1522 20.9639 32.1525 20.9654 32.1528 20.9669L33.1351 20.7795M32.1519 20.9624C32.1517 20.9613 32.1515 20.9602 32.1513 20.9591L33.1351 20.7795" stroke="#AB47BC" stroke-width="2"/> <defs> <filter id="filter0_d_11011_252853" x="0.955078" y="0.217773" width="77.0898" height="77.2734" filterUnits="userSpaceOnUse" color-interpolation-filters="sRGB"> <feFlood flood-opacity="0" result="BackgroundImageFix"/> <feColorMatrix in="SourceAlpha" type="matrix" values="0 0 0 0 0 0 0 0 0 0 0 0 0 0 0 0 0 0 127 0" result="hardAlpha"/> <feOffset/> <feGaussianBlur stdDeviation="12"/> <feComposite in2="hardAlpha" operator="out"/> <feColorMatrix type="matrix" values="0 0 0 0 0.670588 0 0 0 0 0.278431 0 0 0 0 0.737255 0 0 0 1 0"/> <feBlend mode="normal" in2="BackgroundImageFix" result="effect1_dropShadow_11011_252853"/> <feBlend mode="normal" in="SourceGraphic" in2="effect1_dropShadow_11011_252853" result="shape"/> </filter> </defs> </svg>