<svg width="24" height="25" viewBox="0 0 24 25" fill="none" xmlns="http://www.w3.org/2000/svg">
<path d="M15.5 14.8457H14.71L14.43 14.5757C15.41 13.4357 16 11.9557 16 10.3457C16 6.7557 13.09 3.8457 9.5 3.8457C5.91 3.8457 3 6.7557 3 10.3457C3 13.9357 5.91 16.8457 9.5 16.8457C11.11 16.8457 12.59 16.2557 13.73 15.2757L14 15.5557V16.3457L19 21.3357L20.49 19.8457L15.5 14.8457ZM9.5 14.8457C7.01 14.8457 5 12.8357 5 10.3457C5 7.8557 7.01 5.8457 9.5 5.8457C11.99 5.8457 14 7.8557 14 10.3457C14 12.8357 11.99 14.8457 9.5 14.8457Z" fill="#D0D5DD"/>
</svg>
