<svg width="40" height="40" viewBox="0 0 40 40" fill="none" xmlns="http://www.w3.org/2000/svg">
<path d="M0 20C0 8.95431 8.95431 0 20 0V0C31.0457 0 40 8.95431 40 20V20C40 31.0457 31.0457 40 20 40V40C8.95431 40 0 31.0457 0 20V20Z" fill="white"/>
<g clip-path="url(#clip0_12637_301768)">
<path d="M36.875 20C36.875 29.3234 29.3234 36.875 20 36.875C10.6766 36.875 3.125 29.3234 3.125 20C3.125 10.6766 10.6766 3.125 20 3.125C29.3234 3.125 36.875 10.6766 36.875 20Z" fill="url(#paint0_linear_12637_301768)"/>
<path d="M16.9062 27.7344C16.3578 27.7344 16.4563 27.5234 16.2594 27.0031L14.6562 21.7156L24.6125 15.5L25.7797 15.8094L24.8094 18.4531L16.9062 27.7344Z" fill="#C8DAEA"/>
<path d="M16.9062 27.7344C17.3281 27.7344 17.5109 27.5375 17.75 27.3125C18.1156 26.9609 22.8125 22.3906 22.8125 22.3906L19.9297 21.6875L17.2578 23.375L16.9062 27.5938V27.7344Z" fill="#A9C9DD"/>
<path d="M17.1861 23.4311L23.9924 28.4514C24.7658 28.8733 25.3283 28.6624 25.5252 27.7343L28.2955 14.6843C28.5768 13.5452 27.8596 13.0389 27.1143 13.3764L10.858 19.6483C9.74707 20.0983 9.76113 20.7171 10.6611 20.9843L14.8377 22.2921L24.4986 16.203C24.9486 15.9218 25.3705 16.0764 25.033 16.3858L17.1861 23.4311Z" fill="url(#paint1_linear_12637_301768)"/>
</g>
<path d="M20 33.75C12.4061 33.75 6.25 27.5939 6.25 20H-6.25C-6.25 34.4975 5.50253 46.25 20 46.25V33.75ZM33.75 20C33.75 27.5939 27.5939 33.75 20 33.75V46.25C34.4975 46.25 46.25 34.4975 46.25 20H33.75ZM20 6.25C27.5939 6.25 33.75 12.4061 33.75 20H46.25C46.25 5.50253 34.4975 -6.25 20 -6.25V6.25ZM20 -6.25C5.50253 -6.25 -6.25 5.50253 -6.25 20H6.25C6.25 12.4061 12.4061 6.25 20 6.25V-6.25Z" fill="white"/>
<defs>
<linearGradient id="paint0_linear_12637_301768" x1="24.9458" y1="8.45891" x2="16.5083" y2="28.1461" gradientUnits="userSpaceOnUse">
<stop stop-color="#37AEE2"/>
<stop offset="1" stop-color="#1E96C8"/>
</linearGradient>
<linearGradient id="paint1_linear_12637_301768" x1="21.263" y1="20.5279" x2="24.7786" y2="26.1529" gradientUnits="userSpaceOnUse">
<stop stop-color="#EFF7FC"/>
<stop offset="1" stop-color="white"/>
</linearGradient>
<clipPath id="clip0_12637_301768">
<rect width="33.75" height="33.75" fill="white" transform="translate(3.125 3.125)"/>
</clipPath>
</defs>
</svg>
