<svg width="40" height="40" viewBox="0 0 40 40" fill="none" xmlns="http://www.w3.org/2000/svg">
<path d="M0 20C0 8.95431 8.95431 0 20 0V0C31.0457 0 40 8.95431 40 20V20C40 31.0457 31.0457 40 20 40V40C8.95431 40 0 31.0457 0 20V20Z" fill="#2787F5"/>
<g clip-path="url(#clip0_12637_301767)">
<path fill-rule="evenodd" clip-rule="evenodd" d="M14.0323 3.04688H24.7177C34.474 3.04688 36.7969 5.36979 36.7969 15.126V25.8115C36.7969 35.5677 34.474 37.8906 24.7177 37.8906H14.0323C4.27604 37.8906 1.95312 35.5677 1.95312 25.8115V15.126C1.95312 5.36979 4.27604 3.04688 14.0323 3.04688Z" fill="#2787F5"/>
<path fill-rule="evenodd" clip-rule="evenodd" d="M30.4877 15.0511C30.6492 14.5128 30.4877 14.1172 29.7194 14.1172H27.1787C26.5327 14.1172 26.2349 14.4589 26.0734 14.8357C26.0734 14.8357 24.7813 17.985 22.951 20.0307C22.3588 20.6228 22.0896 20.8112 21.7666 20.8112C21.6052 20.8112 21.3714 20.6228 21.3714 20.0845V15.0511C21.3714 14.4051 21.1839 14.1172 20.6455 14.1172H16.653C16.2493 14.1172 16.0065 14.417 16.0065 14.7012C16.0065 15.3136 16.9216 15.4548 17.016 17.1775V20.919C17.016 21.7393 16.8678 21.888 16.5448 21.888C15.6835 21.888 13.5884 18.7246 12.3458 15.1049C12.1022 14.4014 11.858 14.1172 11.2087 14.1172H8.66798C7.94206 14.1172 7.79688 14.4589 7.79688 14.8357C7.79688 15.5087 8.65823 18.8464 11.8075 23.2607C13.9069 26.2753 16.865 27.9095 19.5566 27.9095C21.1716 27.9095 21.3714 27.5465 21.3714 26.9214V24.6429C21.3714 23.917 21.5244 23.7721 22.0358 23.7721C22.4127 23.7721 23.0587 23.9605 24.566 25.414C26.2887 27.1367 26.5727 27.9095 27.5417 27.9095H30.0824C30.8083 27.9095 31.1712 27.5466 30.9618 26.8303C30.7327 26.1164 29.9102 25.0807 28.8189 23.8529C28.2267 23.153 27.3385 22.3994 27.0693 22.0225C26.6924 21.538 26.8001 21.3227 27.0693 20.892C27.0693 20.892 30.1647 16.5315 30.4877 15.0511V15.0511Z" fill="white"/>
</g>
<path d="M20 33.75C12.4061 33.75 6.25 27.5939 6.25 20H-6.25C-6.25 34.4975 5.50253 46.25 20 46.25V33.75ZM33.75 20C33.75 27.5939 27.5939 33.75 20 33.75V46.25C34.4975 46.25 46.25 34.4975 46.25 20H33.75ZM20 6.25C27.5939 6.25 33.75 12.4061 33.75 20H46.25C46.25 5.50253 34.4975 -6.25 20 -6.25V6.25ZM20 -6.25C5.50253 -6.25 -6.25 5.50253 -6.25 20H6.25C6.25 12.4061 12.4061 6.25 20 6.25V-6.25Z" fill="white"/>
<defs>
<clipPath id="clip0_12637_301767">
<rect width="34.8438" height="34.8438" fill="white" transform="translate(1.95312 3.04688)"/>
</clipPath>
</defs>
</svg>
