<svg width="40" height="41" viewBox="0 0 40 41" fill="none" xmlns="http://www.w3.org/2000/svg">
<path d="M0 20.5C0 9.45431 8.95431 0.5 20 0.5V0.5C31.0457 0.5 40 9.45431 40 20.5V20.5C40 31.5457 31.0457 40.5 20 40.5V40.5C8.95431 40.5 0 31.5457 0 20.5V20.5Z" fill="white"/>
<g clip-path="url(#clip0_12637_301757)">
<path d="M8.54761 13.4688H31.4409C32.8897 13.4688 34.0626 14.6407 34.0626 16.0885V24.8209C34.0626 26.2686 32.8898 27.4407 31.4409 27.4407H23.2312L24.358 30.1982L19.4022 27.4407H8.55925C7.11048 27.4407 5.93758 26.2687 5.93758 24.8209V16.0885C5.92609 14.6522 7.09895 13.4688 8.54772 13.4688H8.54761Z" fill="#7F54B3"/>
<path d="M7.54045 15.8564C7.70051 15.6393 7.9406 15.525 8.26072 15.5022C8.8438 15.4565 9.17536 15.7307 9.25539 16.3248C9.60981 18.7126 9.99853 20.7347 10.4102 22.3913L12.9139 17.6272C13.1426 17.1931 13.4284 16.9646 13.7714 16.9418C14.2745 16.9075 14.5832 17.2274 14.7089 17.9014C14.9947 19.421 15.3606 20.7119 15.795 21.8086C16.0923 18.9067 16.5954 16.8161 17.3042 15.5251C17.4757 15.2052 17.7273 15.0452 18.0588 15.0224C18.3218 14.9995 18.5619 15.0795 18.7791 15.2509C18.9963 15.4222 19.1106 15.6393 19.1335 15.9021C19.1449 16.1077 19.1106 16.2791 19.0192 16.4505C18.5733 17.273 18.2074 18.6555 17.9102 20.5747C17.6244 22.4369 17.5215 23.8878 17.5901 24.9275C17.613 25.2131 17.5672 25.4645 17.4529 25.6815C17.3157 25.9329 17.1099 26.07 16.847 26.0928C16.5497 26.1157 16.241 25.9786 15.9438 25.6701C14.8805 24.5848 14.0344 22.9625 13.4171 20.8032C12.674 22.2655 12.1252 23.3623 11.7708 24.0935C11.0963 25.3844 10.5246 26.0471 10.0444 26.0813C9.73574 26.1042 9.47278 25.8414 9.24412 25.293C8.66104 23.7964 8.03222 20.906 7.35766 16.6218C7.31193 16.3248 7.38052 16.062 7.54058 15.8563L7.54045 15.8564ZM32.1103 17.65C31.6987 16.9303 31.0927 16.4961 30.281 16.3247C30.0638 16.279 29.858 16.2561 29.6637 16.2561C28.5661 16.2561 27.6744 16.8274 26.977 17.9699C26.3825 18.941 26.0852 20.0149 26.0852 21.1916C26.0852 22.0713 26.2681 22.8253 26.634 23.4537C27.0456 24.1734 27.6515 24.6076 28.4632 24.779C28.6804 24.8247 28.8862 24.8475 29.0806 24.8475C30.1895 24.8475 31.0813 24.2763 31.7673 23.1338C32.3618 22.1513 32.6591 21.0773 32.6591 19.9007C32.6705 19.0096 32.4761 18.267 32.1103 17.65V17.65ZM30.6697 20.8146C30.5097 21.5686 30.2239 22.1284 29.8008 22.5055C29.4693 22.8025 29.1606 22.9282 28.8748 22.8711C28.6004 22.814 28.3717 22.5741 28.2002 22.1285C28.063 21.7743 27.9944 21.4202 27.9944 21.0889C27.9944 20.8032 28.0173 20.5176 28.0745 20.2549C28.1774 19.7865 28.3717 19.3295 28.6804 18.8953C29.0577 18.3355 29.4579 18.107 29.8695 18.187C30.1439 18.2441 30.3725 18.484 30.544 18.9296C30.6812 19.2837 30.7498 19.6379 30.7498 19.9692C30.7498 20.2663 30.7269 20.5519 30.6698 20.8146L30.6697 20.8146ZM24.9532 17.65C24.5416 16.9303 23.9243 16.4961 23.124 16.3247C22.9068 16.279 22.701 16.2561 22.5066 16.2561C21.4091 16.2561 20.5173 16.8274 19.8199 17.9699C19.2254 18.941 18.9282 20.0149 18.9282 21.1916C18.9282 22.0713 19.1111 22.8253 19.4769 23.4537C19.8885 24.1734 20.4945 24.6076 21.3062 24.779C21.5234 24.8247 21.7292 24.8475 21.9235 24.8475C23.0325 24.8475 23.9243 24.2763 24.6102 23.1338C25.2048 22.1513 25.502 21.0773 25.502 19.9007C25.502 19.0096 25.3191 18.267 24.9532 17.65V17.65ZM23.5013 20.8146C23.3412 21.5686 23.0554 22.1284 22.6324 22.5055C22.3008 22.8025 21.9921 22.9282 21.7063 22.8711C21.4319 22.814 21.2033 22.5741 21.0318 22.1285C20.8946 21.7743 20.826 21.4202 20.826 21.0889C20.826 20.8032 20.8488 20.5176 20.906 20.2549C21.0089 19.7865 21.2033 19.3295 21.5119 18.8953C21.8892 18.3355 22.2894 18.107 22.701 18.187C22.9754 18.2441 23.204 18.484 23.3755 18.9296C23.5127 19.2837 23.5813 19.6379 23.5813 19.9692C23.5928 20.2663 23.5585 20.5519 23.5013 20.8146L23.5013 20.8146Z" fill="white"/>
</g>
<defs>
<clipPath id="clip0_12637_301757">
<rect width="28.125" height="16.7969" fill="white" transform="translate(5.9375 13.4688)"/>
</clipPath>
</defs>
</svg>
