<svg width="28" height="28" viewBox="0 0 28 28" fill="none" xmlns="http://www.w3.org/2000/svg">
<path d="M14 0.666626C6.63996 0.666626 0.666626 6.63996 0.666626 14C0.666626 21.36 6.63996 27.3333 14 27.3333C21.36 27.3333 27.3333 21.36 27.3333 14C27.3333 6.63996 21.36 0.666626 14 0.666626ZM14 4.66663C16.2133 4.66663 18 6.45329 18 8.66663C18 10.88 16.2133 12.6666 14 12.6666C11.7866 12.6666 9.99996 10.88 9.99996 8.66663C9.99996 6.45329 11.7866 4.66663 14 4.66663ZM14 23.6C10.6666 23.6 7.71996 21.8933 5.99996 19.3066C6.03996 16.6533 11.3333 15.2 14 15.2C16.6533 15.2 21.96 16.6533 22 19.3066C20.28 21.8933 17.3333 23.6 14 23.6Z" fill="white"/>
</svg>
