<svg width="16" height="16" viewBox="0 0 16 16" fill="none" xmlns="http://www.w3.org/2000/svg">
<g clip-path="url(#clip0_11926_292067)">
<path d="M6.68695 1.90672L6.04136 1.52498L6.03928 1.52853L6.68695 1.90672ZM1.18248 11.3334L0.534732 10.9552L0.528911 10.9655L1.18248 11.3334ZM2.29377 13.3334L2.28532 14.0834H2.29377V13.3334ZM13.3027 13.3334V14.0834L13.3112 14.0833L13.3027 13.3334ZM14.414 11.3334L15.0677 10.9654L15.0617 10.9552L14.414 11.3334ZM8.90953 1.90672L9.55721 1.52853L9.55511 1.52498L8.90953 1.90672ZM7.79824 1.26489V0.514893V1.26489ZM8.54824 5.33339C8.54824 4.91918 8.21245 4.58339 7.79824 4.58339C7.38403 4.58339 7.04824 4.91918 7.04824 5.33339H8.54824ZM7.04824 8.00006C7.04824 8.41427 7.38403 8.75006 7.79824 8.75006C8.21245 8.75006 8.54824 8.41427 8.54824 8.00006H7.04824ZM7.79824 9.91672C7.38403 9.91672 7.04824 10.2525 7.04824 10.6667C7.04824 11.0809 7.38403 11.4167 7.79824 11.4167V9.91672ZM7.80474 11.4167C8.21895 11.4167 8.55474 11.0809 8.55474 10.6667C8.55474 10.2525 8.21895 9.91672 7.80474 9.91672V11.4167ZM6.03928 1.52853L0.534813 10.9552L1.83015 11.7116L7.33462 2.28491L6.03928 1.52853ZM0.528911 10.9655C0.35213 11.2795 0.259292 11.6342 0.258309 11.9944L1.7583 11.9984C1.75859 11.893 1.78585 11.7905 1.83605 11.7013L0.528911 10.9655ZM0.258309 11.9944C0.257326 12.3545 0.348225 12.7097 0.523265 13.0247L1.83445 12.2961C1.78472 12.2066 1.75802 12.1039 1.7583 11.9984L0.258309 11.9944ZM0.523265 13.0247C0.698368 13.3398 0.952183 13.6048 1.26132 13.7914L2.03648 12.5072C1.95442 12.4577 1.88412 12.3855 1.83445 12.2961L0.523265 13.0247ZM1.26132 13.7914C1.57061 13.9781 1.9237 14.0793 2.28532 14.0833L2.30223 12.5834C2.20996 12.5824 2.1184 12.5566 2.03648 12.5072L1.26132 13.7914ZM2.29377 14.0834H13.3027V12.5834H2.29377V14.0834ZM13.3112 14.0833C13.6728 14.0793 14.0259 13.9781 14.3352 13.7914L13.56 12.5072C13.4781 12.5566 13.3865 12.5824 13.2943 12.5834L13.3112 14.0833ZM14.3352 13.7914C14.6443 13.6048 14.8981 13.3398 15.0732 13.0247L13.762 12.2961C13.7124 12.3855 13.6421 12.4577 13.56 12.5072L14.3352 13.7914ZM15.0732 13.0247C15.2483 12.7097 15.3392 12.3545 15.3382 11.9944L13.8382 11.9984C13.8385 12.1039 13.8118 12.2066 13.762 12.2961L15.0732 13.0247ZM15.3382 11.9944C15.3372 11.6342 15.2444 11.2795 15.0676 10.9655L13.7604 11.7013C13.8106 11.7905 13.8379 11.893 13.8382 11.9984L15.3382 11.9944ZM15.0617 10.9552L9.5572 1.52853L8.26186 2.28491L13.7663 11.7116L15.0617 10.9552ZM9.55511 1.52498C9.37448 1.21951 9.1188 0.964687 8.811 0.786916L8.0608 2.08584C8.14231 2.13292 8.21287 2.20208 8.26395 2.28846L9.55511 1.52498ZM8.811 0.786916C8.50306 0.609064 8.15418 0.514893 7.79824 0.514893V2.01489C7.88907 2.01489 7.97943 2.03884 8.0608 2.08584L8.811 0.786916ZM7.79824 0.514893C7.4423 0.514893 7.09342 0.609064 6.78548 0.786916L7.53568 2.08584C7.61705 2.03884 7.70741 2.01489 7.79824 2.01489V0.514893ZM6.78548 0.786916C6.47768 0.964687 6.222 1.21951 6.04137 1.52498L7.33253 2.28846C7.38361 2.20208 7.45417 2.13292 7.53568 2.08584L6.78548 0.786916ZM7.04824 5.33339V8.00006H8.54824V5.33339H7.04824ZM7.79824 11.4167H7.80474V9.91672H7.79824V11.4167Z" fill="white"/>
</g>
<defs>
<clipPath id="clip0_11926_292067">
<rect width="15.5971" height="16" fill="white"/>
</clipPath>
</defs>
</svg>
