<svg width="56" height="56" viewBox="0 0 56 56" fill="none" xmlns="http://www.w3.org/2000/svg">
<circle cx="28" cy="28" r="28" fill="white"/>
<path d="M35.848 31.6C35.992 30.412 36.1 29.224 36.1 28C36.1 26.776 35.992 25.588 35.848 24.4H41.932C42.22 25.552 42.4 26.758 42.4 28C42.4 29.242 42.22 30.448 41.932 31.6H35.848ZM32.662 41.608C33.742 39.61 34.57 37.45 35.146 35.2H40.456C38.7121 38.2029 35.9454 40.4776 32.662 41.608ZM32.212 31.6H23.788C23.608 30.412 23.5 29.224 23.5 28C23.5 26.776 23.608 25.57 23.788 24.4H32.212C32.374 25.57 32.5 26.776 32.5 28C32.5 29.224 32.374 30.412 32.212 31.6ZM28 42.328C26.506 40.168 25.3 37.774 24.562 35.2H31.438C30.7 37.774 29.494 40.168 28 42.328ZM20.8 20.8H15.544C17.2699 17.789 20.0346 15.5107 23.32 14.392C22.24 16.39 21.43 18.55 20.8 20.8ZM15.544 35.2H20.8C21.43 37.45 22.24 39.61 23.32 41.608C20.0415 40.477 17.2807 38.2019 15.544 35.2ZM14.068 31.6C13.78 30.448 13.6 29.242 13.6 28C13.6 26.758 13.78 25.552 14.068 24.4H20.152C20.008 25.588 19.9 26.776 19.9 28C19.9 29.224 20.008 30.412 20.152 31.6H14.068ZM28 13.654C29.494 15.814 30.7 18.226 31.438 20.8H24.562C25.3 18.226 26.506 15.814 28 13.654ZM40.456 20.8H35.146C34.5826 18.5706 33.7484 16.4186 32.662 14.392C35.974 15.526 38.728 17.812 40.456 20.8ZM28 10C18.046 10 10 18.1 10 28C10 32.7739 11.8964 37.3523 15.2721 40.7279C16.9435 42.3994 18.9278 43.7252 21.1117 44.6298C23.2956 45.5344 25.6362 46 28 46C32.7739 46 37.3523 44.1036 40.7279 40.7279C44.1036 37.3523 46 32.7739 46 28C46 25.6362 45.5344 23.2956 44.6298 21.1117C43.7252 18.9278 42.3994 16.9435 40.7279 15.2721C39.0565 13.6006 37.0722 12.2748 34.8883 11.3702C32.7044 10.4656 30.3638 10 28 10Z" fill="url(#paint0_linear_12653_43288)"/>
<defs>
<linearGradient id="paint0_linear_12653_43288" x1="10" y1="10" x2="47.6766" y2="11.907" gradientUnits="userSpaceOnUse">
<stop stop-color="#105AD7"/>
<stop offset="1" stop-color="#63A5F2"/>
</linearGradient>
</defs>
</svg>
