<svg width="20" height="20" viewBox="0 0 20 20" fill="none" xmlns="http://www.w3.org/2000/svg">
<path d="M9.16943 3.33417H3.3361C2.89407 3.33417 2.47015 3.50977 2.15759 3.82233C1.84503 4.13489 1.66943 4.55881 1.66943 5.00084V16.6675C1.66943 17.1095 1.84503 17.5335 2.15759 17.846C2.47015 18.1586 2.89407 18.3342 3.3361 18.3342H15.0028C15.4448 18.3342 15.8687 18.1586 16.1813 17.846C16.4938 17.5335 16.6694 17.1095 16.6694 16.6675V10.8342M15.4194 2.08417C15.751 1.75265 16.2006 1.56641 16.6694 1.56641C17.1383 1.56641 17.5879 1.75265 17.9194 2.08417C18.251 2.41569 18.4372 2.86533 18.4372 3.33417C18.4372 3.80301 18.251 4.25265 17.9194 4.58417L10.0028 12.5008L6.66943 13.3342L7.50277 10.0008L15.4194 2.08417Z" stroke="#790E8B" stroke-width="1.67" stroke-linecap="round" stroke-linejoin="round"/>
</svg>
