<svg width="4" height="8" viewBox="0 0 4 8" fill="none" xmlns="http://www.w3.org/2000/svg">
<path d="M1.82552 2.38517C2.03239 2.38517 2.21167 2.3107 2.3634 2.16177C2.51235 2.0128 2.58683 1.8349 2.58683 1.62803C2.58683 1.40738 2.51235 1.2253 2.3634 1.08186C2.21167 0.938465 2.03239 0.866699 1.82552 0.866699C1.61585 0.866699 1.43793 0.941174 1.29178 1.09012C1.14283 1.23907 1.06836 1.41841 1.06836 1.62803C1.06836 1.83768 1.14283 2.01557 1.29178 2.16177C1.44073 2.31072 1.61863 2.38517 1.82552 2.38517Z" fill="#C4C4C4"/>
<path d="M3.44902 6.01858H2.94771C2.94771 6.01858 2.70369 6.0222 2.69529 5.79581C2.67132 5.49767 2.65182 5.25276 2.64936 5.18217L2.6204 4.45396C2.61762 4.40986 2.61627 4.35195 2.61627 4.28016C2.61627 4.12023 2.61486 3.99467 2.61215 3.90364C2.60937 3.87052 2.60801 3.83331 2.60801 3.79195L2.62042 3.48161V2.75342C1.9032 3.09268 1.26743 3.30784 0.713009 3.39889L0.601273 3.91607C0.700597 3.93541 0.799897 3.94504 0.899197 3.94504C1.03159 3.94504 1.15574 3.92163 1.27157 3.87471L1.28813 4.91324C1.28813 5.16738 1.29494 5.48975 1.30159 5.81269C1.30677 6.02224 1.09722 6.01863 1.09722 6.01863H0.552734V7.13258H1.29948C1.29946 7.13277 1.29946 7.13302 1.29943 7.13321C1.30119 7.133 1.30298 7.13279 1.30474 7.13258H3.44907V6.01858H3.44902Z" fill="#C4C4C4"/>
</svg>
