<svg width="26" height="24" viewBox="0 0 26 24" fill="none" xmlns="http://www.w3.org/2000/svg">
<path d="M23.133 16.9201V19.9201C23.1341 20.1986 23.0742 20.4743 22.9568 20.7294C22.8395 20.9846 22.6675 21.2137 22.4517 21.402C22.2359 21.5902 21.9811 21.7336 21.7037 21.8228C21.4263 21.912 21.1324 21.9452 20.8407 21.9201C17.6051 21.5857 14.497 20.5342 11.7663 18.8501C9.22571 17.3148 7.07173 15.2663 5.45733 12.8501C3.68028 10.2413 2.57438 7.27109 2.22924 4.1801C2.20296 3.90356 2.23752 3.62486 2.33071 3.36172C2.4239 3.09859 2.57368 2.85679 2.77051 2.65172C2.96735 2.44665 3.20692 2.28281 3.47399 2.17062C3.74105 2.05843 4.02976 2.00036 4.32171 2.0001H7.4762C7.9865 1.99532 8.48121 2.16718 8.86813 2.48363C9.25505 2.80008 9.50777 3.23954 9.57919 3.7201C9.71233 4.68016 9.95925 5.62282 10.3152 6.5301C10.4567 6.88802 10.4873 7.27701 10.4035 7.65098C10.3196 8.02494 10.1248 8.36821 9.84206 8.6401L8.50666 9.9101C10.0035 12.4136 12.1832 14.4865 14.8156 15.9101L16.151 14.6401C16.4369 14.3712 16.7979 14.1859 17.1911 14.1062C17.5843 14.0264 17.9933 14.0556 18.3697 14.1901C19.3237 14.5286 20.3149 14.7635 21.3244 14.8901C21.8352 14.9586 22.3016 15.2033 22.6351 15.5776C22.9686 15.9519 23.1458 16.4297 23.133 16.9201Z" stroke="#FFFFFF" stroke-width="2" stroke-linecap="round" stroke-linejoin="round"/>
</svg>
