<svg width="21" height="21" viewBox="0 0 21 21" fill="none" xmlns="http://www.w3.org/2000/svg">
<g clip-path="url(#clip0_1479_26423)">
<path d="M1.3335 1.33203H4.66683L6.90016 12.4904C6.97637 12.874 7.18509 13.2187 7.48978 13.4639C7.79448 13.7092 8.17574 13.8395 8.56683 13.832H16.6668C17.0579 13.8395 17.4392 13.7092 17.7439 13.4639C18.0486 13.2187 18.2573 12.874 18.3335 12.4904L19.6668 5.4987H5.50016M8.8335 17.9987C8.8335 18.4589 8.4604 18.832 8.00016 18.832C7.53992 18.832 7.16683 18.4589 7.16683 17.9987C7.16683 17.5385 7.53992 17.1654 8.00016 17.1654C8.4604 17.1654 8.8335 17.5385 8.8335 17.9987ZM18.0002 17.9987C18.0002 18.4589 17.6271 18.832 17.1668 18.832C16.7066 18.832 16.3335 18.4589 16.3335 17.9987C16.3335 17.5385 16.7066 17.1654 17.1668 17.1654C17.6271 17.1654 18.0002 17.5385 18.0002 17.9987Z" stroke="white" stroke-width="1.67" stroke-linecap="round" stroke-linejoin="round"/>
</g>
<defs>
<clipPath id="clip0_1479_26423">
<rect width="20" height="20" fill="white" transform="translate(0.5 0.5)"/>
</clipPath>
</defs>
</svg>
